<svg width="566" height="378" viewBox="0 0 566 378" fill="none" xmlns="http://www.w3.org/2000/svg">
<rect x="-0.5" y="0.5" width="565" height="377" transform="matrix(1 0 0 -1 1 378)" fill="white"/>
<path d="M96.5 308V258.5M96.5 94V258.5M96.5 258.5H494" stroke="black"/>
<path d="M239.939 43.3636V44.358H235.823V43.3636H239.939ZM237.056 51V42.3097C237.056 41.8722 237.158 41.5076 237.364 41.2159C237.569 40.9242 237.836 40.7055 238.164 40.5597C238.493 40.4138 238.839 40.3409 239.203 40.3409C239.492 40.3409 239.727 40.3641 239.909 40.4105C240.092 40.4569 240.228 40.5 240.317 40.5398L239.979 41.554C239.919 41.5341 239.837 41.5092 239.73 41.4794C239.628 41.4496 239.492 41.4347 239.323 41.4347C238.935 41.4347 238.655 41.5324 238.483 41.728C238.314 41.9235 238.229 42.2102 238.229 42.5881V51H237.056ZM241.584 51V43.3636H242.717V44.517H242.797C242.936 44.1392 243.188 43.8326 243.552 43.5973C243.917 43.362 244.328 43.2443 244.785 43.2443C244.872 43.2443 244.979 43.246 245.108 43.2493C245.238 43.2526 245.336 43.2576 245.402 43.2642V44.4574C245.362 44.4474 245.271 44.4325 245.128 44.4126C244.989 44.3894 244.842 44.3778 244.686 44.3778C244.315 44.3778 243.983 44.4557 243.692 44.6115C243.403 44.764 243.175 44.9761 243.006 45.2479C242.84 45.5163 242.757 45.8229 242.757 46.1676V51H241.584ZM246.952 51V40.8182H253.097V41.9119H248.185V45.3523H252.778V46.446H248.185V49.9062H253.176V51H246.952ZM254.762 41.9119V40.8182H262.398V41.9119H259.197V51H257.964V41.9119H254.762ZM264.301 51V40.8182H265.534V45.3523H270.963V40.8182H272.196V51H270.963V46.446H265.534V51H264.301ZM277.727 40.8182H279.139L281.963 45.571H282.082L284.906 40.8182H286.318L282.639 46.804V51H281.406V46.804L277.727 40.8182ZM287.754 51V43.3636H288.927V51H287.754ZM288.35 42.0909C288.121 42.0909 287.924 42.013 287.759 41.8572C287.596 41.7015 287.515 41.5142 287.515 41.2955C287.515 41.0767 287.596 40.8894 287.759 40.7337C287.924 40.5779 288.121 40.5 288.35 40.5C288.579 40.5 288.774 40.5779 288.937 40.7337C289.103 40.8894 289.185 41.0767 289.185 41.2955C289.185 41.5142 289.103 41.7015 288.937 41.8572C288.774 42.013 288.579 42.0909 288.35 42.0909ZM294.278 51.1591C293.542 51.1591 292.907 50.9967 292.373 50.6719C291.843 50.3438 291.434 49.8864 291.145 49.2997C290.86 48.7098 290.718 48.0237 290.718 47.2415C290.718 46.4593 290.86 45.7699 291.145 45.1733C291.434 44.5734 291.835 44.1061 292.349 43.7713C292.866 43.4332 293.469 43.2642 294.158 43.2642C294.556 43.2642 294.949 43.3305 295.336 43.4631C295.724 43.5956 296.077 43.8111 296.395 44.1094C296.714 44.4044 296.967 44.7955 297.156 45.2827C297.345 45.7699 297.439 46.3698 297.439 47.0824V47.5795H291.553V46.5653H296.246C296.246 46.1345 296.16 45.75 295.988 45.4119C295.819 45.0739 295.577 44.8071 295.262 44.6115C294.95 44.416 294.582 44.3182 294.158 44.3182C293.691 44.3182 293.287 44.4342 292.945 44.6662C292.607 44.8949 292.347 45.1932 292.165 45.5611C291.982 45.929 291.891 46.3234 291.891 46.7443V47.4205C291.891 47.9972 291.991 48.486 292.189 48.8871C292.392 49.2848 292.672 49.5881 293.03 49.7969C293.388 50.0024 293.804 50.1051 294.278 50.1051C294.586 50.1051 294.864 50.062 295.113 49.9759C295.365 49.8864 295.582 49.7538 295.764 49.5781C295.946 49.3991 296.087 49.1771 296.187 48.9119L297.32 49.2301C297.201 49.6146 297 49.9527 296.719 50.2443C296.437 50.5327 296.089 50.758 295.675 50.9205C295.26 51.0795 294.795 51.1591 294.278 51.1591ZM300.398 40.8182V51H299.224V40.8182H300.398ZM305.43 51.1591C304.794 51.1591 304.232 50.9983 303.745 50.6768C303.257 50.352 302.876 49.8946 302.601 49.3047C302.326 48.7114 302.189 48.0104 302.189 47.2017C302.189 46.3996 302.326 45.7036 302.601 45.1136C302.876 44.5237 303.259 44.0679 303.75 43.7464C304.24 43.425 304.807 43.2642 305.45 43.2642C305.947 43.2642 306.34 43.3471 306.628 43.5128C306.92 43.6752 307.142 43.8608 307.294 44.0696C307.45 44.2751 307.571 44.4441 307.657 44.5767H307.757V40.8182H308.93V51H307.797V49.8267H307.657C307.571 49.9659 307.449 50.1416 307.289 50.3537C307.13 50.5625 306.903 50.7498 306.608 50.9155C306.313 51.0779 305.921 51.1591 305.43 51.1591ZM305.589 50.1051C306.06 50.1051 306.458 49.9825 306.782 49.7372C307.107 49.4886 307.354 49.1456 307.523 48.7081C307.692 48.2673 307.777 47.7585 307.777 47.1818C307.777 46.6117 307.694 46.1129 307.528 45.6854C307.362 45.2545 307.117 44.9197 306.792 44.6811C306.467 44.4392 306.066 44.3182 305.589 44.3182C305.092 44.3182 304.678 44.4458 304.346 44.701C304.018 44.9529 303.771 45.2959 303.605 45.7301C303.443 46.161 303.362 46.6449 303.362 47.1818C303.362 47.7254 303.445 48.2192 303.61 48.6634C303.779 49.1042 304.028 49.4555 304.356 49.7173C304.688 49.9759 305.099 50.1051 305.589 50.1051ZM323.532 44H322.299C322.226 43.6454 322.098 43.3338 321.916 43.0653C321.737 42.7969 321.518 42.5715 321.26 42.3892C321.004 42.2036 320.721 42.0644 320.409 41.9716C320.098 41.8788 319.773 41.8324 319.435 41.8324C318.819 41.8324 318.26 41.9882 317.76 42.2997C317.262 42.6113 316.866 43.0703 316.571 43.6768C316.28 44.2834 316.134 45.0275 316.134 45.9091C316.134 46.7907 316.28 47.5348 316.571 48.1413C316.866 48.7479 317.262 49.2069 317.76 49.5185C318.26 49.83 318.819 49.9858 319.435 49.9858C319.773 49.9858 320.098 49.9394 320.409 49.8466C320.721 49.7538 321.004 49.6162 321.26 49.4339C321.518 49.2483 321.737 49.0213 321.916 48.7528C322.098 48.4811 322.226 48.1695 322.299 47.8182H323.532C323.439 48.3385 323.27 48.8042 323.025 49.2152C322.779 49.6262 322.474 49.9759 322.11 50.2642C321.745 50.5492 321.336 50.7663 320.882 50.9155C320.431 51.0646 319.949 51.1392 319.435 51.1392C318.567 51.1392 317.794 50.9271 317.118 50.5028C316.442 50.0786 315.91 49.4754 315.522 48.6932C315.135 47.911 314.941 46.983 314.941 45.9091C314.941 44.8352 315.135 43.9072 315.522 43.125C315.91 42.3428 316.442 41.7396 317.118 41.3153C317.794 40.8911 318.567 40.679 319.435 40.679C319.949 40.679 320.431 40.7536 320.882 40.9027C321.336 41.0518 321.745 41.2706 322.11 41.5589C322.474 41.844 322.779 42.192 323.025 42.603C323.27 43.0107 323.439 43.4763 323.532 44ZM330.177 47.8778V43.3636H331.351V51H330.177V49.7074H330.098C329.919 50.0952 329.64 50.425 329.263 50.6967C328.885 50.9652 328.407 51.0994 327.831 51.0994C327.354 51.0994 326.929 50.995 326.558 50.7862C326.187 50.5741 325.895 50.2559 325.683 49.8317C325.471 49.4041 325.365 48.8655 325.365 48.2159V43.3636H326.538V48.1364C326.538 48.6932 326.694 49.1373 327.006 49.4688C327.32 49.8002 327.721 49.9659 328.209 49.9659C328.5 49.9659 328.797 49.8913 329.099 49.7422C329.403 49.593 329.659 49.3643 329.864 49.0561C330.073 48.7479 330.177 48.3551 330.177 47.8778ZM333.5 51V43.3636H334.633V44.517H334.713C334.852 44.1392 335.104 43.8326 335.468 43.5973C335.833 43.362 336.244 43.2443 336.701 43.2443C336.788 43.2443 336.895 43.246 337.025 43.2493C337.154 43.2526 337.252 43.2576 337.318 43.2642V44.4574C337.278 44.4474 337.187 44.4325 337.044 44.4126C336.905 44.3894 336.758 44.3778 336.602 44.3778C336.231 44.3778 335.899 44.4557 335.608 44.6115C335.319 44.764 335.091 44.9761 334.922 45.2479C334.756 45.5163 334.673 45.8229 334.673 46.1676V51H333.5ZM345.185 43.3636L342.362 51H341.168L338.344 43.3636H339.617L341.725 49.4489H341.805L343.913 43.3636H345.185ZM349.662 51.1591C348.926 51.1591 348.292 50.9967 347.758 50.6719C347.228 50.3438 346.819 49.8864 346.53 49.2997C346.245 48.7098 346.103 48.0237 346.103 47.2415C346.103 46.4593 346.245 45.7699 346.53 45.1733C346.819 44.5734 347.22 44.1061 347.733 43.7713C348.25 43.4332 348.854 43.2642 349.543 43.2642C349.941 43.2642 350.333 43.3305 350.721 43.4631C351.109 43.5956 351.462 43.8111 351.78 44.1094C352.098 44.4044 352.352 44.7955 352.541 45.2827C352.73 45.7699 352.824 46.3698 352.824 47.0824V47.5795H346.938V46.5653H351.631C351.631 46.1345 351.545 45.75 351.373 45.4119C351.203 45.0739 350.962 44.8071 350.647 44.6115C350.335 44.416 349.967 44.3182 349.543 44.3182C349.076 44.3182 348.671 44.4342 348.33 44.6662C347.992 44.8949 347.732 45.1932 347.549 45.5611C347.367 45.929 347.276 46.3234 347.276 46.7443V47.4205C347.276 47.9972 347.375 48.486 347.574 48.8871C347.776 49.2848 348.056 49.5881 348.414 49.7969C348.772 50.0024 349.188 50.1051 349.662 50.1051C349.971 50.1051 350.249 50.062 350.498 49.9759C350.749 49.8864 350.967 49.7538 351.149 49.5781C351.331 49.3991 351.472 49.1771 351.571 48.9119L352.705 49.2301C352.586 49.6146 352.385 49.9527 352.103 50.2443C351.822 50.5327 351.474 50.758 351.059 50.9205C350.645 51.0795 350.179 51.1591 349.662 51.1591Z" fill="black"/>
<path d="M96 306L326 258.5L395.5 106.5" stroke="black"/>
<rect x="97" y="259" width="398" height="49" fill="#FD0000" fill-opacity="0.43"/>
<path d="M97 93H495V259H97V93Z" fill="#0035F1" fill-opacity="0.43"/>
<path d="M107.906 271.364V272.358H103.79V271.364H107.906ZM105.023 279V270.31C105.023 269.872 105.125 269.508 105.331 269.216C105.536 268.924 105.803 268.705 106.131 268.56C106.459 268.414 106.806 268.341 107.17 268.341C107.459 268.341 107.694 268.364 107.876 268.411C108.059 268.457 108.194 268.5 108.284 268.54L107.946 269.554C107.886 269.534 107.803 269.509 107.697 269.479C107.595 269.45 107.459 269.435 107.29 269.435C106.902 269.435 106.622 269.532 106.449 269.728C106.28 269.924 106.196 270.21 106.196 270.588V279H105.023ZM109.55 279V271.364H110.684V272.517H110.763C110.903 272.139 111.155 271.833 111.519 271.597C111.884 271.362 112.295 271.244 112.752 271.244C112.838 271.244 112.946 271.246 113.075 271.249C113.205 271.253 113.302 271.258 113.369 271.264V272.457C113.329 272.447 113.238 272.433 113.095 272.413C112.956 272.389 112.808 272.378 112.653 272.378C112.281 272.378 111.95 272.456 111.658 272.612C111.37 272.764 111.141 272.976 110.972 273.248C110.807 273.516 110.724 273.823 110.724 274.168V279H109.55ZM114.919 279V268.818H121.063V269.912H116.151V273.352H120.745V274.446H116.151V277.906H121.143V279H114.919ZM122.729 269.912V268.818H130.365V269.912H127.164V279H125.931V269.912H122.729ZM132.268 279V268.818H133.501V273.352H138.93V268.818H140.163V279H138.93V274.446H133.501V279H132.268ZM146.569 279V268.818H150.009C150.808 268.818 151.461 268.962 151.968 269.251C152.478 269.536 152.856 269.922 153.102 270.409C153.347 270.896 153.469 271.44 153.469 272.04C153.469 272.64 153.347 273.185 153.102 273.675C152.86 274.166 152.485 274.557 151.978 274.849C151.471 275.137 150.821 275.281 150.029 275.281H147.563V274.188H149.989C150.536 274.188 150.975 274.093 151.307 273.904C151.638 273.715 151.879 273.46 152.028 273.138C152.18 272.814 152.256 272.447 152.256 272.04C152.256 271.632 152.18 271.268 152.028 270.946C151.879 270.625 151.637 270.373 151.302 270.19C150.967 270.005 150.523 269.912 149.969 269.912H147.802V279H146.569ZM158.416 279.159C157.68 279.159 157.046 278.997 156.512 278.672C155.982 278.344 155.572 277.886 155.284 277.3C154.999 276.71 154.857 276.024 154.857 275.241C154.857 274.459 154.999 273.77 155.284 273.173C155.572 272.573 155.973 272.106 156.487 271.771C157.004 271.433 157.607 271.264 158.297 271.264C158.695 271.264 159.087 271.33 159.475 271.463C159.863 271.596 160.216 271.811 160.534 272.109C160.852 272.404 161.106 272.795 161.295 273.283C161.484 273.77 161.578 274.37 161.578 275.082V275.58H155.692V274.565H160.385C160.385 274.134 160.299 273.75 160.126 273.412C159.957 273.074 159.715 272.807 159.401 272.612C159.089 272.416 158.721 272.318 158.297 272.318C157.83 272.318 157.425 272.434 157.084 272.666C156.746 272.895 156.486 273.193 156.303 273.561C156.121 273.929 156.03 274.323 156.03 274.744V275.42C156.03 275.997 156.129 276.486 156.328 276.887C156.53 277.285 156.81 277.588 157.168 277.797C157.526 278.002 157.942 278.105 158.416 278.105C158.724 278.105 159.003 278.062 159.251 277.976C159.503 277.886 159.72 277.754 159.903 277.578C160.085 277.399 160.226 277.177 160.325 276.912L161.459 277.23C161.339 277.615 161.139 277.953 160.857 278.244C160.576 278.533 160.228 278.758 159.813 278.92C159.399 279.08 158.933 279.159 158.416 279.159ZM164.536 274.406V279H163.363V271.364H164.496V272.557H164.596C164.775 272.169 165.047 271.857 165.411 271.622C165.776 271.384 166.246 271.264 166.823 271.264C167.34 271.264 167.793 271.37 168.18 271.582C168.568 271.791 168.87 272.109 169.085 272.537C169.301 272.961 169.408 273.498 169.408 274.148V279H168.235V274.227C168.235 273.627 168.079 273.16 167.768 272.825C167.456 272.487 167.029 272.318 166.485 272.318C166.111 272.318 165.776 272.399 165.481 272.562C165.189 272.724 164.959 272.961 164.79 273.273C164.621 273.584 164.536 273.962 164.536 274.406ZM173.8 279.179C173.316 279.179 172.876 279.088 172.482 278.906C172.088 278.72 171.774 278.453 171.542 278.105C171.31 277.754 171.194 277.33 171.194 276.832C171.194 276.395 171.281 276.04 171.453 275.768C171.625 275.493 171.856 275.278 172.144 275.122C172.432 274.966 172.751 274.85 173.099 274.774C173.45 274.695 173.803 274.632 174.157 274.585C174.622 274.526 174.998 274.481 175.286 274.451C175.578 274.418 175.79 274.363 175.922 274.287C176.058 274.211 176.126 274.078 176.126 273.889V273.849C176.126 273.359 175.992 272.978 175.724 272.706C175.458 272.434 175.056 272.298 174.515 272.298C173.955 272.298 173.516 272.421 173.198 272.666C172.88 272.911 172.656 273.173 172.527 273.452L171.413 273.054C171.612 272.59 171.877 272.229 172.209 271.97C172.543 271.708 172.908 271.526 173.302 271.423C173.7 271.317 174.091 271.264 174.476 271.264C174.721 271.264 175.003 271.294 175.321 271.354C175.642 271.41 175.952 271.528 176.251 271.707C176.552 271.886 176.802 272.156 177.001 272.517C177.2 272.878 177.3 273.362 177.3 273.969V279H176.126V277.966H176.067C175.987 278.132 175.854 278.309 175.669 278.498C175.483 278.687 175.236 278.848 174.928 278.98C174.62 279.113 174.244 279.179 173.8 279.179ZM173.979 278.125C174.443 278.125 174.834 278.034 175.152 277.852C175.473 277.669 175.715 277.434 175.878 277.146C176.043 276.857 176.126 276.554 176.126 276.236V275.162C176.077 275.222 175.967 275.276 175.798 275.326C175.632 275.372 175.44 275.414 175.221 275.45C175.006 275.483 174.796 275.513 174.59 275.54C174.388 275.563 174.224 275.583 174.098 275.599C173.793 275.639 173.508 275.704 173.243 275.793C172.981 275.879 172.769 276.01 172.606 276.186C172.447 276.358 172.368 276.594 172.368 276.892C172.368 277.3 172.519 277.608 172.82 277.817C173.125 278.022 173.511 278.125 173.979 278.125ZM180.614 268.818V279H179.441V268.818H180.614ZM186.084 271.364V272.358H182.127V271.364H186.084ZM183.28 269.534H184.454V276.812C184.454 277.144 184.502 277.393 184.598 277.558C184.697 277.721 184.823 277.83 184.976 277.886C185.131 277.939 185.296 277.966 185.468 277.966C185.597 277.966 185.703 277.959 185.786 277.946C185.869 277.929 185.935 277.916 185.985 277.906L186.224 278.96C186.144 278.99 186.033 279.02 185.89 279.05C185.748 279.083 185.567 279.099 185.349 279.099C185.017 279.099 184.692 279.028 184.374 278.886C184.059 278.743 183.797 278.526 183.589 278.234C183.383 277.943 183.28 277.575 183.28 277.131V269.534ZM188.605 281.864C188.406 281.864 188.229 281.847 188.073 281.814C187.917 281.784 187.809 281.754 187.75 281.724L188.048 280.69C188.333 280.763 188.585 280.79 188.804 280.77C189.023 280.75 189.216 280.652 189.385 280.477C189.558 280.304 189.715 280.024 189.858 279.636L190.077 279.04L187.253 271.364H188.525L190.633 277.449H190.713L192.821 271.364H194.094L190.852 280.114C190.706 280.508 190.526 280.835 190.31 281.093C190.095 281.355 189.845 281.549 189.559 281.675C189.278 281.801 188.96 281.864 188.605 281.864Z" fill="black"/>
<path d="M406.687 182.364V183.358H402.571V182.364H406.687ZM403.804 190V181.31C403.804 180.872 403.907 180.508 404.112 180.216C404.318 179.924 404.584 179.705 404.912 179.56C405.241 179.414 405.587 179.341 405.952 179.341C406.24 179.341 406.475 179.364 406.657 179.411C406.84 179.457 406.976 179.5 407.065 179.54L406.727 180.554C406.667 180.534 406.585 180.509 406.479 180.479C406.376 180.45 406.24 180.435 406.071 180.435C405.683 180.435 405.403 180.532 405.231 180.728C405.062 180.924 404.977 181.21 404.977 181.588V190H403.804ZM408.332 190V182.364H409.465V183.517H409.545C409.684 183.139 409.936 182.833 410.3 182.597C410.665 182.362 411.076 182.244 411.533 182.244C411.62 182.244 411.727 182.246 411.857 182.249C411.986 182.253 412.084 182.258 412.15 182.264V183.457C412.11 183.447 412.019 183.433 411.876 183.413C411.737 183.389 411.59 183.378 411.434 183.378C411.063 183.378 410.731 183.456 410.44 183.612C410.151 183.764 409.923 183.976 409.754 184.248C409.588 184.516 409.505 184.823 409.505 185.168V190H408.332ZM413.7 190V179.818H419.845V180.912H414.933V184.352H419.526V185.446H414.933V188.906H419.924V190H413.7ZM421.51 180.912V179.818H429.146V180.912H425.945V190H424.712V180.912H421.51ZM431.049 190V179.818H432.282V184.352H437.711V179.818H438.944V190H437.711V185.446H432.282V190H431.049ZM445.35 190V179.818H448.79C449.589 179.818 450.242 179.962 450.749 180.251C451.26 180.536 451.638 180.922 451.883 181.409C452.128 181.896 452.251 182.44 452.251 183.04C452.251 183.64 452.128 184.185 451.883 184.675C451.641 185.166 451.266 185.557 450.759 185.849C450.252 186.137 449.603 186.281 448.81 186.281H446.344V185.188H448.771C449.317 185.188 449.757 185.093 450.088 184.904C450.42 184.715 450.66 184.46 450.809 184.138C450.961 183.814 451.038 183.447 451.038 183.04C451.038 182.632 450.961 182.268 450.809 181.946C450.66 181.625 450.418 181.373 450.083 181.19C449.748 181.005 449.304 180.912 448.751 180.912H446.583V190H445.35ZM454.078 190V182.364H455.211V183.517H455.291C455.43 183.139 455.682 182.833 456.047 182.597C456.411 182.362 456.822 182.244 457.279 182.244C457.366 182.244 457.473 182.246 457.603 182.249C457.732 182.253 457.83 182.258 457.896 182.264V183.457C457.856 183.447 457.765 183.433 457.623 183.413C457.483 183.389 457.336 183.378 457.18 183.378C456.809 183.378 456.477 183.456 456.186 183.612C455.897 183.764 455.669 183.976 455.5 184.248C455.334 184.516 455.251 184.823 455.251 185.168V190H454.078ZM462.157 190.159C461.467 190.159 460.862 189.995 460.342 189.667C459.825 189.339 459.421 188.88 459.129 188.29C458.841 187.7 458.696 187.01 458.696 186.222C458.696 185.426 458.841 184.732 459.129 184.138C459.421 183.545 459.825 183.085 460.342 182.756C460.862 182.428 461.467 182.264 462.157 182.264C462.846 182.264 463.449 182.428 463.966 182.756C464.487 183.085 464.891 183.545 465.179 184.138C465.471 184.732 465.617 185.426 465.617 186.222C465.617 187.01 465.471 187.7 465.179 188.29C464.891 188.88 464.487 189.339 463.966 189.667C463.449 189.995 462.846 190.159 462.157 190.159ZM462.157 189.105C462.68 189.105 463.111 188.971 463.449 188.702C463.787 188.434 464.038 188.081 464.2 187.643C464.362 187.206 464.444 186.732 464.444 186.222C464.444 185.711 464.362 185.236 464.2 184.795C464.038 184.354 463.787 183.998 463.449 183.726C463.111 183.454 462.68 183.318 462.157 183.318C461.633 183.318 461.202 183.454 460.864 183.726C460.526 183.998 460.276 184.354 460.113 184.795C459.951 185.236 459.87 185.711 459.87 186.222C459.87 186.732 459.951 187.206 460.113 187.643C460.276 188.081 460.526 188.434 460.864 188.702C461.202 188.971 461.633 189.105 462.157 189.105ZM470.808 182.364V183.358H466.692V182.364H470.808ZM467.925 190V181.31C467.925 180.872 468.028 180.508 468.233 180.216C468.439 179.924 468.705 179.705 469.034 179.56C469.362 179.414 469.708 179.341 470.073 179.341C470.361 179.341 470.596 179.364 470.779 179.411C470.961 179.457 471.097 179.5 471.186 179.54L470.848 180.554C470.789 180.534 470.706 180.509 470.6 180.479C470.497 180.45 470.361 180.435 470.192 180.435C469.804 180.435 469.524 180.532 469.352 180.728C469.183 180.924 469.098 181.21 469.098 181.588V190H467.925ZM472.453 190V182.364H473.626V190H472.453ZM473.049 181.091C472.821 181.091 472.623 181.013 472.458 180.857C472.295 180.701 472.214 180.514 472.214 180.295C472.214 180.077 472.295 179.889 472.458 179.734C472.623 179.578 472.821 179.5 473.049 179.5C473.278 179.5 473.474 179.578 473.636 179.734C473.802 179.889 473.885 180.077 473.885 180.295C473.885 180.514 473.802 180.701 473.636 180.857C473.474 181.013 473.278 181.091 473.049 181.091ZM479.096 182.364V183.358H475.139V182.364H479.096ZM476.292 180.534H477.465V187.812C477.465 188.144 477.513 188.393 477.61 188.558C477.709 188.721 477.835 188.83 477.987 188.886C478.143 188.939 478.307 188.966 478.48 188.966C478.609 188.966 478.715 188.959 478.798 188.946C478.881 188.929 478.947 188.916 478.997 188.906L479.235 189.96C479.156 189.99 479.045 190.02 478.902 190.05C478.76 190.083 478.579 190.099 478.36 190.099C478.029 190.099 477.704 190.028 477.386 189.886C477.071 189.743 476.809 189.526 476.6 189.234C476.395 188.943 476.292 188.575 476.292 188.131V180.534Z" fill="black"/>
<ellipse cx="96.5" cy="306.5" rx="8.5" ry="7.5" fill="#FF0000"/>
<ellipse cx="325.5" cy="257.5" rx="8.5" ry="7.5" fill="black"/>
<ellipse cx="396.5" cy="100.5" rx="8.5" ry="7.5" fill="#0500FF"/>
<path d="M50.6676 307.362V308.456H46.2131V307.362H50.6676ZM52.2337 313V312.105L55.5945 308.426C55.9889 307.995 56.3137 307.621 56.5689 307.303C56.8241 306.981 57.013 306.679 57.1357 306.398C57.2616 306.113 57.3246 305.814 57.3246 305.503C57.3246 305.145 57.2384 304.835 57.0661 304.573C56.897 304.311 56.665 304.109 56.37 303.967C56.075 303.824 55.7436 303.753 55.3757 303.753C54.9846 303.753 54.6432 303.834 54.3516 303.996C54.0632 304.156 53.8395 304.379 53.6804 304.668C53.5246 304.956 53.4467 305.294 53.4467 305.682H52.2734C52.2734 305.085 52.411 304.562 52.6861 304.111C52.9612 303.66 53.3357 303.309 53.8097 303.057C54.2869 302.805 54.8222 302.679 55.4155 302.679C56.0121 302.679 56.5407 302.805 57.0014 303.057C57.4621 303.309 57.8234 303.648 58.0852 304.076C58.3471 304.504 58.478 304.979 58.478 305.503C58.478 305.877 58.41 306.244 58.2741 306.602C58.1416 306.956 57.9096 307.352 57.5781 307.79C57.25 308.224 56.7943 308.754 56.2109 309.381L53.924 311.827V311.906H58.657V313H52.2337ZM64.0312 313.139C63.2822 313.139 62.6442 312.935 62.1172 312.528C61.5902 312.117 61.1875 311.522 60.9091 310.743C60.6307 309.961 60.4915 309.016 60.4915 307.909C60.4915 306.809 60.6307 305.869 60.9091 305.09C61.1908 304.308 61.5952 303.711 62.1222 303.3C62.6525 302.886 63.2888 302.679 64.0312 302.679C64.7737 302.679 65.4084 302.886 65.9354 303.3C66.4657 303.711 66.87 304.308 67.1484 305.09C67.4302 305.869 67.571 306.809 67.571 307.909C67.571 309.016 67.4318 309.961 67.1534 310.743C66.875 311.522 66.4723 312.117 65.9453 312.528C65.4183 312.935 64.7803 313.139 64.0312 313.139ZM64.0312 312.045C64.7737 312.045 65.3504 311.687 65.7614 310.972C66.1723 310.256 66.3778 309.235 66.3778 307.909C66.3778 307.027 66.2834 306.277 66.0945 305.657C65.9089 305.037 65.6404 304.565 65.2891 304.24C64.9411 303.915 64.5218 303.753 64.0312 303.753C63.2955 303.753 62.7204 304.116 62.3061 304.842C61.8918 305.564 61.6847 306.587 61.6847 307.909C61.6847 308.791 61.7775 309.54 61.9631 310.156C62.1487 310.773 62.4155 311.242 62.7635 311.563C63.1148 311.885 63.5374 312.045 64.0312 312.045ZM74.6506 311.091V310.554C74.6506 310.183 74.7268 309.843 74.8793 309.535C75.035 309.223 75.2604 308.975 75.5554 308.789C75.8537 308.6 76.215 308.506 76.6392 308.506C77.0701 308.506 77.4313 308.6 77.723 308.789C78.0147 308.975 78.2351 309.223 78.3842 309.535C78.5334 309.843 78.608 310.183 78.608 310.554V311.091C78.608 311.462 78.5317 311.804 78.3793 312.115C78.2301 312.423 78.008 312.672 77.7131 312.861C77.4214 313.046 77.0634 313.139 76.6392 313.139C76.2083 313.139 75.8454 313.046 75.5504 312.861C75.2554 312.672 75.0317 312.423 74.8793 312.115C74.7268 311.804 74.6506 311.462 74.6506 311.091ZM75.6648 310.554V311.091C75.6648 311.399 75.7377 311.676 75.8835 311.921C76.0294 312.163 76.2813 312.284 76.6392 312.284C76.9872 312.284 77.2325 312.163 77.375 311.921C77.5208 311.676 77.5938 311.399 77.5938 311.091V310.554C77.5938 310.246 77.5241 309.971 77.3849 309.729C77.2457 309.483 76.9972 309.361 76.6392 309.361C76.2912 309.361 76.041 309.483 75.8885 309.729C75.7393 309.971 75.6648 310.246 75.6648 310.554ZM69.5795 305.264V304.727C69.5795 304.356 69.6558 304.016 69.8082 303.708C69.964 303.397 70.1894 303.148 70.4844 302.962C70.7827 302.773 71.1439 302.679 71.5682 302.679C71.9991 302.679 72.3603 302.773 72.652 302.962C72.9437 303.148 73.1641 303.397 73.3132 303.708C73.4624 304.016 73.5369 304.356 73.5369 304.727V305.264C73.5369 305.635 73.4607 305.977 73.3082 306.288C73.1591 306.597 72.937 306.845 72.642 307.034C72.3504 307.22 71.9924 307.312 71.5682 307.312C71.1373 307.312 70.7744 307.22 70.4794 307.034C70.1844 306.845 69.9607 306.597 69.8082 306.288C69.6558 305.977 69.5795 305.635 69.5795 305.264ZM70.5938 304.727V305.264C70.5938 305.572 70.6667 305.849 70.8125 306.094C70.9583 306.336 71.2102 306.457 71.5682 306.457C71.9162 306.457 72.1615 306.336 72.304 306.094C72.4498 305.849 72.5227 305.572 72.5227 305.264V304.727C72.5227 304.419 72.4531 304.144 72.3139 303.902C72.1747 303.657 71.9261 303.534 71.5682 303.534C71.2202 303.534 70.9699 303.657 70.8175 303.902C70.6683 304.144 70.5938 304.419 70.5938 304.727ZM69.9574 313L76.9574 302.818H78.0909L71.0909 313H69.9574Z" fill="black"/>
<path d="M47.2512 97.2102V90.6477H48.3648V97.2102H47.2512ZM44.5267 94.4858V93.3722H51.0892V94.4858H44.5267ZM57.0564 88.8182V99H55.8234V90.1108H55.7638L53.278 91.7614V90.5085L55.8234 88.8182H57.0564ZM63.3057 99.1392C62.5566 99.1392 61.9186 98.9354 61.3916 98.5277C60.8646 98.1167 60.4619 97.5218 60.1835 96.7429C59.9051 95.9607 59.7659 95.0161 59.7659 93.9091C59.7659 92.8087 59.9051 91.8691 60.1835 91.0902C60.4652 90.308 60.8696 89.7114 61.3966 89.3004C61.9269 88.8861 62.5632 88.679 63.3057 88.679C64.0481 88.679 64.6828 88.8861 65.2098 89.3004C65.7401 89.7114 66.1444 90.308 66.4229 91.0902C66.7046 91.8691 66.8454 92.8087 66.8454 93.9091C66.8454 95.0161 66.7062 95.9607 66.4278 96.7429C66.1494 97.5218 65.7467 98.1167 65.2197 98.5277C64.6927 98.9354 64.0547 99.1392 63.3057 99.1392ZM63.3057 98.0455C64.0481 98.0455 64.6248 97.6875 65.0358 96.9716C65.4468 96.2557 65.6523 95.2348 65.6523 93.9091C65.6523 93.0275 65.5578 92.2768 65.3689 91.657C65.1833 91.0372 64.9148 90.5649 64.5635 90.2401C64.2155 89.9152 63.7962 89.7528 63.3057 89.7528C62.5699 89.7528 61.9948 90.1158 61.5805 90.8416C61.1662 91.5642 60.9591 92.5866 60.9591 93.9091C60.9591 94.7907 61.0519 95.5398 61.2375 96.1562C61.4231 96.7727 61.6899 97.2417 62.0379 97.5632C62.3892 97.8847 62.8118 98.0455 63.3057 98.0455ZM72.0557 99.1392C71.3066 99.1392 70.6686 98.9354 70.1416 98.5277C69.6146 98.1167 69.2119 97.5218 68.9335 96.7429C68.6551 95.9607 68.5159 95.0161 68.5159 93.9091C68.5159 92.8087 68.6551 91.8691 68.9335 91.0902C69.2152 90.308 69.6196 89.7114 70.1466 89.3004C70.6769 88.8861 71.3132 88.679 72.0557 88.679C72.7981 88.679 73.4328 88.8861 73.9598 89.3004C74.4901 89.7114 74.8944 90.308 75.1729 91.0902C75.4546 91.8691 75.5954 92.8087 75.5954 93.9091C75.5954 95.0161 75.4562 95.9607 75.1778 96.7429C74.8994 97.5218 74.4967 98.1167 73.9697 98.5277C73.4427 98.9354 72.8047 99.1392 72.0557 99.1392ZM72.0557 98.0455C72.7981 98.0455 73.3748 97.6875 73.7858 96.9716C74.1968 96.2557 74.4023 95.2348 74.4023 93.9091C74.4023 93.0275 74.3078 92.2768 74.1189 91.657C73.9333 91.0372 73.6648 90.5649 73.3135 90.2401C72.9655 89.9152 72.5462 89.7528 72.0557 89.7528C71.3199 89.7528 70.7448 90.1158 70.3305 90.8416C69.9162 91.5642 69.7091 92.5866 69.7091 93.9091C69.7091 94.7907 69.8019 95.5398 69.9875 96.1562C70.1731 96.7727 70.4399 97.2417 70.7879 97.5632C71.1392 97.8847 71.5618 98.0455 72.0557 98.0455ZM82.675 97.0909V96.554C82.675 96.1828 82.7512 95.843 82.9037 95.5348C83.0595 95.2232 83.2848 94.9747 83.5798 94.7891C83.8781 94.6001 84.2394 94.5057 84.6636 94.5057C85.0945 94.5057 85.4558 94.6001 85.7474 94.7891C86.0391 94.9747 86.2595 95.2232 86.4086 95.5348C86.5578 95.843 86.6324 96.1828 86.6324 96.554V97.0909C86.6324 97.4621 86.5561 97.8035 86.4037 98.1151C86.2545 98.4233 86.0325 98.6719 85.7375 98.8608C85.4458 99.0464 85.0879 99.1392 84.6636 99.1392C84.2327 99.1392 83.8698 99.0464 83.5748 98.8608C83.2799 98.6719 83.0561 98.4233 82.9037 98.1151C82.7512 97.8035 82.675 97.4621 82.675 97.0909ZM83.6892 96.554V97.0909C83.6892 97.3991 83.7621 97.6759 83.9079 97.9212C84.0538 98.1631 84.3057 98.2841 84.6636 98.2841C85.0116 98.2841 85.2569 98.1631 85.3994 97.9212C85.5452 97.6759 85.6182 97.3991 85.6182 97.0909V96.554C85.6182 96.2457 85.5486 95.9706 85.4094 95.7287C85.2702 95.4834 85.0216 95.3608 84.6636 95.3608C84.3156 95.3608 84.0654 95.4834 83.9129 95.7287C83.7638 95.9706 83.6892 96.2457 83.6892 96.554ZM77.604 91.2642V90.7273C77.604 90.3561 77.6802 90.0163 77.8327 89.7081C77.9884 89.3965 78.2138 89.148 78.5088 88.9624C78.8071 88.7734 79.1684 88.679 79.5926 88.679C80.0235 88.679 80.3847 88.7734 80.6764 88.9624C80.9681 89.148 81.1885 89.3965 81.3376 89.7081C81.4868 90.0163 81.5613 90.3561 81.5613 90.7273V91.2642C81.5613 91.6354 81.4851 91.9768 81.3327 92.2884C81.1835 92.5966 80.9614 92.8452 80.6665 93.0341C80.3748 93.2197 80.0168 93.3125 79.5926 93.3125C79.1617 93.3125 78.7988 93.2197 78.5038 93.0341C78.2088 92.8452 77.9851 92.5966 77.8327 92.2884C77.6802 91.9768 77.604 91.6354 77.604 91.2642ZM78.6182 90.7273V91.2642C78.6182 91.5724 78.6911 91.8492 78.8369 92.0945C78.9827 92.3364 79.2346 92.4574 79.5926 92.4574C79.9406 92.4574 80.1859 92.3364 80.3284 92.0945C80.4742 91.8492 80.5471 91.5724 80.5471 91.2642V90.7273C80.5471 90.419 80.4775 90.1439 80.3383 89.902C80.1991 89.6567 79.9506 89.5341 79.5926 89.5341C79.2446 89.5341 78.9943 89.6567 78.8419 89.902C78.6927 90.1439 78.6182 90.419 78.6182 90.7273ZM77.9818 99L84.9818 88.8182H86.1153L79.1153 99H77.9818Z" fill="black"/>
<path d="M98.233 335V324.818H99.4659V333.906H104.199V335H98.233ZM109.051 335.159C108.362 335.159 107.757 334.995 107.237 334.667C106.719 334.339 106.315 333.88 106.023 333.29C105.735 332.7 105.591 332.01 105.591 331.222C105.591 330.426 105.735 329.732 106.023 329.138C106.315 328.545 106.719 328.085 107.237 327.756C107.757 327.428 108.362 327.264 109.051 327.264C109.741 327.264 110.344 327.428 110.861 327.756C111.381 328.085 111.786 328.545 112.074 329.138C112.366 329.732 112.511 330.426 112.511 331.222C112.511 332.01 112.366 332.7 112.074 333.29C111.786 333.88 111.381 334.339 110.861 334.667C110.344 334.995 109.741 335.159 109.051 335.159ZM109.051 334.105C109.575 334.105 110.006 333.971 110.344 333.702C110.682 333.434 110.932 333.081 111.094 332.643C111.257 332.206 111.338 331.732 111.338 331.222C111.338 330.711 111.257 330.236 111.094 329.795C110.932 329.354 110.682 328.998 110.344 328.726C110.006 328.454 109.575 328.318 109.051 328.318C108.527 328.318 108.097 328.454 107.759 328.726C107.42 328.998 107.17 329.354 107.008 329.795C106.845 330.236 106.764 330.711 106.764 331.222C106.764 331.732 106.845 332.206 107.008 332.643C107.17 333.081 107.42 333.434 107.759 333.702C108.097 333.971 108.527 334.105 109.051 334.105ZM117.405 335.159C116.689 335.159 116.072 334.99 115.555 334.652C115.038 334.314 114.64 333.848 114.362 333.255C114.084 332.662 113.944 331.984 113.944 331.222C113.944 330.446 114.087 329.762 114.372 329.168C114.66 328.572 115.061 328.106 115.575 327.771C116.092 327.433 116.695 327.264 117.385 327.264C117.922 327.264 118.406 327.364 118.836 327.562C119.267 327.761 119.62 328.04 119.895 328.398C120.171 328.756 120.341 329.173 120.407 329.651H119.234C119.145 329.303 118.946 328.994 118.638 328.726C118.333 328.454 117.922 328.318 117.405 328.318C116.947 328.318 116.546 328.437 116.202 328.676C115.86 328.911 115.593 329.245 115.401 329.675C115.212 330.103 115.118 330.605 115.118 331.182C115.118 331.772 115.211 332.286 115.396 332.723C115.585 333.161 115.85 333.5 116.192 333.742C116.536 333.984 116.941 334.105 117.405 334.105C117.71 334.105 117.986 334.052 118.235 333.946C118.483 333.84 118.694 333.688 118.866 333.489C119.039 333.29 119.161 333.051 119.234 332.773H120.407C120.341 333.223 120.177 333.629 119.915 333.991C119.657 334.349 119.314 334.634 118.886 334.846C118.462 335.055 117.968 335.159 117.405 335.159ZM123.216 332.216L123.197 330.764H123.435L126.776 327.364H128.228L124.668 330.963H124.569L123.216 332.216ZM122.123 335V324.818H123.296V335H122.123ZM126.975 335L123.992 331.222L124.827 330.406L128.466 335H126.975ZM101.375 352H98.233V341.818H101.514C102.502 341.818 103.347 342.022 104.05 342.43C104.752 342.834 105.291 343.416 105.665 344.175C106.04 344.93 106.227 345.835 106.227 346.889C106.227 347.95 106.038 348.863 105.661 349.629C105.283 350.391 104.732 350.978 104.01 351.388C103.287 351.796 102.409 352 101.375 352ZM99.4659 350.906H101.295C102.137 350.906 102.835 350.744 103.388 350.419C103.942 350.094 104.355 349.632 104.626 349.032C104.898 348.432 105.034 347.718 105.034 346.889C105.034 346.067 104.9 345.36 104.631 344.766C104.363 344.17 103.962 343.712 103.428 343.394C102.895 343.073 102.23 342.912 101.435 342.912H99.4659V350.906ZM110.384 352.179C109.9 352.179 109.46 352.088 109.066 351.906C108.672 351.72 108.358 351.453 108.126 351.105C107.894 350.754 107.778 350.33 107.778 349.832C107.778 349.395 107.865 349.04 108.037 348.768C108.209 348.493 108.44 348.278 108.728 348.122C109.016 347.966 109.335 347.85 109.683 347.774C110.034 347.695 110.387 347.632 110.741 347.585C111.205 347.526 111.582 347.481 111.87 347.451C112.162 347.418 112.374 347.363 112.506 347.287C112.642 347.211 112.71 347.078 112.71 346.889V346.849C112.71 346.359 112.576 345.978 112.308 345.706C112.042 345.434 111.64 345.298 111.099 345.298C110.539 345.298 110.1 345.421 109.782 345.666C109.464 345.911 109.24 346.173 109.111 346.452L107.997 346.054C108.196 345.59 108.461 345.229 108.793 344.97C109.127 344.708 109.492 344.526 109.886 344.423C110.284 344.317 110.675 344.264 111.06 344.264C111.305 344.264 111.587 344.294 111.905 344.354C112.226 344.41 112.536 344.528 112.835 344.707C113.136 344.886 113.386 345.156 113.585 345.517C113.784 345.878 113.884 346.362 113.884 346.969V352H112.71V350.966H112.651C112.571 351.132 112.438 351.309 112.253 351.498C112.067 351.687 111.82 351.848 111.512 351.98C111.204 352.113 110.828 352.179 110.384 352.179ZM110.562 351.125C111.027 351.125 111.418 351.034 111.736 350.852C112.057 350.669 112.299 350.434 112.462 350.146C112.627 349.857 112.71 349.554 112.71 349.236V348.162C112.661 348.222 112.551 348.276 112.382 348.326C112.216 348.372 112.024 348.414 111.805 348.45C111.59 348.483 111.379 348.513 111.174 348.54C110.972 348.563 110.808 348.583 110.682 348.599C110.377 348.639 110.092 348.704 109.827 348.793C109.565 348.879 109.353 349.01 109.19 349.186C109.031 349.358 108.952 349.594 108.952 349.892C108.952 350.3 109.103 350.608 109.404 350.817C109.709 351.022 110.095 351.125 110.562 351.125ZM119.346 344.364V345.358H115.389V344.364H119.346ZM116.542 342.534H117.715V349.812C117.715 350.144 117.763 350.393 117.86 350.558C117.959 350.721 118.085 350.83 118.237 350.886C118.393 350.939 118.557 350.966 118.73 350.966C118.859 350.966 118.965 350.959 119.048 350.946C119.131 350.929 119.197 350.916 119.247 350.906L119.485 351.96C119.406 351.99 119.295 352.02 119.152 352.05C119.01 352.083 118.829 352.099 118.61 352.099C118.279 352.099 117.954 352.028 117.636 351.886C117.321 351.743 117.059 351.526 116.85 351.234C116.645 350.943 116.542 350.575 116.542 350.131V342.534ZM124.231 352.159C123.495 352.159 122.86 351.997 122.327 351.672C121.796 351.344 121.387 350.886 121.099 350.3C120.814 349.71 120.671 349.024 120.671 348.241C120.671 347.459 120.814 346.77 121.099 346.173C121.387 345.573 121.788 345.106 122.302 344.771C122.819 344.433 123.422 344.264 124.111 344.264C124.509 344.264 124.902 344.33 125.29 344.463C125.677 344.596 126.03 344.811 126.349 345.109C126.667 345.404 126.92 345.795 127.109 346.283C127.298 346.77 127.393 347.37 127.393 348.082V348.58H121.506V347.565H126.199C126.199 347.134 126.113 346.75 125.941 346.412C125.772 346.074 125.53 345.807 125.215 345.612C124.903 345.416 124.536 345.318 124.111 345.318C123.644 345.318 123.24 345.434 122.898 345.666C122.56 345.895 122.3 346.193 122.118 346.561C121.935 346.929 121.844 347.323 121.844 347.744V348.42C121.844 348.997 121.944 349.486 122.143 349.887C122.345 350.285 122.625 350.588 122.983 350.797C123.341 351.002 123.757 351.105 124.231 351.105C124.539 351.105 124.817 351.062 125.066 350.976C125.318 350.886 125.535 350.754 125.717 350.578C125.899 350.399 126.04 350.177 126.14 349.912L127.273 350.23C127.154 350.615 126.953 350.953 126.672 351.244C126.39 351.533 126.042 351.758 125.628 351.92C125.213 352.08 124.748 352.159 124.231 352.159Z" fill="black"/>
<path d="M388.233 324.818H389.705L393.165 333.27H393.284L396.744 324.818H398.216V335H397.062V327.264H396.963L393.781 335H392.668L389.486 327.264H389.386V335H388.233V324.818ZM402.776 335.179C402.292 335.179 401.853 335.088 401.459 334.906C401.064 334.72 400.751 334.453 400.519 334.105C400.287 333.754 400.171 333.33 400.171 332.832C400.171 332.395 400.257 332.04 400.43 331.768C400.602 331.493 400.832 331.278 401.121 331.122C401.409 330.966 401.727 330.85 402.075 330.774C402.426 330.695 402.779 330.632 403.134 330.585C403.598 330.526 403.974 330.481 404.263 330.451C404.554 330.418 404.766 330.363 404.899 330.287C405.035 330.211 405.103 330.078 405.103 329.889V329.849C405.103 329.359 404.969 328.978 404.7 328.706C404.435 328.434 404.032 328.298 403.492 328.298C402.932 328.298 402.493 328.421 402.175 328.666C401.856 328.911 401.633 329.173 401.503 329.452L400.39 329.054C400.589 328.59 400.854 328.229 401.185 327.97C401.52 327.708 401.885 327.526 402.279 327.423C402.677 327.317 403.068 327.264 403.452 327.264C403.698 327.264 403.979 327.294 404.297 327.354C404.619 327.41 404.929 327.528 405.227 327.707C405.529 327.886 405.779 328.156 405.978 328.517C406.177 328.878 406.276 329.362 406.276 329.969V335H405.103V333.966H405.043C404.964 334.132 404.831 334.309 404.645 334.498C404.46 334.687 404.213 334.848 403.905 334.98C403.596 335.113 403.22 335.179 402.776 335.179ZM402.955 334.125C403.419 334.125 403.81 334.034 404.128 333.852C404.45 333.669 404.692 333.434 404.854 333.146C405.02 332.857 405.103 332.554 405.103 332.236V331.162C405.053 331.222 404.944 331.276 404.775 331.326C404.609 331.372 404.417 331.414 404.198 331.45C403.983 331.483 403.772 331.513 403.567 331.54C403.364 331.563 403.2 331.583 403.074 331.599C402.769 331.639 402.484 331.704 402.219 331.793C401.957 331.879 401.745 332.01 401.583 332.186C401.424 332.358 401.344 332.594 401.344 332.892C401.344 333.3 401.495 333.608 401.797 333.817C402.102 334.022 402.488 334.125 402.955 334.125ZM411.739 327.364V328.358H407.781V327.364H411.739ZM408.935 325.534H410.108V332.812C410.108 333.144 410.156 333.393 410.252 333.558C410.352 333.721 410.478 333.83 410.63 333.886C410.786 333.939 410.95 333.966 411.122 333.966C411.251 333.966 411.357 333.959 411.44 333.946C411.523 333.929 411.589 333.916 411.639 333.906L411.878 334.96C411.798 334.99 411.687 335.02 411.545 335.05C411.402 335.083 411.222 335.099 411.003 335.099C410.671 335.099 410.347 335.028 410.028 334.886C409.714 334.743 409.452 334.526 409.243 334.234C409.037 333.943 408.935 333.575 408.935 333.131V325.534ZM418.316 331.878V327.364H419.489V335H418.316V333.707H418.237C418.058 334.095 417.779 334.425 417.401 334.697C417.023 334.965 416.546 335.099 415.969 335.099C415.492 335.099 415.068 334.995 414.697 334.786C414.326 334.574 414.034 334.256 413.822 333.832C413.61 333.404 413.504 332.866 413.504 332.216V327.364H414.677V332.136C414.677 332.693 414.833 333.137 415.144 333.469C415.459 333.8 415.86 333.966 416.347 333.966C416.639 333.966 416.936 333.891 417.237 333.742C417.542 333.593 417.797 333.364 418.003 333.056C418.212 332.748 418.316 332.355 418.316 331.878ZM421.638 335V327.364H422.772V328.517H422.851C422.991 328.139 423.242 327.833 423.607 327.597C423.972 327.362 424.383 327.244 424.84 327.244C424.926 327.244 425.034 327.246 425.163 327.249C425.292 327.253 425.39 327.258 425.456 327.264V328.457C425.417 328.447 425.326 328.433 425.183 328.413C425.044 328.389 424.896 328.378 424.741 328.378C424.369 328.378 424.038 328.456 423.746 328.612C423.458 328.764 423.229 328.976 423.06 329.248C422.894 329.516 422.812 329.823 422.812 330.168V335H421.638ZM426.847 335V327.364H428.021V335H426.847ZM427.444 326.091C427.215 326.091 427.018 326.013 426.852 325.857C426.69 325.701 426.609 325.514 426.609 325.295C426.609 325.077 426.69 324.889 426.852 324.734C427.018 324.578 427.215 324.5 427.444 324.5C427.673 324.5 427.868 324.578 428.031 324.734C428.196 324.889 428.279 325.077 428.279 325.295C428.279 325.514 428.196 325.701 428.031 325.857C427.868 326.013 427.673 326.091 427.444 326.091ZM433.491 327.364V328.358H429.533V327.364H433.491ZM430.687 325.534H431.86V332.812C431.86 333.144 431.908 333.393 432.004 333.558C432.104 333.721 432.229 333.83 432.382 333.886C432.538 333.939 432.702 333.966 432.874 333.966C433.003 333.966 433.109 333.959 433.192 333.946C433.275 333.929 433.341 333.916 433.391 333.906L433.63 334.96C433.55 334.99 433.439 335.02 433.297 335.05C433.154 335.083 432.974 335.099 432.755 335.099C432.423 335.099 432.099 335.028 431.78 334.886C431.465 334.743 431.204 334.526 430.995 334.234C430.789 333.943 430.687 333.575 430.687 333.131V325.534ZM436.011 337.864C435.812 337.864 435.635 337.847 435.479 337.814C435.323 337.784 435.216 337.754 435.156 337.724L435.454 336.69C435.739 336.763 435.991 336.79 436.21 336.77C436.429 336.75 436.623 336.652 436.792 336.477C436.964 336.304 437.122 336.024 437.264 335.636L437.483 335.04L434.659 327.364H435.932L438.04 333.449H438.119L440.227 327.364H441.5L438.258 336.114C438.113 336.508 437.932 336.835 437.716 337.093C437.501 337.355 437.251 337.549 436.966 337.675C436.684 337.801 436.366 337.864 436.011 337.864ZM391.375 352H388.233V341.818H391.514C392.502 341.818 393.347 342.022 394.05 342.43C394.752 342.834 395.291 343.416 395.665 344.175C396.04 344.93 396.227 345.835 396.227 346.889C396.227 347.95 396.038 348.863 395.661 349.629C395.283 350.391 394.732 350.978 394.01 351.388C393.287 351.796 392.409 352 391.375 352ZM389.466 350.906H391.295C392.137 350.906 392.835 350.744 393.388 350.419C393.942 350.094 394.355 349.632 394.626 349.032C394.898 348.432 395.034 347.718 395.034 346.889C395.034 346.067 394.9 345.36 394.631 344.766C394.363 344.17 393.962 343.712 393.428 343.394C392.895 343.073 392.23 342.912 391.435 342.912H389.466V350.906ZM400.384 352.179C399.9 352.179 399.46 352.088 399.066 351.906C398.672 351.72 398.358 351.453 398.126 351.105C397.894 350.754 397.778 350.33 397.778 349.832C397.778 349.395 397.865 349.04 398.037 348.768C398.209 348.493 398.44 348.278 398.728 348.122C399.016 347.966 399.335 347.85 399.683 347.774C400.034 347.695 400.387 347.632 400.741 347.585C401.205 347.526 401.582 347.481 401.87 347.451C402.162 347.418 402.374 347.363 402.506 347.287C402.642 347.211 402.71 347.078 402.71 346.889V346.849C402.71 346.359 402.576 345.978 402.308 345.706C402.042 345.434 401.64 345.298 401.099 345.298C400.539 345.298 400.1 345.421 399.782 345.666C399.464 345.911 399.24 346.173 399.111 346.452L397.997 346.054C398.196 345.59 398.461 345.229 398.793 344.97C399.127 344.708 399.492 344.526 399.886 344.423C400.284 344.317 400.675 344.264 401.06 344.264C401.305 344.264 401.587 344.294 401.905 344.354C402.226 344.41 402.536 344.528 402.835 344.707C403.136 344.886 403.386 345.156 403.585 345.517C403.784 345.878 403.884 346.362 403.884 346.969V352H402.71V350.966H402.651C402.571 351.132 402.438 351.309 402.253 351.498C402.067 351.687 401.82 351.848 401.512 351.98C401.204 352.113 400.828 352.179 400.384 352.179ZM400.562 351.125C401.027 351.125 401.418 351.034 401.736 350.852C402.057 350.669 402.299 350.434 402.462 350.146C402.627 349.857 402.71 349.554 402.71 349.236V348.162C402.661 348.222 402.551 348.276 402.382 348.326C402.216 348.372 402.024 348.414 401.805 348.45C401.59 348.483 401.379 348.513 401.174 348.54C400.972 348.563 400.808 348.583 400.682 348.599C400.377 348.639 400.092 348.704 399.827 348.793C399.565 348.879 399.353 349.01 399.19 349.186C399.031 349.358 398.952 349.594 398.952 349.892C398.952 350.3 399.103 350.608 399.404 350.817C399.709 351.022 400.095 351.125 400.562 351.125ZM409.346 344.364V345.358H405.389V344.364H409.346ZM406.542 342.534H407.715V349.812C407.715 350.144 407.763 350.393 407.86 350.558C407.959 350.721 408.085 350.83 408.237 350.886C408.393 350.939 408.557 350.966 408.73 350.966C408.859 350.966 408.965 350.959 409.048 350.946C409.131 350.929 409.197 350.916 409.247 350.906L409.485 351.96C409.406 351.99 409.295 352.02 409.152 352.05C409.01 352.083 408.829 352.099 408.61 352.099C408.279 352.099 407.954 352.028 407.636 351.886C407.321 351.743 407.059 351.526 406.85 351.234C406.645 350.943 406.542 350.575 406.542 350.131V342.534ZM414.231 352.159C413.495 352.159 412.86 351.997 412.327 351.672C411.796 351.344 411.387 350.886 411.099 350.3C410.814 349.71 410.671 349.024 410.671 348.241C410.671 347.459 410.814 346.77 411.099 346.173C411.387 345.573 411.788 345.106 412.302 344.771C412.819 344.433 413.422 344.264 414.111 344.264C414.509 344.264 414.902 344.33 415.29 344.463C415.677 344.596 416.03 344.811 416.349 345.109C416.667 345.404 416.92 345.795 417.109 346.283C417.298 346.77 417.393 347.37 417.393 348.082V348.58H411.506V347.565H416.199C416.199 347.134 416.113 346.75 415.941 346.412C415.772 346.074 415.53 345.807 415.215 345.612C414.903 345.416 414.536 345.318 414.111 345.318C413.644 345.318 413.24 345.434 412.898 345.666C412.56 345.895 412.3 346.193 412.118 346.561C411.935 346.929 411.844 347.323 411.844 347.744V348.42C411.844 348.997 411.944 349.486 412.143 349.887C412.345 350.285 412.625 350.588 412.983 350.797C413.341 351.002 413.757 351.105 414.231 351.105C414.539 351.105 414.817 351.062 415.066 350.976C415.318 350.886 415.535 350.754 415.717 350.578C415.899 350.399 416.04 350.177 416.14 349.912L417.273 350.23C417.154 350.615 416.953 350.953 416.672 351.244C416.39 351.533 416.042 351.758 415.628 351.92C415.213 352.08 414.748 352.159 414.231 352.159Z" fill="black"/>
<rect x="-0.5" y="0.5" width="565" height="377" transform="matrix(1 0 0 -1 1 378)" stroke="black"/>
</svg>
