<svg width="452" height="378" viewBox="0 0 452 378" fill="none" xmlns="http://www.w3.org/2000/svg">
<rect x="-0.5" y="0.5" width="451" height="377" transform="matrix(1 0 0 -1 1 378)" fill="white"/>
<path d="M166.286 51V40.8182H172.391V41.9119H167.519V45.3523H171.933V46.446H167.519V51H166.286ZM174.502 51V40.8182H177.943C178.738 40.8182 179.391 40.9541 179.902 41.2259C180.412 41.4943 180.79 41.8639 181.035 42.3345C181.28 42.8052 181.403 43.3404 181.403 43.9403C181.403 44.5402 181.28 45.0722 181.035 45.5362C180.79 46.0002 180.414 46.3648 179.907 46.63C179.4 46.8918 178.752 47.0227 177.963 47.0227H175.179V45.9091H177.923C178.467 45.9091 178.904 45.8295 179.235 45.6705C179.57 45.5114 179.812 45.286 179.961 44.9943C180.114 44.6993 180.19 44.348 180.19 43.9403C180.19 43.5327 180.114 43.1764 179.961 42.8714C179.809 42.5665 179.565 42.3312 179.23 42.1655C178.896 41.9964 178.453 41.9119 177.903 41.9119H175.735V51H174.502ZM179.295 46.4261L181.801 51H180.369L177.903 46.4261H179.295ZM183.119 51V50.1051L188.608 41.9119H183.06V40.8182H190.08V41.7131L184.591 49.9062H190.139V51H183.119ZM197.378 40.8182V51H196.145V40.8182H197.378ZM200.864 46.4062V51H199.691V43.3636H200.825V44.5568H200.924C201.103 44.169 201.375 43.8575 201.739 43.6222C202.104 43.3835 202.575 43.2642 203.151 43.2642C203.668 43.2642 204.121 43.3703 204.509 43.5824C204.896 43.7912 205.198 44.1094 205.413 44.5369C205.629 44.9612 205.737 45.4981 205.737 46.1477V51H204.563V46.2273C204.563 45.6274 204.407 45.16 204.096 44.8253C203.784 44.4872 203.357 44.3182 202.813 44.3182C202.439 44.3182 202.104 44.3994 201.809 44.5618C201.517 44.7242 201.287 44.9612 201.118 45.2727C200.949 45.5843 200.864 45.9621 200.864 46.4062ZM211.281 43.3636V44.358H207.165V43.3636H211.281ZM208.398 51V42.3097C208.398 41.8722 208.5 41.5076 208.706 41.2159C208.911 40.9242 209.178 40.7055 209.506 40.5597C209.834 40.4138 210.181 40.3409 210.545 40.3409C210.834 40.3409 211.069 40.3641 211.251 40.4105C211.434 40.4569 211.569 40.5 211.659 40.5398L211.321 41.554C211.261 41.5341 211.178 41.5092 211.072 41.4794C210.97 41.4496 210.834 41.4347 210.665 41.4347C210.277 41.4347 209.997 41.5324 209.824 41.728C209.655 41.9235 209.571 42.2102 209.571 42.5881V51H208.398ZM214.099 40.8182V51H212.925V40.8182H214.099ZM218.495 51.179C218.011 51.179 217.572 51.0878 217.177 50.9055C216.783 50.7199 216.47 50.4531 216.238 50.1051C216.006 49.7538 215.89 49.3295 215.89 48.8324C215.89 48.3949 215.976 48.0402 216.148 47.7685C216.321 47.4934 216.551 47.2779 216.839 47.1222C217.128 46.9664 217.446 46.8504 217.794 46.7741C218.145 46.6946 218.498 46.6316 218.853 46.5852C219.317 46.5256 219.693 46.4808 219.981 46.451C220.273 46.4179 220.485 46.3632 220.618 46.2869C220.754 46.2107 220.822 46.0781 220.822 45.8892V45.8494C220.822 45.3589 220.687 44.9777 220.419 44.706C220.154 44.4342 219.751 44.2983 219.211 44.2983C218.651 44.2983 218.211 44.4209 217.893 44.6662C217.575 44.9115 217.351 45.1733 217.222 45.4517L216.108 45.054C216.307 44.59 216.573 44.2287 216.904 43.9702C217.239 43.7083 217.603 43.526 217.998 43.4233C218.395 43.3172 218.787 43.2642 219.171 43.2642C219.416 43.2642 219.698 43.294 220.016 43.3537C220.338 43.41 220.648 43.5277 220.946 43.7067C221.247 43.8857 221.498 44.1558 221.697 44.517C221.895 44.8783 221.995 45.3622 221.995 45.9688V51H220.822V49.9659H220.762C220.682 50.1316 220.55 50.3089 220.364 50.4979C220.179 50.6868 219.932 50.8475 219.623 50.9801C219.315 51.1127 218.939 51.179 218.495 51.179ZM218.674 50.125C219.138 50.125 219.529 50.0339 219.847 49.8516C220.169 49.6693 220.411 49.4339 220.573 49.1456C220.739 48.8572 220.822 48.554 220.822 48.2358V47.1619C220.772 47.2216 220.662 47.2763 220.493 47.326C220.328 47.3724 220.135 47.4138 219.917 47.4503C219.701 47.4834 219.491 47.5133 219.285 47.5398C219.083 47.563 218.919 47.5829 218.793 47.5994C218.488 47.6392 218.203 47.7038 217.938 47.7933C217.676 47.8795 217.464 48.0104 217.302 48.1861C217.143 48.3584 217.063 48.5937 217.063 48.892C217.063 49.2997 217.214 49.608 217.515 49.8168C217.82 50.0223 218.206 50.125 218.674 50.125ZM227.457 43.3636V44.358H223.5V43.3636H227.457ZM224.653 41.5341H225.827V48.8125C225.827 49.1439 225.875 49.3925 225.971 49.5582C226.07 49.7206 226.196 49.83 226.349 49.8864C226.504 49.9394 226.669 49.9659 226.841 49.9659C226.97 49.9659 227.076 49.9593 227.159 49.946C227.242 49.9295 227.308 49.9162 227.358 49.9062L227.597 50.9602C227.517 50.9901 227.406 51.0199 227.263 51.0497C227.121 51.0829 226.94 51.0994 226.722 51.0994C226.39 51.0994 226.065 51.0282 225.747 50.8857C225.432 50.7431 225.17 50.526 224.962 50.2344C224.756 49.9427 224.653 49.5748 224.653 49.1307V41.5341ZM229.222 51V43.3636H230.396V51H229.222ZM229.819 42.0909C229.59 42.0909 229.393 42.013 229.227 41.8572C229.065 41.7015 228.984 41.5142 228.984 41.2955C228.984 41.0767 229.065 40.8894 229.227 40.7337C229.393 40.5779 229.59 40.5 229.819 40.5C230.048 40.5 230.243 40.5779 230.406 40.7337C230.571 40.8894 230.654 41.0767 230.654 41.2955C230.654 41.5142 230.571 41.7015 230.406 41.8572C230.243 42.013 230.048 42.0909 229.819 42.0909ZM235.647 51.1591C234.957 51.1591 234.353 50.995 233.832 50.6669C233.315 50.3388 232.911 49.8797 232.619 49.2898C232.331 48.6998 232.187 48.0104 232.187 47.2216C232.187 46.4261 232.331 45.7318 232.619 45.1385C232.911 44.5452 233.315 44.0845 233.832 43.7564C234.353 43.4283 234.957 43.2642 235.647 43.2642C236.336 43.2642 236.939 43.4283 237.456 43.7564C237.977 44.0845 238.381 44.5452 238.67 45.1385C238.961 45.7318 239.107 46.4261 239.107 47.2216C239.107 48.0104 238.961 48.6998 238.67 49.2898C238.381 49.8797 237.977 50.3388 237.456 50.6669C236.939 50.995 236.336 51.1591 235.647 51.1591ZM235.647 50.1051C236.171 50.1051 236.601 49.9709 236.939 49.7024C237.278 49.4339 237.528 49.081 237.69 48.6435C237.853 48.206 237.934 47.732 237.934 47.2216C237.934 46.7112 237.853 46.2356 237.69 45.7947C237.528 45.3539 237.278 44.9976 236.939 44.7259C236.601 44.4541 236.171 44.3182 235.647 44.3182C235.123 44.3182 234.692 44.4541 234.354 44.7259C234.016 44.9976 233.766 45.3539 233.604 45.7947C233.441 46.2356 233.36 46.7112 233.36 47.2216C233.36 47.732 233.441 48.206 233.604 48.6435C233.766 49.081 234.016 49.4339 234.354 49.7024C234.692 49.9709 235.123 50.1051 235.647 50.1051ZM242.071 46.4062V51H240.898V43.3636H242.032V44.5568H242.131C242.31 44.169 242.582 43.8575 242.946 43.6222C243.311 43.3835 243.782 43.2642 244.358 43.2642C244.875 43.2642 245.328 43.3703 245.716 43.5824C246.103 43.7912 246.405 44.1094 246.62 44.5369C246.836 44.9612 246.944 45.4981 246.944 46.1477V51H245.77V46.2273C245.77 45.6274 245.614 45.16 245.303 44.8253C244.991 44.4872 244.564 44.3182 244.02 44.3182C243.646 44.3182 243.311 44.3994 243.016 44.5618C242.724 44.7242 242.494 44.9612 242.325 45.2727C242.156 45.5843 242.071 45.9621 242.071 46.4062ZM253.184 51V40.8182H256.624C257.42 40.8182 258.073 40.9541 258.583 41.2259C259.094 41.4943 259.472 41.8639 259.717 42.3345C259.962 42.8052 260.085 43.3404 260.085 43.9403C260.085 44.5402 259.962 45.0722 259.717 45.5362C259.472 46.0002 259.095 46.3648 258.588 46.63C258.081 46.8918 257.433 47.0227 256.644 47.0227H253.86V45.9091H256.605C257.148 45.9091 257.586 45.8295 257.917 45.6705C258.252 45.5114 258.494 45.286 258.643 44.9943C258.795 44.6993 258.872 44.348 258.872 43.9403C258.872 43.5327 258.795 43.1764 258.643 42.8714C258.49 42.5665 258.247 42.3312 257.912 42.1655C257.577 41.9964 257.135 41.9119 256.585 41.9119H254.417V51H253.184ZM257.977 46.4261L260.482 51H259.051L256.585 46.4261H257.977ZM264.227 51.179C263.743 51.179 263.304 51.0878 262.91 50.9055C262.515 50.7199 262.202 50.4531 261.97 50.1051C261.738 49.7538 261.622 49.3295 261.622 48.8324C261.622 48.3949 261.708 48.0402 261.881 47.7685C262.053 47.4934 262.283 47.2779 262.572 47.1222C262.86 46.9664 263.178 46.8504 263.526 46.7741C263.878 46.6946 264.231 46.6316 264.585 46.5852C265.049 46.5256 265.425 46.4808 265.714 46.451C266.005 46.4179 266.218 46.3632 266.35 46.2869C266.486 46.2107 266.554 46.0781 266.554 45.8892V45.8494C266.554 45.3589 266.42 44.9777 266.151 44.706C265.886 44.4342 265.483 44.2983 264.943 44.2983C264.383 44.2983 263.944 44.4209 263.626 44.6662C263.308 44.9115 263.084 45.1733 262.955 45.4517L261.841 45.054C262.04 44.59 262.305 44.2287 262.636 43.9702C262.971 43.7083 263.336 43.526 263.73 43.4233C264.128 43.3172 264.519 43.2642 264.903 43.2642C265.149 43.2642 265.43 43.294 265.749 43.3537C266.07 43.41 266.38 43.5277 266.678 43.7067C266.98 43.8857 267.23 44.1558 267.429 44.517C267.628 44.8783 267.727 45.3622 267.727 45.9688V51H266.554V49.9659H266.494C266.415 50.1316 266.282 50.3089 266.097 50.4979C265.911 50.6868 265.664 50.8475 265.356 50.9801C265.048 51.1127 264.671 51.179 264.227 51.179ZM264.406 50.125C264.87 50.125 265.261 50.0339 265.58 49.8516C265.901 49.6693 266.143 49.4339 266.305 49.1456C266.471 48.8572 266.554 48.554 266.554 48.2358V47.1619C266.504 47.2216 266.395 47.2763 266.226 47.326C266.06 47.3724 265.868 47.4138 265.649 47.4503C265.434 47.4834 265.223 47.5133 265.018 47.5398C264.816 47.563 264.652 47.5829 264.526 47.5994C264.221 47.6392 263.936 47.7038 263.67 47.7933C263.409 47.8795 263.196 48.0104 263.034 48.1861C262.875 48.3584 262.795 48.5937 262.795 48.892C262.795 49.2997 262.946 49.608 263.248 49.8168C263.553 50.0223 263.939 50.125 264.406 50.125ZM273.19 43.3636V44.358H269.232V43.3636H273.19ZM270.386 41.5341H271.559V48.8125C271.559 49.1439 271.607 49.3925 271.703 49.5582C271.803 49.7206 271.929 49.83 272.081 49.8864C272.237 49.9394 272.401 49.9659 272.573 49.9659C272.703 49.9659 272.809 49.9593 272.892 49.946C272.974 49.9295 273.041 49.9162 273.09 49.9062L273.329 50.9602C273.249 50.9901 273.138 51.0199 272.996 51.0497C272.853 51.0829 272.673 51.0994 272.454 51.0994C272.123 51.0994 271.798 51.0282 271.48 50.8857C271.165 50.7431 270.903 50.526 270.694 50.2344C270.489 49.9427 270.386 49.5748 270.386 49.1307V41.5341ZM278.074 51.1591C277.339 51.1591 276.704 50.9967 276.17 50.6719C275.64 50.3438 275.231 49.8864 274.942 49.2997C274.657 48.7098 274.515 48.0237 274.515 47.2415C274.515 46.4593 274.657 45.7699 274.942 45.1733C275.231 44.5734 275.632 44.1061 276.145 43.7713C276.662 43.4332 277.266 43.2642 277.955 43.2642C278.353 43.2642 278.746 43.3305 279.133 43.4631C279.521 43.5956 279.874 43.8111 280.192 44.1094C280.51 44.4044 280.764 44.7955 280.953 45.2827C281.142 45.7699 281.236 46.3698 281.236 47.0824V47.5795H275.35V46.5653H280.043C280.043 46.1345 279.957 45.75 279.785 45.4119C279.616 45.0739 279.374 44.8071 279.059 44.6115C278.747 44.416 278.379 44.3182 277.955 44.3182C277.488 44.3182 277.083 44.4342 276.742 44.6662C276.404 44.8949 276.144 45.1932 275.961 45.5611C275.779 45.929 275.688 46.3234 275.688 46.7443V47.4205C275.688 47.9972 275.787 48.486 275.986 48.8871C276.189 49.2848 276.469 49.5881 276.827 49.7969C277.184 50.0024 277.6 50.1051 278.074 50.1051C278.383 50.1051 278.661 50.062 278.91 49.9759C279.162 49.8864 279.379 49.7538 279.561 49.5781C279.743 49.3991 279.884 49.1771 279.983 48.9119L281.117 49.2301C280.998 49.6146 280.797 49.9527 280.515 50.2443C280.234 50.5327 279.886 50.758 279.471 50.9205C279.057 51.0795 278.591 51.1591 278.074 51.1591Z" fill="black"/>
<ellipse cx="82.5" cy="115.5" rx="8.5" ry="7.5" fill="black"/>
<ellipse cx="129.5" cy="257.5" rx="8.5" ry="7.5" fill="black"/>
<ellipse cx="357.5" cy="257.5" rx="8.5" ry="7.5" fill="black"/>
<path d="M33.1282 262V261.105L36.489 257.426C36.8834 256.995 37.2082 256.621 37.4634 256.303C37.7186 255.981 37.9076 255.679 38.0302 255.398C38.1561 255.113 38.2191 254.814 38.2191 254.503C38.2191 254.145 38.1329 253.835 37.9606 253.573C37.7915 253.311 37.5595 253.109 37.2646 252.967C36.9696 252.824 36.6381 252.753 36.2702 252.753C35.8791 252.753 35.5378 252.834 35.2461 252.996C34.9577 253.156 34.734 253.379 34.5749 253.668C34.4192 253.956 34.3413 254.294 34.3413 254.682H33.168C33.168 254.085 33.3055 253.562 33.5806 253.111C33.8557 252.66 34.2302 252.309 34.7042 252.057C35.1815 251.805 35.7167 251.679 36.31 251.679C36.9066 251.679 37.4353 251.805 37.896 252.057C38.3567 252.309 38.7179 252.648 38.9798 253.076C39.2416 253.504 39.3725 253.979 39.3725 254.503C39.3725 254.877 39.3046 255.244 39.1687 255.602C39.0361 255.956 38.8041 256.352 38.4727 256.79C38.1445 257.224 37.6888 257.754 37.1055 258.381L34.8185 260.827V260.906H39.5515V262H33.1282ZM46.7951 260.091V259.554C46.7951 259.183 46.8713 258.843 47.0238 258.535C47.1796 258.223 47.4049 257.975 47.6999 257.789C47.9982 257.6 48.3595 257.506 48.7837 257.506C49.2146 257.506 49.5759 257.6 49.8675 257.789C50.1592 257.975 50.3796 258.223 50.5288 258.535C50.6779 258.843 50.7525 259.183 50.7525 259.554V260.091C50.7525 260.462 50.6763 260.804 50.5238 261.115C50.3746 261.423 50.1526 261.672 49.8576 261.861C49.5659 262.046 49.208 262.139 48.7837 262.139C48.3529 262.139 47.9899 262.046 47.695 261.861C47.4 261.672 47.1763 261.423 47.0238 261.115C46.8713 260.804 46.7951 260.462 46.7951 260.091ZM47.8093 259.554V260.091C47.8093 260.399 47.8822 260.676 48.0281 260.921C48.1739 261.163 48.4258 261.284 48.7837 261.284C49.1317 261.284 49.377 261.163 49.5195 260.921C49.6654 260.676 49.7383 260.399 49.7383 260.091V259.554C49.7383 259.246 49.6687 258.971 49.5295 258.729C49.3903 258.483 49.1417 258.361 48.7837 258.361C48.4357 258.361 48.1855 258.483 48.033 258.729C47.8839 258.971 47.8093 259.246 47.8093 259.554ZM41.7241 254.264V253.727C41.7241 253.356 41.8003 253.016 41.9528 252.708C42.1085 252.397 42.3339 252.148 42.6289 251.962C42.9272 251.773 43.2885 251.679 43.7127 251.679C44.1436 251.679 44.5049 251.773 44.7965 251.962C45.0882 252.148 45.3086 252.397 45.4577 252.708C45.6069 253.016 45.6815 253.356 45.6815 253.727V254.264C45.6815 254.635 45.6052 254.977 45.4528 255.288C45.3036 255.597 45.0816 255.845 44.7866 256.034C44.4949 256.22 44.137 256.312 43.7127 256.312C43.2818 256.312 42.9189 256.22 42.6239 256.034C42.329 255.845 42.1052 255.597 41.9528 255.288C41.8003 254.977 41.7241 254.635 41.7241 254.264ZM42.7383 253.727V254.264C42.7383 254.572 42.8112 254.849 42.957 255.094C43.1029 255.336 43.3548 255.457 43.7127 255.457C44.0607 255.457 44.306 255.336 44.4485 255.094C44.5943 254.849 44.6673 254.572 44.6673 254.264V253.727C44.6673 253.419 44.5977 253.144 44.4585 252.902C44.3192 252.657 44.0707 252.534 43.7127 252.534C43.3647 252.534 43.1145 252.657 42.962 252.902C42.8129 253.144 42.7383 253.419 42.7383 253.727ZM42.1019 262L49.1019 251.818H50.2354L43.2354 262H42.1019Z" fill="black"/>
<path d="M29.8171 111.818V122H28.5842V113.111H28.5245L26.0387 114.761V113.509L28.5842 111.818H29.8171ZM36.0664 122.139C35.3174 122.139 34.6793 121.935 34.1523 121.528C33.6254 121.117 33.2227 120.522 32.9442 119.743C32.6658 118.961 32.5266 118.016 32.5266 116.909C32.5266 115.809 32.6658 114.869 32.9442 114.09C33.226 113.308 33.6303 112.711 34.1573 112.3C34.6876 111.886 35.324 111.679 36.0664 111.679C36.8088 111.679 37.4435 111.886 37.9705 112.3C38.5008 112.711 38.9052 113.308 39.1836 114.09C39.4653 114.869 39.6062 115.809 39.6062 116.909C39.6062 118.016 39.467 118.961 39.1886 119.743C38.9102 120.522 38.5075 121.117 37.9805 121.528C37.4535 121.935 36.8155 122.139 36.0664 122.139ZM36.0664 121.045C36.8088 121.045 37.3855 120.687 37.7965 119.972C38.2075 119.256 38.413 118.235 38.413 116.909C38.413 116.027 38.3185 115.277 38.1296 114.657C37.944 114.037 37.6755 113.565 37.3242 113.24C36.9762 112.915 36.5569 112.753 36.0664 112.753C35.3306 112.753 34.7556 113.116 34.3413 113.842C33.927 114.564 33.7198 115.587 33.7198 116.909C33.7198 117.791 33.8126 118.54 33.9982 119.156C34.1838 119.773 34.4506 120.242 34.7987 120.563C35.15 120.885 35.5726 121.045 36.0664 121.045ZM46.6857 120.091V119.554C46.6857 119.183 46.762 118.843 46.9144 118.535C47.0702 118.223 47.2956 117.975 47.5906 117.789C47.8888 117.6 48.2501 117.506 48.6744 117.506C49.1052 117.506 49.4665 117.6 49.7582 117.789C50.0498 117.975 50.2702 118.223 50.4194 118.535C50.5685 118.843 50.6431 119.183 50.6431 119.554V120.091C50.6431 120.462 50.5669 120.804 50.4144 121.115C50.2653 121.423 50.0432 121.672 49.7482 121.861C49.4566 122.046 49.0986 122.139 48.6744 122.139C48.2435 122.139 47.8806 122.046 47.5856 121.861C47.2906 121.672 47.0669 121.423 46.9144 121.115C46.762 120.804 46.6857 120.462 46.6857 120.091ZM47.6999 119.554V120.091C47.6999 120.399 47.7728 120.676 47.9187 120.921C48.0645 121.163 48.3164 121.284 48.6744 121.284C49.0224 121.284 49.2676 121.163 49.4102 120.921C49.556 120.676 49.6289 120.399 49.6289 120.091V119.554C49.6289 119.246 49.5593 118.971 49.4201 118.729C49.2809 118.483 49.0323 118.361 48.6744 118.361C48.3263 118.361 48.0761 118.483 47.9237 118.729C47.7745 118.971 47.6999 119.246 47.6999 119.554ZM41.6147 114.264V113.727C41.6147 113.356 41.6909 113.016 41.8434 112.708C41.9992 112.397 42.2246 112.148 42.5195 111.962C42.8178 111.773 43.1791 111.679 43.6033 111.679C44.0342 111.679 44.3955 111.773 44.6871 111.962C44.9788 112.148 45.1992 112.397 45.3484 112.708C45.4975 113.016 45.5721 113.356 45.5721 113.727V114.264C45.5721 114.635 45.4959 114.977 45.3434 115.288C45.1942 115.597 44.9722 115.845 44.6772 116.034C44.3855 116.22 44.0276 116.312 43.6033 116.312C43.1725 116.312 42.8095 116.22 42.5146 116.034C42.2196 115.845 41.9959 115.597 41.8434 115.288C41.6909 114.977 41.6147 114.635 41.6147 114.264ZM42.6289 113.727V114.264C42.6289 114.572 42.7018 114.849 42.8477 115.094C42.9935 115.336 43.2454 115.457 43.6033 115.457C43.9513 115.457 44.1966 115.336 44.3391 115.094C44.485 114.849 44.5579 114.572 44.5579 114.264V113.727C44.5579 113.419 44.4883 113.144 44.3491 112.902C44.2099 112.657 43.9613 112.534 43.6033 112.534C43.2553 112.534 43.0051 112.657 42.8526 112.902C42.7035 113.144 42.6289 113.419 42.6289 113.727ZM41.9925 122L48.9925 111.818H50.1261L43.1261 122H41.9925Z" fill="black"/>
<path d="M74.375 335.139C73.6259 335.139 72.9879 334.935 72.4609 334.528C71.9339 334.117 71.5313 333.522 71.2528 332.743C70.9744 331.961 70.8352 331.016 70.8352 329.909C70.8352 328.809 70.9744 327.869 71.2528 327.09C71.5346 326.308 71.9389 325.711 72.4659 325.3C72.9962 324.886 73.6326 324.679 74.375 324.679C75.1174 324.679 75.7521 324.886 76.2791 325.3C76.8094 325.711 77.2138 326.308 77.4922 327.09C77.7739 327.869 77.9148 328.809 77.9148 329.909C77.9148 331.016 77.7756 331.961 77.4972 332.743C77.2188 333.522 76.8161 334.117 76.2891 334.528C75.7621 334.935 75.1241 335.139 74.375 335.139ZM74.375 334.045C75.1174 334.045 75.6941 333.687 76.1051 332.972C76.5161 332.256 76.7216 331.235 76.7216 329.909C76.7216 329.027 76.6271 328.277 76.4382 327.657C76.2526 327.037 75.9841 326.565 75.6328 326.24C75.2848 325.915 74.8655 325.753 74.375 325.753C73.6392 325.753 73.0642 326.116 72.6499 326.842C72.2356 327.564 72.0284 328.587 72.0284 329.909C72.0284 330.791 72.1212 331.54 72.3068 332.156C72.4924 332.773 72.7592 333.242 73.1072 333.563C73.4586 333.885 73.8812 334.045 74.375 334.045Z" fill="black"/>
<path d="M126.634 324.818V335H125.401V326.111H125.341L122.855 327.761V326.509L125.401 324.818H126.634ZM132.883 335.139C132.134 335.139 131.496 334.935 130.969 334.528C130.442 334.117 130.039 333.522 129.761 332.743C129.482 331.961 129.343 331.016 129.343 329.909C129.343 328.809 129.482 327.869 129.761 327.09C130.042 326.308 130.447 325.711 130.974 325.3C131.504 324.886 132.14 324.679 132.883 324.679C133.625 324.679 134.26 324.886 134.787 325.3C135.317 325.711 135.722 326.308 136 327.09C136.282 327.869 136.423 328.809 136.423 329.909C136.423 331.016 136.283 331.961 136.005 332.743C135.727 333.522 135.324 334.117 134.797 334.528C134.27 334.935 133.632 335.139 132.883 335.139ZM132.883 334.045C133.625 334.045 134.202 333.687 134.613 332.972C135.024 332.256 135.229 331.235 135.229 329.909C135.229 329.027 135.135 328.277 134.946 327.657C134.76 327.037 134.492 326.565 134.141 326.24C133.793 325.915 133.373 325.753 132.883 325.753C132.147 325.753 131.572 326.116 131.158 326.842C130.743 327.564 130.536 328.587 130.536 329.909C130.536 330.791 130.629 331.54 130.815 332.156C131 332.773 131.267 333.242 131.615 333.563C131.966 333.885 132.389 334.045 132.883 334.045Z" fill="black"/>
<path d="M349.634 324.818V335H348.401V326.111H348.341L345.855 327.761V326.509L348.401 324.818H349.634ZM355.883 335.139C355.134 335.139 354.496 334.935 353.969 334.528C353.442 334.117 353.039 333.522 352.761 332.743C352.482 331.961 352.343 331.016 352.343 329.909C352.343 328.809 352.482 327.869 352.761 327.09C353.042 326.308 353.447 325.711 353.974 325.3C354.504 324.886 355.14 324.679 355.883 324.679C356.625 324.679 357.26 324.886 357.787 325.3C358.317 325.711 358.722 326.308 359 327.09C359.282 327.869 359.423 328.809 359.423 329.909C359.423 331.016 359.283 331.961 359.005 332.743C358.727 333.522 358.324 334.117 357.797 334.528C357.27 334.935 356.632 335.139 355.883 335.139ZM355.883 334.045C356.625 334.045 357.202 333.687 357.613 332.972C358.024 332.256 358.229 331.235 358.229 329.909C358.229 329.027 358.135 328.277 357.946 327.657C357.76 327.037 357.492 326.565 357.141 326.24C356.793 325.915 356.373 325.753 355.883 325.753C355.147 325.753 354.572 326.116 354.158 326.842C353.743 327.564 353.536 328.587 353.536 329.909C353.536 330.791 353.629 331.54 353.815 332.156C354 332.773 354.267 333.242 354.615 333.563C354.966 333.885 355.389 334.045 355.883 334.045ZM364.633 335.139C363.884 335.139 363.246 334.935 362.719 334.528C362.192 334.117 361.789 333.522 361.511 332.743C361.232 331.961 361.093 331.016 361.093 329.909C361.093 328.809 361.232 327.869 361.511 327.09C361.792 326.308 362.197 325.711 362.724 325.3C363.254 324.886 363.89 324.679 364.633 324.679C365.375 324.679 366.01 324.886 366.537 325.3C367.067 325.711 367.472 326.308 367.75 327.09C368.032 327.869 368.173 328.809 368.173 329.909C368.173 331.016 368.033 331.961 367.755 332.743C367.477 333.522 367.074 334.117 366.547 334.528C366.02 334.935 365.382 335.139 364.633 335.139ZM364.633 334.045C365.375 334.045 365.952 333.687 366.363 332.972C366.774 332.256 366.979 331.235 366.979 329.909C366.979 329.027 366.885 328.277 366.696 327.657C366.51 327.037 366.242 326.565 365.891 326.24C365.543 325.915 365.123 325.753 364.633 325.753C363.897 325.753 363.322 326.116 362.908 326.842C362.493 327.564 362.286 328.587 362.286 329.909C362.286 330.791 362.379 331.54 362.565 332.156C362.75 332.773 363.017 333.242 363.365 333.563C363.716 333.885 364.139 334.045 364.633 334.045ZM374.874 335.08C374.629 335.08 374.419 334.992 374.243 334.816C374.067 334.64 373.979 334.43 373.979 334.185C373.979 333.939 374.067 333.729 374.243 333.553C374.419 333.378 374.629 333.29 374.874 333.29C375.12 333.29 375.33 333.378 375.506 333.553C375.681 333.729 375.769 333.939 375.769 334.185C375.769 334.347 375.728 334.496 375.645 334.632C375.565 334.768 375.458 334.877 375.322 334.96C375.189 335.04 375.04 335.08 374.874 335.08ZM378.73 335.08C378.484 335.08 378.274 334.992 378.098 334.816C377.923 334.64 377.835 334.43 377.835 334.185C377.835 333.939 377.923 333.729 378.098 333.553C378.274 333.378 378.484 333.29 378.73 333.29C378.975 333.29 379.185 333.378 379.361 333.553C379.537 333.729 379.625 333.939 379.625 334.185C379.625 334.347 379.583 334.496 379.5 334.632C379.421 334.768 379.313 334.877 379.177 334.96C379.045 335.04 378.895 335.08 378.73 335.08ZM382.585 335.08C382.34 335.08 382.129 334.992 381.954 334.816C381.778 334.64 381.69 334.43 381.69 334.185C381.69 333.939 381.778 333.729 381.954 333.553C382.129 333.378 382.34 333.29 382.585 333.29C382.83 333.29 383.041 333.378 383.217 333.553C383.392 333.729 383.48 333.939 383.48 334.185C383.48 334.347 383.439 334.496 383.356 334.632C383.276 334.768 383.169 334.877 383.033 334.96C382.9 335.04 382.751 335.08 382.585 335.08Z" fill="black"/>
<path d="M69.5 91.5V294.5H376" stroke="black"/>
<path d="M86 119.5L131 256.5H358.5" stroke="black"/>
<path d="M158.731 348.818H160.143L162.967 353.571H163.086L165.91 348.818H167.322L163.643 354.804V359H162.41V354.804L158.731 348.818ZM170.879 359.159C170.143 359.159 169.509 358.997 168.975 358.672C168.445 358.344 168.035 357.886 167.747 357.3C167.462 356.71 167.319 356.024 167.319 355.241C167.319 354.459 167.462 353.77 167.747 353.173C168.035 352.573 168.436 352.106 168.95 351.771C169.467 351.433 170.07 351.264 170.76 351.264C171.157 351.264 171.55 351.33 171.938 351.463C172.326 351.596 172.679 351.811 172.997 352.109C173.315 352.404 173.569 352.795 173.758 353.283C173.947 353.77 174.041 354.37 174.041 355.082V355.58H168.155V354.565H172.848C172.848 354.134 172.762 353.75 172.589 353.412C172.42 353.074 172.178 352.807 171.863 352.612C171.552 352.416 171.184 352.318 170.76 352.318C170.292 352.318 169.888 352.434 169.547 352.666C169.209 352.895 168.948 353.193 168.766 353.561C168.584 353.929 168.493 354.323 168.493 354.744V355.42C168.493 355.997 168.592 356.486 168.791 356.887C168.993 357.285 169.273 357.588 169.631 357.797C169.989 358.002 170.405 358.105 170.879 358.105C171.187 358.105 171.466 358.062 171.714 357.976C171.966 357.886 172.183 357.754 172.366 357.578C172.548 357.399 172.689 357.177 172.788 356.912L173.922 357.23C173.802 357.615 173.602 357.953 173.32 358.244C173.038 358.533 172.69 358.758 172.276 358.92C171.862 359.08 171.396 359.159 170.879 359.159ZM178.073 359.179C177.589 359.179 177.15 359.088 176.756 358.906C176.361 358.72 176.048 358.453 175.816 358.105C175.584 357.754 175.468 357.33 175.468 356.832C175.468 356.395 175.554 356.04 175.726 355.768C175.899 355.493 176.129 355.278 176.417 355.122C176.706 354.966 177.024 354.85 177.372 354.774C177.723 354.695 178.076 354.632 178.431 354.585C178.895 354.526 179.271 354.481 179.559 354.451C179.851 354.418 180.063 354.363 180.196 354.287C180.332 354.211 180.4 354.078 180.4 353.889V353.849C180.4 353.359 180.265 352.978 179.997 352.706C179.732 352.434 179.329 352.298 178.789 352.298C178.229 352.298 177.79 352.421 177.471 352.666C177.153 352.911 176.93 353.173 176.8 353.452L175.687 353.054C175.885 352.59 176.151 352.229 176.482 351.97C176.817 351.708 177.181 351.526 177.576 351.423C177.974 351.317 178.365 351.264 178.749 351.264C178.994 351.264 179.276 351.294 179.594 351.354C179.916 351.41 180.226 351.528 180.524 351.707C180.826 351.886 181.076 352.156 181.275 352.517C181.474 352.878 181.573 353.362 181.573 353.969V359H180.4V357.966H180.34C180.26 358.132 180.128 358.309 179.942 358.498C179.757 358.687 179.51 358.848 179.202 358.98C178.893 359.113 178.517 359.179 178.073 359.179ZM178.252 358.125C178.716 358.125 179.107 358.034 179.425 357.852C179.747 357.669 179.989 357.434 180.151 357.146C180.317 356.857 180.4 356.554 180.4 356.236V355.162C180.35 355.222 180.241 355.276 180.072 355.326C179.906 355.372 179.714 355.414 179.495 355.45C179.279 355.483 179.069 355.513 178.863 355.54C178.661 355.563 178.497 355.583 178.371 355.599C178.066 355.639 177.781 355.704 177.516 355.793C177.254 355.879 177.042 356.01 176.88 356.186C176.721 356.358 176.641 356.594 176.641 356.892C176.641 357.3 176.792 357.608 177.094 357.817C177.398 358.022 177.785 358.125 178.252 358.125ZM183.714 359V351.364H184.848V352.517H184.928C185.067 352.139 185.319 351.833 185.683 351.597C186.048 351.362 186.459 351.244 186.916 351.244C187.002 351.244 187.11 351.246 187.239 351.249C187.369 351.253 187.466 351.258 187.533 351.264V352.457C187.493 352.447 187.402 352.433 187.259 352.413C187.12 352.389 186.973 352.378 186.817 352.378C186.446 352.378 186.114 352.456 185.822 352.612C185.534 352.764 185.305 352.976 185.136 353.248C184.971 353.516 184.888 353.823 184.888 354.168V359H183.714ZM194.333 353.074L193.279 353.372C193.212 353.196 193.115 353.026 192.985 352.86C192.859 352.691 192.687 352.552 192.468 352.442C192.249 352.333 191.969 352.278 191.628 352.278C191.161 352.278 190.771 352.386 190.46 352.602C190.151 352.814 189.997 353.084 189.997 353.412C189.997 353.704 190.103 353.934 190.316 354.103C190.528 354.272 190.859 354.413 191.31 354.526L192.443 354.804C193.126 354.97 193.635 355.223 193.97 355.565C194.304 355.903 194.472 356.339 194.472 356.872C194.472 357.31 194.346 357.701 194.094 358.045C193.845 358.39 193.497 358.662 193.05 358.861C192.602 359.06 192.082 359.159 191.489 359.159C190.71 359.159 190.065 358.99 189.555 358.652C189.044 358.314 188.721 357.82 188.585 357.17L189.699 356.892C189.805 357.303 190.006 357.611 190.301 357.817C190.599 358.022 190.988 358.125 191.469 358.125C192.016 358.125 192.45 358.009 192.771 357.777C193.096 357.542 193.259 357.26 193.259 356.932C193.259 356.667 193.166 356.445 192.98 356.266C192.795 356.083 192.51 355.947 192.125 355.858L190.852 355.56C190.153 355.394 189.639 355.137 189.311 354.789C188.986 354.438 188.824 353.999 188.824 353.472C188.824 353.041 188.945 352.66 189.187 352.328C189.432 351.997 189.765 351.737 190.186 351.548C190.61 351.359 191.091 351.264 191.628 351.264C192.384 351.264 192.977 351.43 193.408 351.761C193.842 352.093 194.15 352.53 194.333 353.074ZM205.903 351.364C205.843 350.86 205.601 350.469 205.177 350.19C204.753 349.912 204.232 349.773 203.616 349.773C203.165 349.773 202.771 349.846 202.433 349.991C202.098 350.137 201.836 350.338 201.647 350.593C201.461 350.848 201.369 351.138 201.369 351.463C201.369 351.735 201.433 351.969 201.562 352.164C201.695 352.356 201.864 352.517 202.07 352.646C202.275 352.772 202.491 352.877 202.716 352.96C202.941 353.039 203.148 353.104 203.337 353.153L204.371 353.432C204.637 353.501 204.932 353.598 205.256 353.72C205.585 353.843 205.898 354.01 206.196 354.222C206.498 354.431 206.746 354.7 206.942 355.028C207.137 355.356 207.235 355.759 207.235 356.236C207.235 356.786 207.091 357.283 206.803 357.727C206.518 358.171 206.1 358.524 205.55 358.786C205.003 359.048 204.338 359.179 203.556 359.179C202.827 359.179 202.196 359.061 201.662 358.826C201.132 358.591 200.714 358.263 200.409 357.842C200.107 357.421 199.937 356.932 199.897 356.375H201.17C201.203 356.759 201.332 357.078 201.558 357.33C201.786 357.578 202.075 357.764 202.423 357.886C202.774 358.006 203.152 358.065 203.556 358.065C204.027 358.065 204.449 357.989 204.824 357.837C205.198 357.681 205.495 357.465 205.714 357.19C205.933 356.912 206.042 356.587 206.042 356.216C206.042 355.878 205.947 355.603 205.759 355.391C205.57 355.179 205.321 355.006 205.013 354.874C204.705 354.741 204.371 354.625 204.013 354.526L202.761 354.168C201.965 353.939 201.335 353.612 200.871 353.188C200.407 352.764 200.175 352.209 200.175 351.523C200.175 350.953 200.33 350.455 200.638 350.031C200.949 349.604 201.367 349.272 201.891 349.037C202.418 348.798 203.006 348.679 203.656 348.679C204.312 348.679 204.895 348.797 205.406 349.032C205.916 349.264 206.32 349.582 206.619 349.987C206.92 350.391 207.079 350.85 207.096 351.364H205.903ZM209.103 359V351.364H210.276V359H209.103ZM209.7 350.091C209.471 350.091 209.274 350.013 209.108 349.857C208.946 349.701 208.865 349.514 208.865 349.295C208.865 349.077 208.946 348.889 209.108 348.734C209.274 348.578 209.471 348.5 209.7 348.5C209.928 348.5 210.124 348.578 210.286 348.734C210.452 348.889 210.535 349.077 210.535 349.295C210.535 349.514 210.452 349.701 210.286 349.857C210.124 350.013 209.928 350.091 209.7 350.091ZM213.599 354.406V359H212.425V351.364H213.559V352.557H213.658C213.837 352.169 214.109 351.857 214.474 351.622C214.838 351.384 215.309 351.264 215.886 351.264C216.403 351.264 216.855 351.37 217.243 351.582C217.631 351.791 217.932 352.109 218.148 352.537C218.363 352.961 218.471 353.498 218.471 354.148V359H217.298V354.227C217.298 353.627 217.142 353.16 216.83 352.825C216.519 352.487 216.091 352.318 215.548 352.318C215.173 352.318 214.838 352.399 214.543 352.562C214.252 352.724 214.021 352.961 213.852 353.273C213.683 353.584 213.599 353.962 213.599 354.406ZM223.717 359.159C223.001 359.159 222.385 358.99 221.868 358.652C221.351 358.314 220.953 357.848 220.675 357.255C220.396 356.662 220.257 355.984 220.257 355.222C220.257 354.446 220.399 353.762 220.684 353.168C220.973 352.572 221.374 352.106 221.888 351.771C222.405 351.433 223.008 351.264 223.697 351.264C224.234 351.264 224.718 351.364 225.149 351.562C225.58 351.761 225.933 352.04 226.208 352.398C226.483 352.756 226.654 353.173 226.72 353.651H225.547C225.457 353.303 225.258 352.994 224.95 352.726C224.645 352.454 224.234 352.318 223.717 352.318C223.26 352.318 222.859 352.437 222.514 352.676C222.173 352.911 221.906 353.245 221.714 353.675C221.525 354.103 221.43 354.605 221.43 355.182C221.43 355.772 221.523 356.286 221.709 356.723C221.898 357.161 222.163 357.5 222.504 357.742C222.849 357.984 223.253 358.105 223.717 358.105C224.022 358.105 224.299 358.052 224.547 357.946C224.796 357.84 225.006 357.688 225.179 357.489C225.351 357.29 225.474 357.051 225.547 356.773H226.72C226.654 357.223 226.49 357.629 226.228 357.991C225.969 358.349 225.626 358.634 225.199 358.846C224.774 359.055 224.281 359.159 223.717 359.159ZM231.637 359.159C230.901 359.159 230.266 358.997 229.733 358.672C229.202 358.344 228.793 357.886 228.505 357.3C228.22 356.71 228.077 356.024 228.077 355.241C228.077 354.459 228.22 353.77 228.505 353.173C228.793 352.573 229.194 352.106 229.708 351.771C230.225 351.433 230.828 351.264 231.518 351.264C231.915 351.264 232.308 351.33 232.696 351.463C233.084 351.596 233.437 351.811 233.755 352.109C234.073 352.404 234.327 352.795 234.515 353.283C234.704 353.77 234.799 354.37 234.799 355.082V355.58H228.912V354.565H233.606C233.606 354.134 233.519 353.75 233.347 353.412C233.178 353.074 232.936 352.807 232.621 352.612C232.31 352.416 231.942 352.318 231.518 352.318C231.05 352.318 230.646 352.434 230.305 352.666C229.966 352.895 229.706 353.193 229.524 353.561C229.342 353.929 229.251 354.323 229.251 354.744V355.42C229.251 355.997 229.35 356.486 229.549 356.887C229.751 357.285 230.031 357.588 230.389 357.797C230.747 358.002 231.163 358.105 231.637 358.105C231.945 358.105 232.224 358.062 232.472 357.976C232.724 357.886 232.941 357.754 233.123 357.578C233.306 357.399 233.447 357.177 233.546 356.912L234.68 357.23C234.56 357.615 234.36 357.953 234.078 358.244C233.796 358.533 233.448 358.758 233.034 358.92C232.62 359.08 232.154 359.159 231.637 359.159ZM240.68 359V348.818H241.913V357.906H246.646V359H240.68ZM250.643 359.179C250.159 359.179 249.72 359.088 249.326 358.906C248.931 358.72 248.618 358.453 248.386 358.105C248.154 357.754 248.038 357.33 248.038 356.832C248.038 356.395 248.124 356.04 248.297 355.768C248.469 355.493 248.699 355.278 248.988 355.122C249.276 354.966 249.594 354.85 249.942 354.774C250.294 354.695 250.647 354.632 251.001 354.585C251.465 354.526 251.841 354.481 252.13 354.451C252.421 354.418 252.634 354.363 252.766 354.287C252.902 354.211 252.97 354.078 252.97 353.889V353.849C252.97 353.359 252.836 352.978 252.567 352.706C252.302 352.434 251.899 352.298 251.359 352.298C250.799 352.298 250.36 352.421 250.042 352.666C249.724 352.911 249.5 353.173 249.371 353.452L248.257 353.054C248.456 352.59 248.721 352.229 249.052 351.97C249.387 351.708 249.752 351.526 250.146 351.423C250.544 351.317 250.935 351.264 251.319 351.264C251.565 351.264 251.846 351.294 252.165 351.354C252.486 351.41 252.796 351.528 253.094 351.707C253.396 351.886 253.646 352.156 253.845 352.517C254.044 352.878 254.143 353.362 254.143 353.969V359H252.97V357.966H252.91C252.831 358.132 252.698 358.309 252.513 358.498C252.327 358.687 252.08 358.848 251.772 358.98C251.464 359.113 251.087 359.179 250.643 359.179ZM250.822 358.125C251.286 358.125 251.677 358.034 251.996 357.852C252.317 357.669 252.559 357.434 252.721 357.146C252.887 356.857 252.97 356.554 252.97 356.236V355.162C252.92 355.222 252.811 355.276 252.642 355.326C252.476 355.372 252.284 355.414 252.065 355.45C251.85 355.483 251.639 355.513 251.434 355.54C251.232 355.563 251.068 355.583 250.942 355.599C250.637 355.639 250.352 355.704 250.086 355.793C249.825 355.879 249.613 356.01 249.45 356.186C249.291 356.358 249.211 356.594 249.211 356.892C249.211 357.3 249.362 357.608 249.664 357.817C249.969 358.022 250.355 358.125 250.822 358.125ZM261.097 355.878V351.364H262.271V359H261.097V357.707H261.018C260.839 358.095 260.56 358.425 260.183 358.697C259.805 358.965 259.327 359.099 258.751 359.099C258.273 359.099 257.849 358.995 257.478 358.786C257.107 358.574 256.815 358.256 256.603 357.832C256.391 357.404 256.285 356.866 256.285 356.216V351.364H257.458V356.136C257.458 356.693 257.614 357.137 257.925 357.469C258.24 357.8 258.641 357.966 259.129 357.966C259.42 357.966 259.717 357.891 260.018 357.742C260.323 357.593 260.579 357.364 260.784 357.056C260.993 356.748 261.097 356.355 261.097 355.878ZM265.593 354.406V359H264.42V351.364H265.553V352.557H265.653C265.831 352.169 266.103 351.857 266.468 351.622C266.832 351.384 267.303 351.264 267.88 351.264C268.397 351.264 268.849 351.37 269.237 351.582C269.625 351.791 269.926 352.109 270.142 352.537C270.357 352.961 270.465 353.498 270.465 354.148V359H269.292V354.227C269.292 353.627 269.136 353.16 268.824 352.825C268.513 352.487 268.085 352.318 267.542 352.318C267.167 352.318 266.832 352.399 266.537 352.562C266.246 352.724 266.015 352.961 265.846 353.273C265.677 353.584 265.593 353.962 265.593 354.406ZM275.711 359.159C274.995 359.159 274.379 358.99 273.862 358.652C273.345 358.314 272.947 357.848 272.669 357.255C272.39 356.662 272.251 355.984 272.251 355.222C272.251 354.446 272.394 353.762 272.679 353.168C272.967 352.572 273.368 352.106 273.882 351.771C274.399 351.433 275.002 351.264 275.691 351.264C276.228 351.264 276.712 351.364 277.143 351.562C277.574 351.761 277.927 352.04 278.202 352.398C278.477 352.756 278.648 353.173 278.714 353.651H277.541C277.451 353.303 277.252 352.994 276.944 352.726C276.639 352.454 276.228 352.318 275.711 352.318C275.254 352.318 274.853 352.437 274.508 352.676C274.167 352.911 273.9 353.245 273.708 353.675C273.519 354.103 273.424 354.605 273.424 355.182C273.424 355.772 273.517 356.286 273.703 356.723C273.892 357.161 274.157 357.5 274.498 357.742C274.843 357.984 275.247 358.105 275.711 358.105C276.016 358.105 276.293 358.052 276.542 357.946C276.79 357.84 277.001 357.688 277.173 357.489C277.345 357.29 277.468 357.051 277.541 356.773H278.714C278.648 357.223 278.484 357.629 278.222 357.991C277.963 358.349 277.62 358.634 277.193 358.846C276.769 359.055 276.275 359.159 275.711 359.159ZM281.603 354.406V359H280.429V348.818H281.603V352.557H281.702C281.881 352.162 282.15 351.849 282.507 351.617C282.869 351.382 283.349 351.264 283.949 351.264C284.47 351.264 284.925 351.369 285.316 351.577C285.708 351.783 286.011 352.099 286.226 352.527C286.445 352.951 286.554 353.491 286.554 354.148V359H285.381V354.227C285.381 353.621 285.224 353.152 284.909 352.82C284.597 352.486 284.165 352.318 283.611 352.318C283.227 352.318 282.882 352.399 282.577 352.562C282.275 352.724 282.037 352.961 281.861 353.273C281.689 353.584 281.603 353.962 281.603 354.406Z" fill="black"/>
<rect x="-0.5" y="0.5" width="451" height="377" transform="matrix(1 0 0 -1 1 378)" stroke="black"/>
</svg>
