<svg width="852" height="378" viewBox="0 0 852 378" fill="none" xmlns="http://www.w3.org/2000/svg">
<rect x="-0.5" y="0.5" width="851" height="377" transform="matrix(1 0 0 -1 1 378)" fill="white"/>
<path d="M166.286 51V40.8182H172.391V41.9119H167.519V45.3523H171.933V46.446H167.519V51H166.286ZM174.502 51V40.8182H177.943C178.738 40.8182 179.391 40.9541 179.902 41.2259C180.412 41.4943 180.79 41.8639 181.035 42.3345C181.28 42.8052 181.403 43.3404 181.403 43.9403C181.403 44.5402 181.28 45.0722 181.035 45.5362C180.79 46.0002 180.414 46.3648 179.907 46.63C179.4 46.8918 178.752 47.0227 177.963 47.0227H175.179V45.9091H177.923C178.467 45.9091 178.904 45.8295 179.235 45.6705C179.57 45.5114 179.812 45.286 179.961 44.9943C180.114 44.6993 180.19 44.348 180.19 43.9403C180.19 43.5327 180.114 43.1764 179.961 42.8714C179.809 42.5665 179.565 42.3312 179.23 42.1655C178.896 41.9964 178.453 41.9119 177.903 41.9119H175.735V51H174.502ZM179.295 46.4261L181.801 51H180.369L177.903 46.4261H179.295ZM183.119 51V50.1051L188.608 41.9119H183.06V40.8182H190.08V41.7131L184.591 49.9062H190.139V51H183.119ZM197.378 40.8182V51H196.145V40.8182H197.378ZM200.864 46.4062V51H199.691V43.3636H200.825V44.5568H200.924C201.103 44.169 201.375 43.8575 201.739 43.6222C202.104 43.3835 202.575 43.2642 203.151 43.2642C203.668 43.2642 204.121 43.3703 204.509 43.5824C204.896 43.7912 205.198 44.1094 205.413 44.5369C205.629 44.9612 205.737 45.4981 205.737 46.1477V51H204.563V46.2273C204.563 45.6274 204.407 45.16 204.096 44.8253C203.784 44.4872 203.357 44.3182 202.813 44.3182C202.439 44.3182 202.104 44.3994 201.809 44.5618C201.517 44.7242 201.287 44.9612 201.118 45.2727C200.949 45.5843 200.864 45.9621 200.864 46.4062ZM211.281 43.3636V44.358H207.165V43.3636H211.281ZM208.398 51V42.3097C208.398 41.8722 208.5 41.5076 208.706 41.2159C208.911 40.9242 209.178 40.7055 209.506 40.5597C209.834 40.4138 210.181 40.3409 210.545 40.3409C210.834 40.3409 211.069 40.3641 211.251 40.4105C211.434 40.4569 211.569 40.5 211.659 40.5398L211.321 41.554C211.261 41.5341 211.178 41.5092 211.072 41.4794C210.97 41.4496 210.834 41.4347 210.665 41.4347C210.277 41.4347 209.997 41.5324 209.824 41.728C209.655 41.9235 209.571 42.2102 209.571 42.5881V51H208.398ZM214.099 40.8182V51H212.925V40.8182H214.099ZM218.495 51.179C218.011 51.179 217.572 51.0878 217.177 50.9055C216.783 50.7199 216.47 50.4531 216.238 50.1051C216.006 49.7538 215.89 49.3295 215.89 48.8324C215.89 48.3949 215.976 48.0402 216.148 47.7685C216.321 47.4934 216.551 47.2779 216.839 47.1222C217.128 46.9664 217.446 46.8504 217.794 46.7741C218.145 46.6946 218.498 46.6316 218.853 46.5852C219.317 46.5256 219.693 46.4808 219.981 46.451C220.273 46.4179 220.485 46.3632 220.618 46.2869C220.754 46.2107 220.822 46.0781 220.822 45.8892V45.8494C220.822 45.3589 220.687 44.9777 220.419 44.706C220.154 44.4342 219.751 44.2983 219.211 44.2983C218.651 44.2983 218.211 44.4209 217.893 44.6662C217.575 44.9115 217.351 45.1733 217.222 45.4517L216.108 45.054C216.307 44.59 216.573 44.2287 216.904 43.9702C217.239 43.7083 217.603 43.526 217.998 43.4233C218.395 43.3172 218.787 43.2642 219.171 43.2642C219.416 43.2642 219.698 43.294 220.016 43.3537C220.338 43.41 220.648 43.5277 220.946 43.7067C221.247 43.8857 221.498 44.1558 221.697 44.517C221.895 44.8783 221.995 45.3622 221.995 45.9688V51H220.822V49.9659H220.762C220.682 50.1316 220.55 50.3089 220.364 50.4979C220.179 50.6868 219.932 50.8475 219.623 50.9801C219.315 51.1127 218.939 51.179 218.495 51.179ZM218.674 50.125C219.138 50.125 219.529 50.0339 219.847 49.8516C220.169 49.6693 220.411 49.4339 220.573 49.1456C220.739 48.8572 220.822 48.554 220.822 48.2358V47.1619C220.772 47.2216 220.662 47.2763 220.493 47.326C220.328 47.3724 220.135 47.4138 219.917 47.4503C219.701 47.4834 219.491 47.5133 219.285 47.5398C219.083 47.563 218.919 47.5829 218.793 47.5994C218.488 47.6392 218.203 47.7038 217.938 47.7933C217.676 47.8795 217.464 48.0104 217.302 48.1861C217.143 48.3584 217.063 48.5937 217.063 48.892C217.063 49.2997 217.214 49.608 217.515 49.8168C217.82 50.0223 218.206 50.125 218.674 50.125ZM227.457 43.3636V44.358H223.5V43.3636H227.457ZM224.653 41.5341H225.827V48.8125C225.827 49.1439 225.875 49.3925 225.971 49.5582C226.07 49.7206 226.196 49.83 226.349 49.8864C226.504 49.9394 226.669 49.9659 226.841 49.9659C226.97 49.9659 227.076 49.9593 227.159 49.946C227.242 49.9295 227.308 49.9162 227.358 49.9062L227.597 50.9602C227.517 50.9901 227.406 51.0199 227.263 51.0497C227.121 51.0829 226.94 51.0994 226.722 51.0994C226.39 51.0994 226.065 51.0282 225.747 50.8857C225.432 50.7431 225.17 50.526 224.962 50.2344C224.756 49.9427 224.653 49.5748 224.653 49.1307V41.5341ZM229.222 51V43.3636H230.396V51H229.222ZM229.819 42.0909C229.59 42.0909 229.393 42.013 229.227 41.8572C229.065 41.7015 228.984 41.5142 228.984 41.2955C228.984 41.0767 229.065 40.8894 229.227 40.7337C229.393 40.5779 229.59 40.5 229.819 40.5C230.048 40.5 230.243 40.5779 230.406 40.7337C230.571 40.8894 230.654 41.0767 230.654 41.2955C230.654 41.5142 230.571 41.7015 230.406 41.8572C230.243 42.013 230.048 42.0909 229.819 42.0909ZM235.647 51.1591C234.957 51.1591 234.353 50.995 233.832 50.6669C233.315 50.3388 232.911 49.8797 232.619 49.2898C232.331 48.6998 232.187 48.0104 232.187 47.2216C232.187 46.4261 232.331 45.7318 232.619 45.1385C232.911 44.5452 233.315 44.0845 233.832 43.7564C234.353 43.4283 234.957 43.2642 235.647 43.2642C236.336 43.2642 236.939 43.4283 237.456 43.7564C237.977 44.0845 238.381 44.5452 238.67 45.1385C238.961 45.7318 239.107 46.4261 239.107 47.2216C239.107 48.0104 238.961 48.6998 238.67 49.2898C238.381 49.8797 237.977 50.3388 237.456 50.6669C236.939 50.995 236.336 51.1591 235.647 51.1591ZM235.647 50.1051C236.171 50.1051 236.601 49.9709 236.939 49.7024C237.278 49.4339 237.528 49.081 237.69 48.6435C237.853 48.206 237.934 47.732 237.934 47.2216C237.934 46.7112 237.853 46.2356 237.69 45.7947C237.528 45.3539 237.278 44.9976 236.939 44.7259C236.601 44.4541 236.171 44.3182 235.647 44.3182C235.123 44.3182 234.692 44.4541 234.354 44.7259C234.016 44.9976 233.766 45.3539 233.604 45.7947C233.441 46.2356 233.36 46.7112 233.36 47.2216C233.36 47.732 233.441 48.206 233.604 48.6435C233.766 49.081 234.016 49.4339 234.354 49.7024C234.692 49.9709 235.123 50.1051 235.647 50.1051ZM242.071 46.4062V51H240.898V43.3636H242.032V44.5568H242.131C242.31 44.169 242.582 43.8575 242.946 43.6222C243.311 43.3835 243.782 43.2642 244.358 43.2642C244.875 43.2642 245.328 43.3703 245.716 43.5824C246.103 43.7912 246.405 44.1094 246.62 44.5369C246.836 44.9612 246.944 45.4981 246.944 46.1477V51H245.77V46.2273C245.77 45.6274 245.614 45.16 245.303 44.8253C244.991 44.4872 244.564 44.3182 244.02 44.3182C243.646 44.3182 243.311 44.3994 243.016 44.5618C242.724 44.7242 242.494 44.9612 242.325 45.2727C242.156 45.5843 242.071 45.9621 242.071 46.4062ZM253.184 51V40.8182H256.624C257.42 40.8182 258.073 40.9541 258.583 41.2259C259.094 41.4943 259.472 41.8639 259.717 42.3345C259.962 42.8052 260.085 43.3404 260.085 43.9403C260.085 44.5402 259.962 45.0722 259.717 45.5362C259.472 46.0002 259.095 46.3648 258.588 46.63C258.081 46.8918 257.433 47.0227 256.644 47.0227H253.86V45.9091H256.605C257.148 45.9091 257.586 45.8295 257.917 45.6705C258.252 45.5114 258.494 45.286 258.643 44.9943C258.795 44.6993 258.872 44.348 258.872 43.9403C258.872 43.5327 258.795 43.1764 258.643 42.8714C258.49 42.5665 258.247 42.3312 257.912 42.1655C257.577 41.9964 257.135 41.9119 256.585 41.9119H254.417V51H253.184ZM257.977 46.4261L260.482 51H259.051L256.585 46.4261H257.977ZM264.227 51.179C263.743 51.179 263.304 51.0878 262.91 50.9055C262.515 50.7199 262.202 50.4531 261.97 50.1051C261.738 49.7538 261.622 49.3295 261.622 48.8324C261.622 48.3949 261.708 48.0402 261.881 47.7685C262.053 47.4934 262.283 47.2779 262.572 47.1222C262.86 46.9664 263.178 46.8504 263.526 46.7741C263.878 46.6946 264.231 46.6316 264.585 46.5852C265.049 46.5256 265.425 46.4808 265.714 46.451C266.005 46.4179 266.218 46.3632 266.35 46.2869C266.486 46.2107 266.554 46.0781 266.554 45.8892V45.8494C266.554 45.3589 266.42 44.9777 266.151 44.706C265.886 44.4342 265.483 44.2983 264.943 44.2983C264.383 44.2983 263.944 44.4209 263.626 44.6662C263.308 44.9115 263.084 45.1733 262.955 45.4517L261.841 45.054C262.04 44.59 262.305 44.2287 262.636 43.9702C262.971 43.7083 263.336 43.526 263.73 43.4233C264.128 43.3172 264.519 43.2642 264.903 43.2642C265.149 43.2642 265.43 43.294 265.749 43.3537C266.07 43.41 266.38 43.5277 266.678 43.7067C266.98 43.8857 267.23 44.1558 267.429 44.517C267.628 44.8783 267.727 45.3622 267.727 45.9688V51H266.554V49.9659H266.494C266.415 50.1316 266.282 50.3089 266.097 50.4979C265.911 50.6868 265.664 50.8475 265.356 50.9801C265.048 51.1127 264.671 51.179 264.227 51.179ZM264.406 50.125C264.87 50.125 265.261 50.0339 265.58 49.8516C265.901 49.6693 266.143 49.4339 266.305 49.1456C266.471 48.8572 266.554 48.554 266.554 48.2358V47.1619C266.504 47.2216 266.395 47.2763 266.226 47.326C266.06 47.3724 265.868 47.4138 265.649 47.4503C265.434 47.4834 265.223 47.5133 265.018 47.5398C264.816 47.563 264.652 47.5829 264.526 47.5994C264.221 47.6392 263.936 47.7038 263.67 47.7933C263.409 47.8795 263.196 48.0104 263.034 48.1861C262.875 48.3584 262.795 48.5937 262.795 48.892C262.795 49.2997 262.946 49.608 263.248 49.8168C263.553 50.0223 263.939 50.125 264.406 50.125ZM273.19 43.3636V44.358H269.232V43.3636H273.19ZM270.386 41.5341H271.559V48.8125C271.559 49.1439 271.607 49.3925 271.703 49.5582C271.803 49.7206 271.929 49.83 272.081 49.8864C272.237 49.9394 272.401 49.9659 272.573 49.9659C272.703 49.9659 272.809 49.9593 272.892 49.946C272.974 49.9295 273.041 49.9162 273.09 49.9062L273.329 50.9602C273.249 50.9901 273.138 51.0199 272.996 51.0497C272.853 51.0829 272.673 51.0994 272.454 51.0994C272.123 51.0994 271.798 51.0282 271.48 50.8857C271.165 50.7431 270.903 50.526 270.694 50.2344C270.489 49.9427 270.386 49.5748 270.386 49.1307V41.5341ZM278.074 51.1591C277.339 51.1591 276.704 50.9967 276.17 50.6719C275.64 50.3438 275.231 49.8864 274.942 49.2997C274.657 48.7098 274.515 48.0237 274.515 47.2415C274.515 46.4593 274.657 45.7699 274.942 45.1733C275.231 44.5734 275.632 44.1061 276.145 43.7713C276.662 43.4332 277.266 43.2642 277.955 43.2642C278.353 43.2642 278.746 43.3305 279.133 43.4631C279.521 43.5956 279.874 43.8111 280.192 44.1094C280.51 44.4044 280.764 44.7955 280.953 45.2827C281.142 45.7699 281.236 46.3698 281.236 47.0824V47.5795H275.35V46.5653H280.043C280.043 46.1345 279.957 45.75 279.785 45.4119C279.616 45.0739 279.374 44.8071 279.059 44.6115C278.747 44.416 278.379 44.3182 277.955 44.3182C277.488 44.3182 277.083 44.4342 276.742 44.6662C276.404 44.8949 276.144 45.1932 275.961 45.5611C275.779 45.929 275.688 46.3234 275.688 46.7443V47.4205C275.688 47.9972 275.787 48.486 275.986 48.8871C276.189 49.2848 276.469 49.5881 276.827 49.7969C277.184 50.0024 277.6 50.1051 278.074 50.1051C278.383 50.1051 278.661 50.062 278.91 49.9759C279.162 49.8864 279.379 49.7538 279.561 49.5781C279.743 49.3991 279.884 49.1771 279.983 48.9119L281.117 49.2301C280.998 49.6146 280.797 49.9527 280.515 50.2443C280.234 50.5327 279.886 50.758 279.471 50.9205C279.057 51.0795 278.591 51.1591 278.074 51.1591Z" fill="black"/>
<path d="M550.35 40.8182V51H549.157L543.608 43.0057H543.509V51H542.276V40.8182H543.469L549.037 48.8324H549.137V40.8182H550.35ZM555.86 51.1591C555.124 51.1591 554.489 50.9967 553.955 50.6719C553.425 50.3438 553.016 49.8864 552.727 49.2997C552.442 48.7098 552.3 48.0237 552.3 47.2415C552.3 46.4593 552.442 45.7699 552.727 45.1733C553.016 44.5734 553.417 44.1061 553.931 43.7713C554.448 43.4332 555.051 43.2642 555.74 43.2642C556.138 43.2642 556.531 43.3305 556.919 43.4631C557.306 43.5956 557.659 43.8111 557.977 44.1094C558.296 44.4044 558.549 44.7955 558.738 45.2827C558.927 45.7699 559.021 46.3698 559.021 47.0824V47.5795H553.135V46.5653H557.828C557.828 46.1345 557.742 45.75 557.57 45.4119C557.401 45.0739 557.159 44.8071 556.844 44.6115C556.532 44.416 556.164 44.3182 555.74 44.3182C555.273 44.3182 554.869 44.4342 554.527 44.6662C554.189 44.8949 553.929 45.1932 553.747 45.5611C553.564 45.929 553.473 46.3234 553.473 46.7443V47.4205C553.473 47.9972 553.573 48.486 553.771 48.8871C553.974 49.2848 554.254 49.5881 554.612 49.7969C554.97 50.0024 555.386 50.1051 555.86 50.1051C556.168 50.1051 556.446 50.062 556.695 49.9759C556.947 49.8864 557.164 49.7538 557.346 49.5781C557.528 49.3991 557.669 49.1771 557.769 48.9119L558.902 49.2301C558.783 49.6146 558.582 49.9527 558.301 50.2443C558.019 50.5327 557.671 50.758 557.257 50.9205C556.842 51.0795 556.377 51.1591 555.86 51.1591ZM562.536 51L560.21 43.3636H561.443L563.093 49.2102H563.173L564.803 43.3636H566.056L567.667 49.1903H567.747L569.397 43.3636H570.63L568.303 51H567.15L565.48 45.1335H565.36L563.69 51H562.536ZM576.278 51V40.8182H582.383V41.9119H577.511V45.3523H581.926V46.446H577.511V51H576.278ZM584.495 51V40.8182H587.935C588.73 40.8182 589.383 40.9541 589.894 41.2259C590.404 41.4943 590.782 41.8639 591.027 42.3345C591.273 42.8052 591.395 43.3404 591.395 43.9403C591.395 44.5402 591.273 45.0722 591.027 45.5362C590.782 46.0002 590.406 46.3648 589.899 46.63C589.392 46.8918 588.744 47.0227 587.955 47.0227H585.171V45.9091H587.915C588.459 45.9091 588.896 45.8295 589.228 45.6705C589.562 45.5114 589.804 45.286 589.953 44.9943C590.106 44.6993 590.182 44.348 590.182 43.9403C590.182 43.5327 590.106 43.1764 589.953 42.8714C589.801 42.5665 589.557 42.3312 589.223 42.1655C588.888 41.9964 588.445 41.9119 587.895 41.9119H585.728V51H584.495ZM589.287 46.4261L591.793 51H590.361L587.895 46.4261H589.287ZM593.112 51V50.1051L598.6 41.9119H593.052V40.8182H600.072V41.7131L594.583 49.9062H600.132V51H593.112ZM606.137 40.8182H607.609L611.069 49.2699H611.188L614.649 40.8182H616.12V51H614.967V43.2642H614.867L611.686 51H610.572L607.39 43.2642H607.291V51H606.137V40.8182ZM618.433 51V43.3636H619.607V51H618.433ZM619.03 42.0909C618.801 42.0909 618.604 42.013 618.438 41.8572C618.276 41.7015 618.195 41.5142 618.195 41.2955C618.195 41.0767 618.276 40.8894 618.438 40.7337C618.604 40.5779 618.801 40.5 619.03 40.5C619.259 40.5 619.454 40.5779 619.616 40.7337C619.782 40.8894 619.865 41.0767 619.865 41.2955C619.865 41.5142 619.782 41.7015 619.616 41.8572C619.454 42.013 619.259 42.0909 619.03 42.0909ZM622.929 46.4062V51H621.756V43.3636H622.889V44.5568H622.988C623.167 44.169 623.439 43.8575 623.804 43.6222C624.168 43.3835 624.639 43.2642 625.216 43.2642C625.733 43.2642 626.185 43.3703 626.573 43.5824C626.961 43.7912 627.262 44.1094 627.478 44.5369C627.693 44.9612 627.801 45.4981 627.801 46.1477V51H626.628V46.2273C626.628 45.6274 626.472 45.16 626.16 44.8253C625.849 44.4872 625.421 44.3182 624.878 44.3182C624.503 44.3182 624.168 44.3994 623.873 44.5618C623.582 44.7242 623.351 44.9612 623.182 45.2727C623.013 45.5843 622.929 45.9621 622.929 46.4062ZM633.266 43.3636V44.358H629.309V43.3636H633.266ZM630.462 41.5341H631.635V48.8125C631.635 49.1439 631.683 49.3925 631.779 49.5582C631.879 49.7206 632.005 49.83 632.157 49.8864C632.313 49.9394 632.477 49.9659 632.65 49.9659C632.779 49.9659 632.885 49.9593 632.968 49.946C633.051 49.9295 633.117 49.9162 633.167 49.9062L633.405 50.9602C633.326 50.9901 633.215 51.0199 633.072 51.0497C632.93 51.0829 632.749 51.0994 632.53 51.0994C632.199 51.0994 631.874 51.0282 631.556 50.8857C631.241 50.7431 630.979 50.526 630.77 50.2344C630.565 49.9427 630.462 49.5748 630.462 49.1307V41.5341ZM638.151 51.1591C637.415 51.1591 636.78 50.9967 636.246 50.6719C635.716 50.3438 635.307 49.8864 635.018 49.2997C634.733 48.7098 634.591 48.0237 634.591 47.2415C634.591 46.4593 634.733 45.7699 635.018 45.1733C635.307 44.5734 635.708 44.1061 636.222 43.7713C636.739 43.4332 637.342 43.2642 638.031 43.2642C638.429 43.2642 638.822 43.3305 639.21 43.4631C639.597 43.5956 639.95 43.8111 640.268 44.1094C640.587 44.4044 640.84 44.7955 641.029 45.2827C641.218 45.7699 641.312 46.3698 641.312 47.0824V47.5795H635.426V46.5653H640.119C640.119 46.1345 640.033 45.75 639.861 45.4119C639.692 45.0739 639.45 44.8071 639.135 44.6115C638.823 44.416 638.455 44.3182 638.031 44.3182C637.564 44.3182 637.16 44.4342 636.818 44.6662C636.48 44.8949 636.22 45.1932 636.038 45.5611C635.855 45.929 635.764 46.3234 635.764 46.7443V47.4205C635.764 47.9972 635.864 48.486 636.062 48.8871C636.265 49.2848 636.545 49.5881 636.903 49.7969C637.261 50.0024 637.677 50.1051 638.151 50.1051C638.459 50.1051 638.737 50.062 638.986 49.9759C639.238 49.8864 639.455 49.7538 639.637 49.5781C639.819 49.3991 639.96 49.1771 640.06 48.9119L641.193 49.2301C641.074 49.6146 640.873 49.9527 640.592 50.2443C640.31 50.5327 639.962 50.758 639.548 50.9205C639.133 51.0795 638.668 51.1591 638.151 51.1591ZM645.981 51.1591C645.344 51.1591 644.783 50.9983 644.295 50.6768C643.808 50.352 643.427 49.8946 643.152 49.3047C642.877 48.7114 642.739 48.0104 642.739 47.2017C642.739 46.3996 642.877 45.7036 643.152 45.1136C643.427 44.5237 643.81 44.0679 644.3 43.7464C644.791 43.425 645.358 43.2642 646.001 43.2642C646.498 43.2642 646.891 43.3471 647.179 43.5128C647.471 43.6752 647.693 43.8608 647.845 44.0696C648.001 44.2751 648.122 44.4441 648.208 44.5767H648.308V40.8182H649.481V51H648.347V49.8267H648.208C648.122 49.9659 647.999 50.1416 647.84 50.3537C647.681 50.5625 647.454 50.7498 647.159 50.9155C646.864 51.0779 646.471 51.1591 645.981 51.1591ZM646.14 50.1051C646.611 50.1051 647.008 49.9825 647.333 49.7372C647.658 49.4886 647.905 49.1456 648.074 48.7081C648.243 48.2673 648.327 47.7585 648.327 47.1818C648.327 46.6117 648.245 46.1129 648.079 45.6854C647.913 45.2545 647.668 44.9197 647.343 44.6811C647.018 44.4392 646.617 44.3182 646.14 44.3182C645.643 44.3182 645.228 44.4458 644.897 44.701C644.569 44.9529 644.322 45.2959 644.156 45.7301C643.994 46.161 643.913 46.6449 643.913 47.1818C643.913 47.7254 643.996 48.2192 644.161 48.6634C644.33 49.1042 644.579 49.4555 644.907 49.7173C645.238 49.9759 645.649 50.1051 646.14 50.1051ZM656.307 51H655.014L658.753 40.8182H660.026L663.764 51H662.472L659.429 42.429H659.349L656.307 51ZM656.784 47.0227H661.994V48.1165H656.784V47.0227ZM666.364 46.4062V51H665.191V43.3636H666.325V44.5568H666.424C666.603 44.169 666.875 43.8575 667.239 43.6222C667.604 43.3835 668.075 43.2642 668.651 43.2642C669.168 43.2642 669.621 43.3703 670.009 43.5824C670.396 43.7912 670.698 44.1094 670.913 44.5369C671.129 44.9612 671.237 45.4981 671.237 46.1477V51H670.063V46.2273C670.063 45.6274 669.907 45.16 669.596 44.8253C669.284 44.4872 668.857 44.3182 668.313 44.3182C667.939 44.3182 667.604 44.3994 667.309 44.5618C667.017 44.7242 666.787 44.9612 666.618 45.2727C666.449 45.5843 666.364 45.9621 666.364 46.4062ZM674.554 46.4062V51H673.381V43.3636H674.514V44.5568H674.613C674.792 44.169 675.064 43.8575 675.429 43.6222C675.793 43.3835 676.264 43.2642 676.841 43.2642C677.358 43.2642 677.81 43.3703 678.198 43.5824C678.586 43.7912 678.887 44.1094 679.103 44.5369C679.318 44.9612 679.426 45.4981 679.426 46.1477V51H678.253V46.2273C678.253 45.6274 678.097 45.16 677.785 44.8253C677.474 44.4872 677.046 44.3182 676.503 44.3182C676.128 44.3182 675.793 44.3994 675.498 44.5618C675.207 44.7242 674.976 44.9612 674.807 45.2727C674.638 45.5843 674.554 45.9621 674.554 46.4062ZM686.382 47.8778V43.3636H687.556V51H686.382V49.7074H686.303C686.124 50.0952 685.846 50.425 685.468 50.6967C685.09 50.9652 684.613 51.0994 684.036 51.0994C683.559 51.0994 683.134 50.995 682.763 50.7862C682.392 50.5741 682.1 50.2559 681.888 49.8317C681.676 49.4041 681.57 48.8655 681.57 48.2159V43.3636H682.743V48.1364C682.743 48.6932 682.899 49.1373 683.211 49.4688C683.525 49.8002 683.926 49.9659 684.414 49.9659C684.705 49.9659 685.002 49.8913 685.304 49.7422C685.609 49.593 685.864 49.3643 686.069 49.0561C686.278 48.7479 686.382 48.3551 686.382 47.8778ZM691.952 51.179C691.468 51.179 691.029 51.0878 690.634 50.9055C690.24 50.7199 689.927 50.4531 689.695 50.1051C689.463 49.7538 689.347 49.3295 689.347 48.8324C689.347 48.3949 689.433 48.0402 689.605 47.7685C689.778 47.4934 690.008 47.2779 690.296 47.1222C690.585 46.9664 690.903 46.8504 691.251 46.7741C691.602 46.6946 691.955 46.6316 692.31 46.5852C692.774 46.5256 693.15 46.4808 693.438 46.451C693.73 46.4179 693.942 46.3632 694.075 46.2869C694.211 46.2107 694.279 46.0781 694.279 45.8892V45.8494C694.279 45.3589 694.144 44.9777 693.876 44.706C693.611 44.4342 693.208 44.2983 692.668 44.2983C692.108 44.2983 691.669 44.4209 691.35 44.6662C691.032 44.9115 690.808 45.1733 690.679 45.4517L689.566 45.054C689.764 44.59 690.03 44.2287 690.361 43.9702C690.696 43.7083 691.06 43.526 691.455 43.4233C691.852 43.3172 692.244 43.2642 692.628 43.2642C692.873 43.2642 693.155 43.294 693.473 43.3537C693.795 43.41 694.105 43.5277 694.403 43.7067C694.704 43.8857 694.955 44.1558 695.154 44.517C695.352 44.8783 695.452 45.3622 695.452 45.9688V51H694.279V49.9659H694.219C694.139 50.1316 694.007 50.3089 693.821 50.4979C693.636 50.6868 693.389 50.8475 693.08 50.9801C692.772 51.1127 692.396 51.179 691.952 51.179ZM692.131 50.125C692.595 50.125 692.986 50.0339 693.304 49.8516C693.626 49.6693 693.868 49.4339 694.03 49.1456C694.196 48.8572 694.279 48.554 694.279 48.2358V47.1619C694.229 47.2216 694.119 47.2763 693.95 47.326C693.785 47.3724 693.593 47.4138 693.374 47.4503C693.158 47.4834 692.948 47.5133 692.742 47.5398C692.54 47.563 692.376 47.5829 692.25 47.5994C691.945 47.6392 691.66 47.7038 691.395 47.7933C691.133 47.8795 690.921 48.0104 690.759 48.1861C690.6 48.3584 690.52 48.5937 690.52 48.892C690.52 49.2997 690.671 49.608 690.972 49.8168C691.277 50.0223 691.664 50.125 692.131 50.125ZM698.767 40.8182V51H697.593V40.8182H698.767ZM702.089 40.8182V51H700.916V40.8182H702.089ZM704.994 53.8636C704.795 53.8636 704.617 53.8471 704.462 53.8139C704.306 53.7841 704.198 53.7543 704.138 53.7244L704.437 52.6903C704.722 52.7633 704.974 52.7898 705.192 52.7699C705.411 52.75 705.605 52.6522 705.774 52.4766C705.946 52.3042 706.104 52.0241 706.246 51.6364L706.465 51.0398L703.641 43.3636H704.914L707.022 49.4489H707.102L709.21 43.3636H710.482L707.241 52.1136C707.095 52.508 706.914 52.8345 706.699 53.093C706.483 53.3549 706.233 53.5488 705.948 53.6747C705.666 53.8007 705.348 53.8636 704.994 53.8636Z" fill="black"/>
<path d="M494 186.5C494 190.642 490.194 194 485.5 194C480.806 194 477 190.642 477 186.5C477 182.358 480.806 179 485.5 179C490.194 179 494 182.358 494 186.5Z" fill="black"/>
<ellipse cx="532.5" cy="257.5" rx="8.5" ry="7.5" fill="black"/>
<ellipse cx="760.5" cy="115.5" rx="8.5" ry="7.5" fill="black"/>
<path d="M438.81 262.139C438.153 262.139 437.569 262.027 437.055 261.801C436.544 261.576 436.138 261.263 435.837 260.862C435.538 260.457 435.376 259.988 435.35 259.455H436.602C436.629 259.783 436.742 260.066 436.94 260.305C437.139 260.54 437.399 260.722 437.721 260.852C438.042 260.981 438.399 261.045 438.79 261.045C439.227 261.045 439.615 260.969 439.953 260.817C440.291 260.664 440.556 260.452 440.749 260.18C440.941 259.909 441.037 259.594 441.037 259.236C441.037 258.861 440.944 258.531 440.759 258.246C440.573 257.958 440.301 257.733 439.943 257.57C439.585 257.408 439.148 257.327 438.631 257.327H437.815V256.233H438.631C439.035 256.233 439.39 256.16 439.695 256.014C440.003 255.868 440.243 255.663 440.416 255.398C440.591 255.133 440.679 254.821 440.679 254.463C440.679 254.118 440.603 253.818 440.45 253.563C440.298 253.308 440.082 253.109 439.804 252.967C439.529 252.824 439.204 252.753 438.83 252.753C438.478 252.753 438.147 252.817 437.835 252.947C437.527 253.073 437.275 253.257 437.08 253.499C436.884 253.737 436.778 254.026 436.761 254.364H435.568C435.588 253.83 435.749 253.363 436.051 252.962C436.352 252.557 436.747 252.242 437.234 252.017C437.724 251.792 438.263 251.679 438.85 251.679C439.479 251.679 440.02 251.807 440.47 252.062C440.921 252.314 441.267 252.647 441.509 253.061C441.751 253.475 441.872 253.923 441.872 254.403C441.872 254.977 441.721 255.466 441.42 255.87C441.122 256.274 440.716 256.554 440.202 256.71V256.79C440.845 256.896 441.347 257.169 441.708 257.61C442.069 258.048 442.25 258.589 442.25 259.236C442.25 259.789 442.099 260.286 441.798 260.727C441.499 261.165 441.092 261.509 440.575 261.761C440.058 262.013 439.469 262.139 438.81 262.139ZM444.462 251.818H445.934L449.394 260.27H449.514L452.974 251.818H454.445V262H453.292V254.264H453.193L450.011 262H448.897L445.715 254.264H445.616V262H444.462V251.818Z" fill="black"/>
<path d="M431.777 182.818V193H430.544V184.111H430.484L427.999 185.761V184.509L430.544 182.818H431.777ZM438.026 193.139C437.277 193.139 436.639 192.935 436.112 192.528C435.585 192.117 435.183 191.522 434.904 190.743C434.626 189.961 434.487 189.016 434.487 187.909C434.487 186.809 434.626 185.869 434.904 185.09C435.186 184.308 435.59 183.711 436.117 183.3C436.648 182.886 437.284 182.679 438.026 182.679C438.769 182.679 439.403 182.886 439.93 183.3C440.461 183.711 440.865 184.308 441.144 185.09C441.425 185.869 441.566 186.809 441.566 187.909C441.566 189.016 441.427 189.961 441.149 190.743C440.87 191.522 440.467 192.117 439.94 192.528C439.413 192.935 438.775 193.139 438.026 193.139ZM438.026 192.045C438.769 192.045 439.345 191.687 439.756 190.972C440.167 190.256 440.373 189.235 440.373 187.909C440.373 187.027 440.278 186.277 440.09 185.657C439.904 185.037 439.636 184.565 439.284 184.24C438.936 183.915 438.517 183.753 438.026 183.753C437.291 183.753 436.716 184.116 436.301 184.842C435.887 185.564 435.68 186.587 435.68 187.909C435.68 188.791 435.773 189.54 435.958 190.156C436.144 190.773 436.411 191.242 436.759 191.563C437.11 191.885 437.533 192.045 438.026 192.045ZM443.634 182.818H445.106L448.566 191.27H448.685L452.146 182.818H453.617V193H452.464V185.264H452.364L449.183 193H448.069L444.887 185.264H444.788V193H443.634V182.818Z" fill="black"/>
<path d="M427.213 121V120.105L430.574 116.426C430.968 115.995 431.293 115.621 431.548 115.303C431.804 114.981 431.993 114.679 432.115 114.398C432.241 114.113 432.304 113.814 432.304 113.503C432.304 113.145 432.218 112.835 432.046 112.573C431.877 112.311 431.645 112.109 431.35 111.967C431.055 111.824 430.723 111.753 430.355 111.753C429.964 111.753 429.623 111.834 429.331 111.996C429.043 112.156 428.819 112.379 428.66 112.668C428.504 112.956 428.426 113.294 428.426 113.682H427.253C427.253 113.085 427.39 112.562 427.666 112.111C427.941 111.66 428.315 111.309 428.789 111.057C429.266 110.805 429.802 110.679 430.395 110.679C430.992 110.679 431.52 110.805 431.981 111.057C432.442 111.309 432.803 111.648 433.065 112.076C433.327 112.504 433.457 112.979 433.457 113.503C433.457 113.877 433.39 114.244 433.254 114.602C433.121 114.956 432.889 115.352 432.558 115.79C432.229 116.224 431.774 116.754 431.19 117.381L428.903 119.827V119.906H433.636V121H427.213ZM439.011 121.139C438.262 121.139 437.624 120.935 437.097 120.528C436.57 120.117 436.167 119.522 435.889 118.743C435.61 117.961 435.471 117.016 435.471 115.909C435.471 114.809 435.61 113.869 435.889 113.09C436.17 112.308 436.575 111.711 437.102 111.3C437.632 110.886 438.268 110.679 439.011 110.679C439.753 110.679 440.388 110.886 440.915 111.3C441.445 111.711 441.85 112.308 442.128 113.09C442.41 113.869 442.551 114.809 442.551 115.909C442.551 117.016 442.411 117.961 442.133 118.743C441.854 119.522 441.452 120.117 440.925 120.528C440.398 120.935 439.76 121.139 439.011 121.139ZM439.011 120.045C439.753 120.045 440.33 119.687 440.741 118.972C441.152 118.256 441.357 117.235 441.357 115.909C441.357 115.027 441.263 114.277 441.074 113.657C440.888 113.037 440.62 112.565 440.269 112.24C439.921 111.915 439.501 111.753 439.011 111.753C438.275 111.753 437.7 112.116 437.286 112.842C436.871 113.564 436.664 114.587 436.664 115.909C436.664 116.791 436.757 117.54 436.943 118.156C437.128 118.773 437.395 119.242 437.743 119.563C438.094 119.885 438.517 120.045 439.011 120.045ZM444.619 110.818H446.09L449.551 119.27H449.67L453.13 110.818H454.602V121H453.448V113.264H453.349L450.167 121H449.053L445.872 113.264H445.772V121H444.619V110.818Z" fill="black"/>
<path d="M477.375 335.139C476.626 335.139 475.988 334.935 475.461 334.528C474.934 334.117 474.531 333.522 474.253 332.743C473.974 331.961 473.835 331.016 473.835 329.909C473.835 328.809 473.974 327.869 474.253 327.09C474.535 326.308 474.939 325.711 475.466 325.3C475.996 324.886 476.633 324.679 477.375 324.679C478.117 324.679 478.752 324.886 479.279 325.3C479.809 325.711 480.214 326.308 480.492 327.09C480.774 327.869 480.915 328.809 480.915 329.909C480.915 331.016 480.776 331.961 480.497 332.743C480.219 333.522 479.816 334.117 479.289 334.528C478.762 334.935 478.124 335.139 477.375 335.139ZM477.375 334.045C478.117 334.045 478.694 333.687 479.105 332.972C479.516 332.256 479.722 331.235 479.722 329.909C479.722 329.027 479.627 328.277 479.438 327.657C479.253 327.037 478.984 326.565 478.633 326.24C478.285 325.915 477.866 325.753 477.375 325.753C476.639 325.753 476.064 326.116 475.65 326.842C475.236 327.564 475.028 328.587 475.028 329.909C475.028 330.791 475.121 331.54 475.307 332.156C475.492 332.773 475.759 333.242 476.107 333.563C476.459 333.885 476.881 334.045 477.375 334.045Z" fill="black"/>
<path d="M529.634 324.818V335H528.401V326.111H528.341L525.855 327.761V326.509L528.401 324.818H529.634ZM535.883 335.139C535.134 335.139 534.496 334.935 533.969 334.528C533.442 334.117 533.039 333.522 532.761 332.743C532.482 331.961 532.343 331.016 532.343 329.909C532.343 328.809 532.482 327.869 532.761 327.09C533.042 326.308 533.447 325.711 533.974 325.3C534.504 324.886 535.14 324.679 535.883 324.679C536.625 324.679 537.26 324.886 537.787 325.3C538.317 325.711 538.722 326.308 539 327.09C539.282 327.869 539.423 328.809 539.423 329.909C539.423 331.016 539.283 331.961 539.005 332.743C538.727 333.522 538.324 334.117 537.797 334.528C537.27 334.935 536.632 335.139 535.883 335.139ZM535.883 334.045C536.625 334.045 537.202 333.687 537.613 332.972C538.024 332.256 538.229 331.235 538.229 329.909C538.229 329.027 538.135 328.277 537.946 327.657C537.76 327.037 537.492 326.565 537.141 326.24C536.793 325.915 536.373 325.753 535.883 325.753C535.147 325.753 534.572 326.116 534.158 326.842C533.743 327.564 533.536 328.587 533.536 329.909C533.536 330.791 533.629 331.54 533.815 332.156C534 332.773 534.267 333.242 534.615 333.563C534.966 333.885 535.389 334.045 535.883 334.045Z" fill="black"/>
<path d="M760.634 324.818V335H759.401V326.111H759.341L756.855 327.761V326.509L759.401 324.818H760.634ZM766.883 335.139C766.134 335.139 765.496 334.935 764.969 334.528C764.442 334.117 764.039 333.522 763.761 332.743C763.482 331.961 763.343 331.016 763.343 329.909C763.343 328.809 763.482 327.869 763.761 327.09C764.042 326.308 764.447 325.711 764.974 325.3C765.504 324.886 766.14 324.679 766.883 324.679C767.625 324.679 768.26 324.886 768.787 325.3C769.317 325.711 769.722 326.308 770 327.09C770.282 327.869 770.423 328.809 770.423 329.909C770.423 331.016 770.283 331.961 770.005 332.743C769.727 333.522 769.324 334.117 768.797 334.528C768.27 334.935 767.632 335.139 766.883 335.139ZM766.883 334.045C767.625 334.045 768.202 333.687 768.613 332.972C769.024 332.256 769.229 331.235 769.229 329.909C769.229 329.027 769.135 328.277 768.946 327.657C768.76 327.037 768.492 326.565 768.141 326.24C767.793 325.915 767.373 325.753 766.883 325.753C766.147 325.753 765.572 326.116 765.158 326.842C764.743 327.564 764.536 328.587 764.536 329.909C764.536 330.791 764.629 331.54 764.815 332.156C765 332.773 765.267 333.242 765.615 333.563C765.966 333.885 766.389 334.045 766.883 334.045ZM775.633 335.139C774.884 335.139 774.246 334.935 773.719 334.528C773.192 334.117 772.789 333.522 772.511 332.743C772.232 331.961 772.093 331.016 772.093 329.909C772.093 328.809 772.232 327.869 772.511 327.09C772.792 326.308 773.197 325.711 773.724 325.3C774.254 324.886 774.89 324.679 775.633 324.679C776.375 324.679 777.01 324.886 777.537 325.3C778.067 325.711 778.472 326.308 778.75 327.09C779.032 327.869 779.173 328.809 779.173 329.909C779.173 331.016 779.033 331.961 778.755 332.743C778.477 333.522 778.074 334.117 777.547 334.528C777.02 334.935 776.382 335.139 775.633 335.139ZM775.633 334.045C776.375 334.045 776.952 333.687 777.363 332.972C777.774 332.256 777.979 331.235 777.979 329.909C777.979 329.027 777.885 328.277 777.696 327.657C777.51 327.037 777.242 326.565 776.891 326.24C776.543 325.915 776.123 325.753 775.633 325.753C774.897 325.753 774.322 326.116 773.908 326.842C773.493 327.564 773.286 328.587 773.286 329.909C773.286 330.791 773.379 331.54 773.565 332.156C773.75 332.773 774.017 333.242 774.365 333.563C774.716 333.885 775.139 334.045 775.633 334.045ZM785.874 335.08C785.629 335.08 785.419 334.992 785.243 334.816C785.067 334.64 784.979 334.43 784.979 334.185C784.979 333.939 785.067 333.729 785.243 333.553C785.419 333.378 785.629 333.29 785.874 333.29C786.12 333.29 786.33 333.378 786.506 333.553C786.681 333.729 786.769 333.939 786.769 334.185C786.769 334.347 786.728 334.496 786.645 334.632C786.565 334.768 786.458 334.877 786.322 334.96C786.189 335.04 786.04 335.08 785.874 335.08ZM789.73 335.08C789.484 335.08 789.274 334.992 789.098 334.816C788.923 334.64 788.835 334.43 788.835 334.185C788.835 333.939 788.923 333.729 789.098 333.553C789.274 333.378 789.484 333.29 789.73 333.29C789.975 333.29 790.185 333.378 790.361 333.553C790.537 333.729 790.625 333.939 790.625 334.185C790.625 334.347 790.583 334.496 790.5 334.632C790.421 334.768 790.313 334.877 790.177 334.96C790.045 335.04 789.895 335.08 789.73 335.08ZM793.585 335.08C793.34 335.08 793.129 334.992 792.954 334.816C792.778 334.64 792.69 334.43 792.69 334.185C792.69 333.939 792.778 333.729 792.954 333.553C793.129 333.378 793.34 333.29 793.585 333.29C793.83 333.29 794.041 333.378 794.217 333.553C794.392 333.729 794.48 333.939 794.48 334.185C794.48 334.347 794.439 334.496 794.356 334.632C794.276 334.768 794.169 334.877 794.033 334.96C793.9 335.04 793.751 335.08 793.585 335.08Z" fill="black"/>
<path d="M472.5 91.5V294.5H779" stroke="black"/>
<path d="M486.5 185C481.051 209.577 499.5 259 535.5 259C605.5 259 725.336 147.713 761 115" stroke="black"/>
<path d="M545.407 195.474L547.237 198.511C543.948 200.494 542.064 202.519 541.585 204.586C541.125 206.641 541.875 209.293 543.835 212.544L550.664 223.872C552.166 226.363 553.225 228.67 553.842 230.793C554.47 232.936 554.607 234.923 554.252 236.756C553.909 238.608 553.037 240.354 551.638 241.994C550.258 243.622 548.312 245.193 545.801 246.707L543.126 242.269C545.306 240.955 546.821 239.551 547.671 238.056C548.541 236.55 548.797 234.883 548.438 233.055C548.111 231.236 547.237 229.149 545.818 226.793L538.055 213.918C537.058 212.264 536.373 210.687 535.999 209.187C535.614 207.668 535.654 206.171 536.118 204.696C536.583 203.222 537.556 201.733 539.038 200.229C540.539 198.714 542.662 197.129 545.407 195.474ZM500.742 171.966C503.253 170.452 505.55 169.465 507.635 169.005C509.738 168.533 511.689 168.577 513.487 169.139C515.274 169.681 516.967 170.729 518.569 172.285C520.158 173.821 521.704 175.835 523.206 178.326L530.035 189.654C531.995 192.905 533.991 194.807 536.023 195.36C538.074 195.901 540.744 195.18 544.034 193.197L545.864 196.233C543.12 197.888 540.727 199.025 538.686 199.645C536.664 200.254 534.893 200.419 533.373 200.142C531.852 199.864 530.516 199.211 529.364 198.18C528.2 197.13 527.119 195.778 526.122 194.124L518.36 181.248C516.94 178.893 515.496 177.136 514.028 175.978C512.579 174.808 510.992 174.265 509.265 174.351C507.547 174.405 505.597 175.089 503.417 176.404L500.742 171.966ZM544.034 193.197L547.237 198.511L540.551 202.541L537.348 197.228L544.034 193.197Z" fill="#2000E7"/>
<path d="M552.562 189H551.449L555.682 177.364H556.818L561.051 189H559.938L556.29 178.744H556.21L552.562 189ZM553.364 184.54H559.136V185.494H553.364V184.54ZM566.244 189.182C565.464 189.182 564.784 188.987 564.205 188.597C563.629 188.206 563.182 187.672 562.864 186.994C562.545 186.316 562.386 185.544 562.386 184.676C562.386 183.801 562.547 183.023 562.869 182.341C563.195 181.659 563.646 181.125 564.222 180.739C564.797 180.348 565.466 180.153 566.227 180.153C566.811 180.153 567.339 180.267 567.812 180.494C568.286 180.718 568.676 181.034 568.983 181.443C569.294 181.848 569.489 182.322 569.568 182.864H568.545C568.439 182.371 568.184 181.951 567.778 181.602C567.377 181.25 566.866 181.074 566.244 181.074C565.688 181.074 565.195 181.225 564.767 181.528C564.339 181.828 564.004 182.246 563.761 182.784C563.523 183.318 563.403 183.937 563.403 184.642C563.403 185.35 563.521 185.977 563.756 186.523C563.991 187.064 564.32 187.489 564.744 187.795C565.172 188.102 565.672 188.256 566.244 188.256C566.631 188.256 566.983 188.184 567.301 188.04C567.623 187.892 567.892 187.684 568.108 187.415C568.328 187.146 568.475 186.826 568.551 186.455H569.574C569.498 186.981 569.311 187.451 569.011 187.864C568.716 188.273 568.331 188.595 567.858 188.83C567.388 189.064 566.85 189.182 566.244 189.182ZM575.151 189.182C574.37 189.182 573.69 188.987 573.111 188.597C572.535 188.206 572.088 187.672 571.77 186.994C571.452 186.316 571.293 185.544 571.293 184.676C571.293 183.801 571.454 183.023 571.776 182.341C572.101 181.659 572.552 181.125 573.128 180.739C573.704 180.348 574.372 180.153 575.134 180.153C575.717 180.153 576.245 180.267 576.719 180.494C577.192 180.718 577.582 181.034 577.889 181.443C578.2 181.848 578.395 182.322 578.474 182.864H577.452C577.346 182.371 577.09 181.951 576.685 181.602C576.283 181.25 575.772 181.074 575.151 181.074C574.594 181.074 574.101 181.225 573.673 181.528C573.245 181.828 572.91 182.246 572.668 182.784C572.429 183.318 572.31 183.937 572.31 184.642C572.31 185.35 572.427 185.977 572.662 186.523C572.897 187.064 573.226 187.489 573.651 187.795C574.079 188.102 574.579 188.256 575.151 188.256C575.537 188.256 575.889 188.184 576.207 188.04C576.529 187.892 576.798 187.684 577.014 187.415C577.234 187.146 577.382 186.826 577.457 186.455H578.48C578.404 186.981 578.217 187.451 577.918 187.864C577.622 188.273 577.238 188.595 576.764 188.83C576.295 189.064 575.757 189.182 575.151 189.182ZM586.193 185.665V180.273H587.205V189H586.193V187.551H586.114C585.909 187.998 585.585 188.371 585.142 188.67C584.699 188.966 584.157 189.114 583.517 189.114C582.96 189.114 582.466 188.992 582.034 188.75C581.602 188.504 581.263 188.144 581.017 187.67C580.771 187.197 580.648 186.616 580.648 185.926V180.273H581.659V185.864C581.659 186.545 581.86 187.095 582.261 187.511C582.663 187.924 583.178 188.131 583.807 188.131C584.201 188.131 584.58 188.036 584.943 187.847C585.307 187.657 585.606 187.381 585.841 187.017C586.076 186.65 586.193 186.199 586.193 185.665ZM589.882 189V180.273H590.865V181.614H590.956C591.13 181.163 591.42 180.809 591.825 180.551C592.234 180.29 592.725 180.159 593.297 180.159C593.899 180.159 594.393 180.301 594.78 180.585C595.17 180.866 595.462 181.252 595.655 181.744H595.729C595.926 181.259 596.246 180.875 596.689 180.591C597.136 180.303 597.678 180.159 598.314 180.159C599.125 180.159 599.765 180.415 600.234 180.926C600.704 181.434 600.939 182.176 600.939 183.153V189H599.928V183.153C599.928 182.464 599.751 181.947 599.399 181.602C599.047 181.258 598.583 181.085 598.007 181.085C597.34 181.085 596.827 181.29 596.467 181.699C596.107 182.108 595.928 182.627 595.928 183.256V189H594.893V183.062C594.893 182.472 594.729 181.994 594.399 181.631C594.07 181.267 593.606 181.085 593.007 181.085C592.606 181.085 592.244 181.184 591.922 181.381C591.604 181.578 591.352 181.852 591.166 182.205C590.984 182.553 590.893 182.955 590.893 183.409V189H589.882ZM609.162 185.665V180.273H610.173V189H609.162V187.551H609.082C608.878 187.998 608.554 188.371 608.111 188.67C607.668 188.966 607.126 189.114 606.486 189.114C605.929 189.114 605.435 188.992 605.003 188.75C604.571 188.504 604.232 188.144 603.986 187.67C603.74 187.197 603.616 186.616 603.616 185.926V180.273H604.628V185.864C604.628 186.545 604.829 187.095 605.23 187.511C605.632 187.924 606.147 188.131 606.776 188.131C607.17 188.131 607.548 188.036 607.912 187.847C608.276 187.657 608.575 187.381 608.81 187.017C609.045 186.65 609.162 186.199 609.162 185.665ZM613.862 177.364V189H612.851V177.364H613.862ZM618.976 189.199C618.449 189.199 617.968 189.097 617.533 188.892C617.097 188.684 616.75 188.384 616.493 187.994C616.235 187.6 616.107 187.123 616.107 186.562C616.107 186.131 616.188 185.767 616.351 185.472C616.514 185.176 616.745 184.934 617.044 184.744C617.343 184.555 617.697 184.405 618.107 184.295C618.516 184.186 618.966 184.1 619.459 184.04C619.947 183.979 620.36 183.926 620.697 183.881C621.038 183.835 621.298 183.763 621.476 183.665C621.654 183.566 621.743 183.407 621.743 183.188V182.983C621.743 182.388 621.565 181.92 621.209 181.58C620.857 181.235 620.349 181.062 619.686 181.062C619.057 181.062 618.544 181.201 618.146 181.477C617.752 181.754 617.476 182.08 617.317 182.455L616.357 182.108C616.554 181.631 616.826 181.25 617.175 180.966C617.523 180.678 617.913 180.472 618.345 180.347C618.777 180.218 619.214 180.153 619.658 180.153C619.991 180.153 620.338 180.197 620.697 180.284C621.061 180.371 621.398 180.523 621.709 180.739C622.019 180.951 622.271 181.248 622.464 181.631C622.658 182.009 622.754 182.491 622.754 183.074V189H621.743V187.619H621.68C621.559 187.877 621.379 188.127 621.141 188.369C620.902 188.612 620.603 188.811 620.243 188.966C619.883 189.121 619.461 189.199 618.976 189.199ZM619.112 188.273C619.65 188.273 620.116 188.153 620.51 187.915C620.904 187.676 621.207 187.36 621.419 186.966C621.635 186.568 621.743 186.131 621.743 185.653V184.392C621.667 184.464 621.54 184.528 621.362 184.585C621.188 184.642 620.985 184.693 620.754 184.739C620.527 184.78 620.3 184.816 620.072 184.847C619.845 184.877 619.641 184.903 619.459 184.926C618.966 184.987 618.546 185.081 618.197 185.21C617.849 185.339 617.582 185.517 617.396 185.744C617.211 185.968 617.118 186.256 617.118 186.608C617.118 187.138 617.307 187.549 617.686 187.841C618.065 188.129 618.54 188.273 619.112 188.273ZM628.882 180.273V181.153H624.717V180.273H628.882ZM626.018 178.182H627.036V186.722C627.036 187.085 627.098 187.371 627.223 187.58C627.348 187.784 627.511 187.93 627.712 188.017C627.912 188.1 628.126 188.142 628.354 188.142C628.486 188.142 628.6 188.134 628.695 188.119C628.789 188.1 628.873 188.081 628.945 188.062L629.161 188.977C629.062 189.015 628.941 189.049 628.797 189.08C628.653 189.114 628.475 189.131 628.263 189.131C627.892 189.131 627.534 189.049 627.189 188.886C626.848 188.723 626.568 188.481 626.348 188.159C626.128 187.837 626.018 187.438 626.018 186.96V178.182ZM631.19 189V180.273H632.207V189H631.19ZM631.707 178.773C631.499 178.773 631.321 178.703 631.173 178.562C631.026 178.419 630.952 178.246 630.952 178.045C630.952 177.845 631.026 177.674 631.173 177.534C631.321 177.39 631.499 177.318 631.707 177.318C631.916 177.318 632.094 177.39 632.241 177.534C632.389 177.674 632.463 177.845 632.463 178.045C632.463 178.246 632.389 178.419 632.241 178.562C632.094 178.703 631.916 178.773 631.707 178.773ZM638.274 189.182C637.52 189.182 636.854 188.991 636.274 188.608C635.698 188.225 635.248 187.697 634.922 187.023C634.596 186.345 634.433 185.562 634.433 184.676C634.433 183.782 634.596 182.996 634.922 182.318C635.248 181.636 635.698 181.106 636.274 180.727C636.854 180.345 637.52 180.153 638.274 180.153C639.028 180.153 639.693 180.345 640.268 180.727C640.844 181.11 641.295 181.64 641.621 182.318C641.95 182.996 642.115 183.782 642.115 184.676C642.115 185.562 641.952 186.345 641.626 187.023C641.301 187.697 640.848 188.225 640.268 188.608C639.693 188.991 639.028 189.182 638.274 189.182ZM638.274 188.256C638.88 188.256 639.393 188.093 639.814 187.767C640.234 187.441 640.553 187.008 640.768 186.466C640.988 185.924 641.098 185.328 641.098 184.676C641.098 184.025 640.988 183.426 640.768 182.881C640.553 182.335 640.234 181.898 639.814 181.568C639.393 181.239 638.88 181.074 638.274 181.074C637.672 181.074 637.159 181.239 636.734 181.568C636.314 181.898 635.994 182.335 635.774 182.881C635.558 183.426 635.45 184.025 635.45 184.676C635.45 185.328 635.558 185.924 635.774 186.466C635.994 187.008 636.314 187.441 636.734 187.767C637.155 188.093 637.668 188.256 638.274 188.256ZM645.347 183.545V189H644.335V180.273H645.318V181.642H645.409C645.614 181.195 645.932 180.837 646.364 180.568C646.799 180.295 647.337 180.159 647.977 180.159C648.564 180.159 649.08 180.282 649.523 180.528C649.97 180.771 650.316 181.129 650.562 181.602C650.812 182.076 650.938 182.657 650.938 183.347V189H649.926V183.409C649.926 182.693 649.725 182.127 649.324 181.71C648.926 181.294 648.392 181.085 647.722 181.085C647.263 181.085 646.856 181.184 646.5 181.381C646.144 181.578 645.862 181.862 645.653 182.233C645.449 182.6 645.347 183.038 645.347 183.545ZM552.545 208V196.364H556.301C557.127 196.364 557.816 196.523 558.369 196.841C558.926 197.155 559.345 197.583 559.625 198.125C559.909 198.667 560.051 199.277 560.051 199.955C560.051 200.633 559.911 201.244 559.631 201.79C559.35 202.331 558.934 202.761 558.381 203.08C557.828 203.394 557.14 203.551 556.318 203.551H553.364V202.597H556.29C556.9 202.597 557.405 202.483 557.807 202.256C558.208 202.025 558.508 201.71 558.705 201.312C558.905 200.915 559.006 200.462 559.006 199.955C559.006 199.447 558.905 198.994 558.705 198.597C558.508 198.199 558.206 197.886 557.801 197.659C557.4 197.432 556.89 197.318 556.273 197.318H553.608V208H552.545ZM563.347 202.545V208H562.335V196.364H563.347V200.642H563.438C563.642 200.191 563.958 199.831 564.386 199.562C564.818 199.294 565.364 199.159 566.023 199.159C566.614 199.159 567.133 199.28 567.58 199.523C568.027 199.765 568.375 200.123 568.625 200.597C568.875 201.07 569 201.653 569 202.347V208H567.983V202.409C567.983 201.689 567.782 201.123 567.381 200.71C566.983 200.294 566.445 200.085 565.767 200.085C565.301 200.085 564.886 200.184 564.523 200.381C564.159 200.578 563.871 200.862 563.659 201.233C563.451 201.6 563.347 202.038 563.347 202.545ZM574.101 208.199C573.574 208.199 573.093 208.097 572.658 207.892C572.222 207.684 571.875 207.384 571.618 206.994C571.36 206.6 571.232 206.123 571.232 205.562C571.232 205.131 571.313 204.767 571.476 204.472C571.639 204.176 571.87 203.934 572.169 203.744C572.468 203.555 572.822 203.405 573.232 203.295C573.641 203.186 574.091 203.1 574.584 203.04C575.072 202.979 575.485 202.926 575.822 202.881C576.163 202.835 576.423 202.763 576.601 202.665C576.779 202.566 576.868 202.407 576.868 202.188V201.983C576.868 201.388 576.69 200.92 576.334 200.58C575.982 200.235 575.474 200.062 574.811 200.062C574.182 200.062 573.669 200.201 573.271 200.477C572.877 200.754 572.601 201.08 572.442 201.455L571.482 201.108C571.679 200.631 571.951 200.25 572.3 199.966C572.648 199.678 573.038 199.472 573.47 199.347C573.902 199.218 574.339 199.153 574.783 199.153C575.116 199.153 575.463 199.197 575.822 199.284C576.186 199.371 576.523 199.523 576.834 199.739C577.144 199.951 577.396 200.248 577.589 200.631C577.783 201.009 577.879 201.491 577.879 202.074V208H576.868V206.619H576.805C576.684 206.877 576.504 207.127 576.266 207.369C576.027 207.612 575.728 207.811 575.368 207.966C575.008 208.121 574.586 208.199 574.101 208.199ZM574.237 207.273C574.775 207.273 575.241 207.153 575.635 206.915C576.029 206.676 576.332 206.36 576.544 205.966C576.76 205.568 576.868 205.131 576.868 204.653V203.392C576.792 203.464 576.665 203.528 576.487 203.585C576.313 203.642 576.11 203.693 575.879 203.739C575.652 203.78 575.425 203.816 575.197 203.847C574.97 203.877 574.766 203.903 574.584 203.926C574.091 203.987 573.671 204.081 573.322 204.21C572.974 204.339 572.707 204.517 572.521 204.744C572.336 204.968 572.243 205.256 572.243 205.608C572.243 206.138 572.432 206.549 572.811 206.841C573.19 207.129 573.665 207.273 574.237 207.273ZM586.433 201.188L585.507 201.449C585.416 201.187 585.287 200.951 585.121 200.739C584.954 200.527 584.736 200.358 584.467 200.233C584.202 200.108 583.873 200.045 583.479 200.045C582.888 200.045 582.403 200.186 582.024 200.466C581.645 200.746 581.456 201.108 581.456 201.551C581.456 201.926 581.585 202.231 581.842 202.466C582.104 202.697 582.505 202.881 583.047 203.017L584.365 203.341C585.096 203.519 585.643 203.801 586.007 204.188C586.375 204.574 586.558 205.059 586.558 205.642C586.558 206.134 586.422 206.572 586.149 206.955C585.876 207.337 585.496 207.638 585.007 207.858C584.522 208.074 583.96 208.182 583.32 208.182C582.467 208.182 581.765 207.991 581.212 207.608C580.659 207.222 580.304 206.665 580.149 205.938L581.121 205.699C581.246 206.218 581.49 206.61 581.854 206.875C582.221 207.14 582.704 207.273 583.303 207.273C583.973 207.273 584.509 207.123 584.911 206.824C585.312 206.521 585.513 206.142 585.513 205.688C585.513 205.335 585.395 205.04 585.161 204.801C584.926 204.559 584.57 204.381 584.092 204.267L582.666 203.926C581.909 203.744 581.348 203.456 580.984 203.062C580.621 202.669 580.439 202.18 580.439 201.597C580.439 201.116 580.57 200.693 580.831 200.33C581.092 199.962 581.452 199.674 581.911 199.466C582.369 199.258 582.892 199.153 583.479 199.153C584.278 199.153 584.916 199.335 585.393 199.699C585.875 200.059 586.221 200.555 586.433 201.188ZM592.301 208.182C591.487 208.182 590.782 207.992 590.188 207.614C589.593 207.231 589.133 206.703 588.807 206.028C588.485 205.35 588.324 204.57 588.324 203.688C588.324 202.809 588.485 202.028 588.807 201.347C589.133 200.661 589.581 200.125 590.153 199.739C590.729 199.348 591.394 199.153 592.148 199.153C592.621 199.153 593.078 199.241 593.517 199.415C593.956 199.585 594.35 199.848 594.699 200.205C595.051 200.557 595.33 201.002 595.534 201.54C595.739 202.074 595.841 202.706 595.841 203.438V203.938H589.023V203.045H594.807C594.807 202.485 594.693 201.981 594.466 201.534C594.242 201.083 593.93 200.727 593.528 200.466C593.131 200.205 592.67 200.074 592.148 200.074C591.595 200.074 591.108 200.222 590.688 200.517C590.267 200.812 589.938 201.203 589.699 201.688C589.464 202.172 589.345 202.703 589.341 203.278V203.812C589.341 204.506 589.46 205.112 589.699 205.631C589.941 206.146 590.284 206.545 590.727 206.83C591.17 207.114 591.695 207.256 592.301 207.256C592.714 207.256 593.076 207.191 593.386 207.062C593.701 206.934 593.964 206.761 594.176 206.545C594.392 206.326 594.555 206.085 594.665 205.824L595.625 206.136C595.492 206.504 595.275 206.843 594.972 207.153C594.672 207.464 594.297 207.714 593.847 207.903C593.4 208.089 592.884 208.182 592.301 208.182Z" fill="black"/>
<ellipse cx="82.5" cy="115.5" rx="8.5" ry="7.5" fill="black"/>
<ellipse cx="129.5" cy="257.5" rx="8.5" ry="7.5" fill="black"/>
<ellipse cx="357.5" cy="257.5" rx="8.5" ry="7.5" fill="black"/>
<path d="M33.1282 262V261.105L36.489 257.426C36.8834 256.995 37.2082 256.621 37.4634 256.303C37.7186 255.981 37.9076 255.679 38.0302 255.398C38.1561 255.113 38.2191 254.814 38.2191 254.503C38.2191 254.145 38.1329 253.835 37.9606 253.573C37.7915 253.311 37.5595 253.109 37.2646 252.967C36.9696 252.824 36.6381 252.753 36.2702 252.753C35.8791 252.753 35.5378 252.834 35.2461 252.996C34.9577 253.156 34.734 253.379 34.5749 253.668C34.4192 253.956 34.3413 254.294 34.3413 254.682H33.168C33.168 254.085 33.3055 253.562 33.5806 253.111C33.8557 252.66 34.2302 252.309 34.7042 252.057C35.1815 251.805 35.7167 251.679 36.31 251.679C36.9066 251.679 37.4353 251.805 37.896 252.057C38.3567 252.309 38.7179 252.648 38.9798 253.076C39.2416 253.504 39.3725 253.979 39.3725 254.503C39.3725 254.877 39.3046 255.244 39.1687 255.602C39.0361 255.956 38.8041 256.352 38.4727 256.79C38.1445 257.224 37.6888 257.754 37.1055 258.381L34.8185 260.827V260.906H39.5515V262H33.1282ZM46.7951 260.091V259.554C46.7951 259.183 46.8713 258.843 47.0238 258.535C47.1796 258.223 47.4049 257.975 47.6999 257.789C47.9982 257.6 48.3595 257.506 48.7837 257.506C49.2146 257.506 49.5759 257.6 49.8675 257.789C50.1592 257.975 50.3796 258.223 50.5288 258.535C50.6779 258.843 50.7525 259.183 50.7525 259.554V260.091C50.7525 260.462 50.6763 260.804 50.5238 261.115C50.3746 261.423 50.1526 261.672 49.8576 261.861C49.5659 262.046 49.208 262.139 48.7837 262.139C48.3529 262.139 47.9899 262.046 47.695 261.861C47.4 261.672 47.1763 261.423 47.0238 261.115C46.8713 260.804 46.7951 260.462 46.7951 260.091ZM47.8093 259.554V260.091C47.8093 260.399 47.8822 260.676 48.0281 260.921C48.1739 261.163 48.4258 261.284 48.7837 261.284C49.1317 261.284 49.377 261.163 49.5195 260.921C49.6654 260.676 49.7383 260.399 49.7383 260.091V259.554C49.7383 259.246 49.6687 258.971 49.5295 258.729C49.3903 258.483 49.1417 258.361 48.7837 258.361C48.4357 258.361 48.1855 258.483 48.033 258.729C47.8839 258.971 47.8093 259.246 47.8093 259.554ZM41.7241 254.264V253.727C41.7241 253.356 41.8003 253.016 41.9528 252.708C42.1085 252.397 42.3339 252.148 42.6289 251.962C42.9272 251.773 43.2885 251.679 43.7127 251.679C44.1436 251.679 44.5049 251.773 44.7965 251.962C45.0882 252.148 45.3086 252.397 45.4577 252.708C45.6069 253.016 45.6815 253.356 45.6815 253.727V254.264C45.6815 254.635 45.6052 254.977 45.4528 255.288C45.3036 255.597 45.0816 255.845 44.7866 256.034C44.4949 256.22 44.137 256.312 43.7127 256.312C43.2818 256.312 42.9189 256.22 42.6239 256.034C42.329 255.845 42.1052 255.597 41.9528 255.288C41.8003 254.977 41.7241 254.635 41.7241 254.264ZM42.7383 253.727V254.264C42.7383 254.572 42.8112 254.849 42.957 255.094C43.1029 255.336 43.3548 255.457 43.7127 255.457C44.0607 255.457 44.306 255.336 44.4485 255.094C44.5943 254.849 44.6673 254.572 44.6673 254.264V253.727C44.6673 253.419 44.5977 253.144 44.4585 252.902C44.3192 252.657 44.0707 252.534 43.7127 252.534C43.3647 252.534 43.1145 252.657 42.962 252.902C42.8129 253.144 42.7383 253.419 42.7383 253.727ZM42.1019 262L49.1019 251.818H50.2354L43.2354 262H42.1019Z" fill="black"/>
<path d="M29.8171 111.818V122H28.5842V113.111H28.5245L26.0387 114.761V113.509L28.5842 111.818H29.8171ZM36.0664 122.139C35.3174 122.139 34.6793 121.935 34.1523 121.528C33.6254 121.117 33.2227 120.522 32.9442 119.743C32.6658 118.961 32.5266 118.016 32.5266 116.909C32.5266 115.809 32.6658 114.869 32.9442 114.09C33.226 113.308 33.6303 112.711 34.1573 112.3C34.6876 111.886 35.324 111.679 36.0664 111.679C36.8088 111.679 37.4435 111.886 37.9705 112.3C38.5008 112.711 38.9052 113.308 39.1836 114.09C39.4653 114.869 39.6062 115.809 39.6062 116.909C39.6062 118.016 39.467 118.961 39.1886 119.743C38.9102 120.522 38.5075 121.117 37.9805 121.528C37.4535 121.935 36.8155 122.139 36.0664 122.139ZM36.0664 121.045C36.8088 121.045 37.3855 120.687 37.7965 119.972C38.2075 119.256 38.413 118.235 38.413 116.909C38.413 116.027 38.3185 115.277 38.1296 114.657C37.944 114.037 37.6755 113.565 37.3242 113.24C36.9762 112.915 36.5569 112.753 36.0664 112.753C35.3306 112.753 34.7556 113.116 34.3413 113.842C33.927 114.564 33.7198 115.587 33.7198 116.909C33.7198 117.791 33.8126 118.54 33.9982 119.156C34.1838 119.773 34.4506 120.242 34.7987 120.563C35.15 120.885 35.5726 121.045 36.0664 121.045ZM46.6857 120.091V119.554C46.6857 119.183 46.762 118.843 46.9144 118.535C47.0702 118.223 47.2956 117.975 47.5906 117.789C47.8888 117.6 48.2501 117.506 48.6744 117.506C49.1052 117.506 49.4665 117.6 49.7582 117.789C50.0498 117.975 50.2702 118.223 50.4194 118.535C50.5685 118.843 50.6431 119.183 50.6431 119.554V120.091C50.6431 120.462 50.5669 120.804 50.4144 121.115C50.2653 121.423 50.0432 121.672 49.7482 121.861C49.4566 122.046 49.0986 122.139 48.6744 122.139C48.2435 122.139 47.8806 122.046 47.5856 121.861C47.2906 121.672 47.0669 121.423 46.9144 121.115C46.762 120.804 46.6857 120.462 46.6857 120.091ZM47.6999 119.554V120.091C47.6999 120.399 47.7728 120.676 47.9187 120.921C48.0645 121.163 48.3164 121.284 48.6744 121.284C49.0224 121.284 49.2676 121.163 49.4102 120.921C49.556 120.676 49.6289 120.399 49.6289 120.091V119.554C49.6289 119.246 49.5593 118.971 49.4201 118.729C49.2809 118.483 49.0323 118.361 48.6744 118.361C48.3263 118.361 48.0761 118.483 47.9237 118.729C47.7745 118.971 47.6999 119.246 47.6999 119.554ZM41.6147 114.264V113.727C41.6147 113.356 41.6909 113.016 41.8434 112.708C41.9992 112.397 42.2246 112.148 42.5195 111.962C42.8178 111.773 43.1791 111.679 43.6033 111.679C44.0342 111.679 44.3955 111.773 44.6871 111.962C44.9788 112.148 45.1992 112.397 45.3484 112.708C45.4975 113.016 45.5721 113.356 45.5721 113.727V114.264C45.5721 114.635 45.4959 114.977 45.3434 115.288C45.1942 115.597 44.9722 115.845 44.6772 116.034C44.3855 116.22 44.0276 116.312 43.6033 116.312C43.1725 116.312 42.8095 116.22 42.5146 116.034C42.2196 115.845 41.9959 115.597 41.8434 115.288C41.6909 114.977 41.6147 114.635 41.6147 114.264ZM42.6289 113.727V114.264C42.6289 114.572 42.7018 114.849 42.8477 115.094C42.9935 115.336 43.2454 115.457 43.6033 115.457C43.9513 115.457 44.1966 115.336 44.3391 115.094C44.485 114.849 44.5579 114.572 44.5579 114.264V113.727C44.5579 113.419 44.4883 113.144 44.3491 112.902C44.2099 112.657 43.9613 112.534 43.6033 112.534C43.2553 112.534 43.0051 112.657 42.8526 112.902C42.7035 113.144 42.6289 113.419 42.6289 113.727ZM41.9925 122L48.9925 111.818H50.1261L43.1261 122H41.9925Z" fill="black"/>
<path d="M74.375 335.139C73.6259 335.139 72.9879 334.935 72.4609 334.528C71.9339 334.117 71.5313 333.522 71.2528 332.743C70.9744 331.961 70.8352 331.016 70.8352 329.909C70.8352 328.809 70.9744 327.869 71.2528 327.09C71.5346 326.308 71.9389 325.711 72.4659 325.3C72.9962 324.886 73.6326 324.679 74.375 324.679C75.1174 324.679 75.7521 324.886 76.2791 325.3C76.8094 325.711 77.2138 326.308 77.4922 327.09C77.7739 327.869 77.9148 328.809 77.9148 329.909C77.9148 331.016 77.7756 331.961 77.4972 332.743C77.2188 333.522 76.8161 334.117 76.2891 334.528C75.7621 334.935 75.1241 335.139 74.375 335.139ZM74.375 334.045C75.1174 334.045 75.6941 333.687 76.1051 332.972C76.5161 332.256 76.7216 331.235 76.7216 329.909C76.7216 329.027 76.6271 328.277 76.4382 327.657C76.2526 327.037 75.9841 326.565 75.6328 326.24C75.2848 325.915 74.8655 325.753 74.375 325.753C73.6392 325.753 73.0642 326.116 72.6499 326.842C72.2356 327.564 72.0284 328.587 72.0284 329.909C72.0284 330.791 72.1212 331.54 72.3068 332.156C72.4924 332.773 72.7592 333.242 73.1072 333.563C73.4586 333.885 73.8812 334.045 74.375 334.045Z" fill="black"/>
<path d="M126.634 324.818V335H125.401V326.111H125.341L122.855 327.761V326.509L125.401 324.818H126.634ZM132.883 335.139C132.134 335.139 131.496 334.935 130.969 334.528C130.442 334.117 130.039 333.522 129.761 332.743C129.482 331.961 129.343 331.016 129.343 329.909C129.343 328.809 129.482 327.869 129.761 327.09C130.042 326.308 130.447 325.711 130.974 325.3C131.504 324.886 132.14 324.679 132.883 324.679C133.625 324.679 134.26 324.886 134.787 325.3C135.317 325.711 135.722 326.308 136 327.09C136.282 327.869 136.423 328.809 136.423 329.909C136.423 331.016 136.283 331.961 136.005 332.743C135.727 333.522 135.324 334.117 134.797 334.528C134.27 334.935 133.632 335.139 132.883 335.139ZM132.883 334.045C133.625 334.045 134.202 333.687 134.613 332.972C135.024 332.256 135.229 331.235 135.229 329.909C135.229 329.027 135.135 328.277 134.946 327.657C134.76 327.037 134.492 326.565 134.141 326.24C133.793 325.915 133.373 325.753 132.883 325.753C132.147 325.753 131.572 326.116 131.158 326.842C130.743 327.564 130.536 328.587 130.536 329.909C130.536 330.791 130.629 331.54 130.815 332.156C131 332.773 131.267 333.242 131.615 333.563C131.966 333.885 132.389 334.045 132.883 334.045Z" fill="black"/>
<path d="M349.634 324.818V335H348.401V326.111H348.341L345.855 327.761V326.509L348.401 324.818H349.634ZM355.883 335.139C355.134 335.139 354.496 334.935 353.969 334.528C353.442 334.117 353.039 333.522 352.761 332.743C352.482 331.961 352.343 331.016 352.343 329.909C352.343 328.809 352.482 327.869 352.761 327.09C353.042 326.308 353.447 325.711 353.974 325.3C354.504 324.886 355.14 324.679 355.883 324.679C356.625 324.679 357.26 324.886 357.787 325.3C358.317 325.711 358.722 326.308 359 327.09C359.282 327.869 359.423 328.809 359.423 329.909C359.423 331.016 359.283 331.961 359.005 332.743C358.727 333.522 358.324 334.117 357.797 334.528C357.27 334.935 356.632 335.139 355.883 335.139ZM355.883 334.045C356.625 334.045 357.202 333.687 357.613 332.972C358.024 332.256 358.229 331.235 358.229 329.909C358.229 329.027 358.135 328.277 357.946 327.657C357.76 327.037 357.492 326.565 357.141 326.24C356.793 325.915 356.373 325.753 355.883 325.753C355.147 325.753 354.572 326.116 354.158 326.842C353.743 327.564 353.536 328.587 353.536 329.909C353.536 330.791 353.629 331.54 353.815 332.156C354 332.773 354.267 333.242 354.615 333.563C354.966 333.885 355.389 334.045 355.883 334.045ZM364.633 335.139C363.884 335.139 363.246 334.935 362.719 334.528C362.192 334.117 361.789 333.522 361.511 332.743C361.232 331.961 361.093 331.016 361.093 329.909C361.093 328.809 361.232 327.869 361.511 327.09C361.792 326.308 362.197 325.711 362.724 325.3C363.254 324.886 363.89 324.679 364.633 324.679C365.375 324.679 366.01 324.886 366.537 325.3C367.067 325.711 367.472 326.308 367.75 327.09C368.032 327.869 368.173 328.809 368.173 329.909C368.173 331.016 368.033 331.961 367.755 332.743C367.477 333.522 367.074 334.117 366.547 334.528C366.02 334.935 365.382 335.139 364.633 335.139ZM364.633 334.045C365.375 334.045 365.952 333.687 366.363 332.972C366.774 332.256 366.979 331.235 366.979 329.909C366.979 329.027 366.885 328.277 366.696 327.657C366.51 327.037 366.242 326.565 365.891 326.24C365.543 325.915 365.123 325.753 364.633 325.753C363.897 325.753 363.322 326.116 362.908 326.842C362.493 327.564 362.286 328.587 362.286 329.909C362.286 330.791 362.379 331.54 362.565 332.156C362.75 332.773 363.017 333.242 363.365 333.563C363.716 333.885 364.139 334.045 364.633 334.045ZM374.874 335.08C374.629 335.08 374.419 334.992 374.243 334.816C374.067 334.64 373.979 334.43 373.979 334.185C373.979 333.939 374.067 333.729 374.243 333.553C374.419 333.378 374.629 333.29 374.874 333.29C375.12 333.29 375.33 333.378 375.506 333.553C375.681 333.729 375.769 333.939 375.769 334.185C375.769 334.347 375.728 334.496 375.645 334.632C375.565 334.768 375.458 334.877 375.322 334.96C375.189 335.04 375.04 335.08 374.874 335.08ZM378.73 335.08C378.484 335.08 378.274 334.992 378.098 334.816C377.923 334.64 377.835 334.43 377.835 334.185C377.835 333.939 377.923 333.729 378.098 333.553C378.274 333.378 378.484 333.29 378.73 333.29C378.975 333.29 379.185 333.378 379.361 333.553C379.537 333.729 379.625 333.939 379.625 334.185C379.625 334.347 379.583 334.496 379.5 334.632C379.421 334.768 379.313 334.877 379.177 334.96C379.045 335.04 378.895 335.08 378.73 335.08ZM382.585 335.08C382.34 335.08 382.129 334.992 381.954 334.816C381.778 334.64 381.69 334.43 381.69 334.185C381.69 333.939 381.778 333.729 381.954 333.553C382.129 333.378 382.34 333.29 382.585 333.29C382.83 333.29 383.041 333.378 383.217 333.553C383.392 333.729 383.48 333.939 383.48 334.185C383.48 334.347 383.439 334.496 383.356 334.632C383.276 334.768 383.169 334.877 383.033 334.96C382.9 335.04 382.751 335.08 382.585 335.08Z" fill="black"/>
<path d="M69.5 91.5V294.5H376" stroke="black"/>
<path d="M86 119.5L131 256.5H358.5" stroke="black"/>
<path d="M158.731 348.818H160.143L162.967 353.571H163.086L165.91 348.818H167.322L163.643 354.804V359H162.41V354.804L158.731 348.818ZM170.879 359.159C170.143 359.159 169.509 358.997 168.975 358.672C168.445 358.344 168.035 357.886 167.747 357.3C167.462 356.71 167.319 356.024 167.319 355.241C167.319 354.459 167.462 353.77 167.747 353.173C168.035 352.573 168.436 352.106 168.95 351.771C169.467 351.433 170.07 351.264 170.76 351.264C171.157 351.264 171.55 351.33 171.938 351.463C172.326 351.596 172.679 351.811 172.997 352.109C173.315 352.404 173.569 352.795 173.758 353.283C173.947 353.77 174.041 354.37 174.041 355.082V355.58H168.155V354.565H172.848C172.848 354.134 172.762 353.75 172.589 353.412C172.42 353.074 172.178 352.807 171.863 352.612C171.552 352.416 171.184 352.318 170.76 352.318C170.292 352.318 169.888 352.434 169.547 352.666C169.209 352.895 168.948 353.193 168.766 353.561C168.584 353.929 168.493 354.323 168.493 354.744V355.42C168.493 355.997 168.592 356.486 168.791 356.887C168.993 357.285 169.273 357.588 169.631 357.797C169.989 358.002 170.405 358.105 170.879 358.105C171.187 358.105 171.466 358.062 171.714 357.976C171.966 357.886 172.183 357.754 172.366 357.578C172.548 357.399 172.689 357.177 172.788 356.912L173.922 357.23C173.802 357.615 173.602 357.953 173.32 358.244C173.038 358.533 172.69 358.758 172.276 358.92C171.862 359.08 171.396 359.159 170.879 359.159ZM178.073 359.179C177.589 359.179 177.15 359.088 176.756 358.906C176.361 358.72 176.048 358.453 175.816 358.105C175.584 357.754 175.468 357.33 175.468 356.832C175.468 356.395 175.554 356.04 175.726 355.768C175.899 355.493 176.129 355.278 176.417 355.122C176.706 354.966 177.024 354.85 177.372 354.774C177.723 354.695 178.076 354.632 178.431 354.585C178.895 354.526 179.271 354.481 179.559 354.451C179.851 354.418 180.063 354.363 180.196 354.287C180.332 354.211 180.4 354.078 180.4 353.889V353.849C180.4 353.359 180.265 352.978 179.997 352.706C179.732 352.434 179.329 352.298 178.789 352.298C178.229 352.298 177.79 352.421 177.471 352.666C177.153 352.911 176.93 353.173 176.8 353.452L175.687 353.054C175.885 352.59 176.151 352.229 176.482 351.97C176.817 351.708 177.181 351.526 177.576 351.423C177.974 351.317 178.365 351.264 178.749 351.264C178.994 351.264 179.276 351.294 179.594 351.354C179.916 351.41 180.226 351.528 180.524 351.707C180.826 351.886 181.076 352.156 181.275 352.517C181.474 352.878 181.573 353.362 181.573 353.969V359H180.4V357.966H180.34C180.26 358.132 180.128 358.309 179.942 358.498C179.757 358.687 179.51 358.848 179.202 358.98C178.893 359.113 178.517 359.179 178.073 359.179ZM178.252 358.125C178.716 358.125 179.107 358.034 179.425 357.852C179.747 357.669 179.989 357.434 180.151 357.146C180.317 356.857 180.4 356.554 180.4 356.236V355.162C180.35 355.222 180.241 355.276 180.072 355.326C179.906 355.372 179.714 355.414 179.495 355.45C179.279 355.483 179.069 355.513 178.863 355.54C178.661 355.563 178.497 355.583 178.371 355.599C178.066 355.639 177.781 355.704 177.516 355.793C177.254 355.879 177.042 356.01 176.88 356.186C176.721 356.358 176.641 356.594 176.641 356.892C176.641 357.3 176.792 357.608 177.094 357.817C177.398 358.022 177.785 358.125 178.252 358.125ZM183.714 359V351.364H184.848V352.517H184.928C185.067 352.139 185.319 351.833 185.683 351.597C186.048 351.362 186.459 351.244 186.916 351.244C187.002 351.244 187.11 351.246 187.239 351.249C187.369 351.253 187.466 351.258 187.533 351.264V352.457C187.493 352.447 187.402 352.433 187.259 352.413C187.12 352.389 186.973 352.378 186.817 352.378C186.446 352.378 186.114 352.456 185.822 352.612C185.534 352.764 185.305 352.976 185.136 353.248C184.971 353.516 184.888 353.823 184.888 354.168V359H183.714ZM194.333 353.074L193.279 353.372C193.212 353.196 193.115 353.026 192.985 352.86C192.859 352.691 192.687 352.552 192.468 352.442C192.249 352.333 191.969 352.278 191.628 352.278C191.161 352.278 190.771 352.386 190.46 352.602C190.151 352.814 189.997 353.084 189.997 353.412C189.997 353.704 190.103 353.934 190.316 354.103C190.528 354.272 190.859 354.413 191.31 354.526L192.443 354.804C193.126 354.97 193.635 355.223 193.97 355.565C194.304 355.903 194.472 356.339 194.472 356.872C194.472 357.31 194.346 357.701 194.094 358.045C193.845 358.39 193.497 358.662 193.05 358.861C192.602 359.06 192.082 359.159 191.489 359.159C190.71 359.159 190.065 358.99 189.555 358.652C189.044 358.314 188.721 357.82 188.585 357.17L189.699 356.892C189.805 357.303 190.006 357.611 190.301 357.817C190.599 358.022 190.988 358.125 191.469 358.125C192.016 358.125 192.45 358.009 192.771 357.777C193.096 357.542 193.259 357.26 193.259 356.932C193.259 356.667 193.166 356.445 192.98 356.266C192.795 356.083 192.51 355.947 192.125 355.858L190.852 355.56C190.153 355.394 189.639 355.137 189.311 354.789C188.986 354.438 188.824 353.999 188.824 353.472C188.824 353.041 188.945 352.66 189.187 352.328C189.432 351.997 189.765 351.737 190.186 351.548C190.61 351.359 191.091 351.264 191.628 351.264C192.384 351.264 192.977 351.43 193.408 351.761C193.842 352.093 194.15 352.53 194.333 353.074ZM205.903 351.364C205.843 350.86 205.601 350.469 205.177 350.19C204.753 349.912 204.232 349.773 203.616 349.773C203.165 349.773 202.771 349.846 202.433 349.991C202.098 350.137 201.836 350.338 201.647 350.593C201.461 350.848 201.369 351.138 201.369 351.463C201.369 351.735 201.433 351.969 201.562 352.164C201.695 352.356 201.864 352.517 202.07 352.646C202.275 352.772 202.491 352.877 202.716 352.96C202.941 353.039 203.148 353.104 203.337 353.153L204.371 353.432C204.637 353.501 204.932 353.598 205.256 353.72C205.585 353.843 205.898 354.01 206.196 354.222C206.498 354.431 206.746 354.7 206.942 355.028C207.137 355.356 207.235 355.759 207.235 356.236C207.235 356.786 207.091 357.283 206.803 357.727C206.518 358.171 206.1 358.524 205.55 358.786C205.003 359.048 204.338 359.179 203.556 359.179C202.827 359.179 202.196 359.061 201.662 358.826C201.132 358.591 200.714 358.263 200.409 357.842C200.107 357.421 199.937 356.932 199.897 356.375H201.17C201.203 356.759 201.332 357.078 201.558 357.33C201.786 357.578 202.075 357.764 202.423 357.886C202.774 358.006 203.152 358.065 203.556 358.065C204.027 358.065 204.449 357.989 204.824 357.837C205.198 357.681 205.495 357.465 205.714 357.19C205.933 356.912 206.042 356.587 206.042 356.216C206.042 355.878 205.947 355.603 205.759 355.391C205.57 355.179 205.321 355.006 205.013 354.874C204.705 354.741 204.371 354.625 204.013 354.526L202.761 354.168C201.965 353.939 201.335 353.612 200.871 353.188C200.407 352.764 200.175 352.209 200.175 351.523C200.175 350.953 200.33 350.455 200.638 350.031C200.949 349.604 201.367 349.272 201.891 349.037C202.418 348.798 203.006 348.679 203.656 348.679C204.312 348.679 204.895 348.797 205.406 349.032C205.916 349.264 206.32 349.582 206.619 349.987C206.92 350.391 207.079 350.85 207.096 351.364H205.903ZM209.103 359V351.364H210.276V359H209.103ZM209.7 350.091C209.471 350.091 209.274 350.013 209.108 349.857C208.946 349.701 208.865 349.514 208.865 349.295C208.865 349.077 208.946 348.889 209.108 348.734C209.274 348.578 209.471 348.5 209.7 348.5C209.928 348.5 210.124 348.578 210.286 348.734C210.452 348.889 210.535 349.077 210.535 349.295C210.535 349.514 210.452 349.701 210.286 349.857C210.124 350.013 209.928 350.091 209.7 350.091ZM213.599 354.406V359H212.425V351.364H213.559V352.557H213.658C213.837 352.169 214.109 351.857 214.474 351.622C214.838 351.384 215.309 351.264 215.886 351.264C216.403 351.264 216.855 351.37 217.243 351.582C217.631 351.791 217.932 352.109 218.148 352.537C218.363 352.961 218.471 353.498 218.471 354.148V359H217.298V354.227C217.298 353.627 217.142 353.16 216.83 352.825C216.519 352.487 216.091 352.318 215.548 352.318C215.173 352.318 214.838 352.399 214.543 352.562C214.252 352.724 214.021 352.961 213.852 353.273C213.683 353.584 213.599 353.962 213.599 354.406ZM223.717 359.159C223.001 359.159 222.385 358.99 221.868 358.652C221.351 358.314 220.953 357.848 220.675 357.255C220.396 356.662 220.257 355.984 220.257 355.222C220.257 354.446 220.399 353.762 220.684 353.168C220.973 352.572 221.374 352.106 221.888 351.771C222.405 351.433 223.008 351.264 223.697 351.264C224.234 351.264 224.718 351.364 225.149 351.562C225.58 351.761 225.933 352.04 226.208 352.398C226.483 352.756 226.654 353.173 226.72 353.651H225.547C225.457 353.303 225.258 352.994 224.95 352.726C224.645 352.454 224.234 352.318 223.717 352.318C223.26 352.318 222.859 352.437 222.514 352.676C222.173 352.911 221.906 353.245 221.714 353.675C221.525 354.103 221.43 354.605 221.43 355.182C221.43 355.772 221.523 356.286 221.709 356.723C221.898 357.161 222.163 357.5 222.504 357.742C222.849 357.984 223.253 358.105 223.717 358.105C224.022 358.105 224.299 358.052 224.547 357.946C224.796 357.84 225.006 357.688 225.179 357.489C225.351 357.29 225.474 357.051 225.547 356.773H226.72C226.654 357.223 226.49 357.629 226.228 357.991C225.969 358.349 225.626 358.634 225.199 358.846C224.774 359.055 224.281 359.159 223.717 359.159ZM231.637 359.159C230.901 359.159 230.266 358.997 229.733 358.672C229.202 358.344 228.793 357.886 228.505 357.3C228.22 356.71 228.077 356.024 228.077 355.241C228.077 354.459 228.22 353.77 228.505 353.173C228.793 352.573 229.194 352.106 229.708 351.771C230.225 351.433 230.828 351.264 231.518 351.264C231.915 351.264 232.308 351.33 232.696 351.463C233.084 351.596 233.437 351.811 233.755 352.109C234.073 352.404 234.327 352.795 234.515 353.283C234.704 353.77 234.799 354.37 234.799 355.082V355.58H228.912V354.565H233.606C233.606 354.134 233.519 353.75 233.347 353.412C233.178 353.074 232.936 352.807 232.621 352.612C232.31 352.416 231.942 352.318 231.518 352.318C231.05 352.318 230.646 352.434 230.305 352.666C229.966 352.895 229.706 353.193 229.524 353.561C229.342 353.929 229.251 354.323 229.251 354.744V355.42C229.251 355.997 229.35 356.486 229.549 356.887C229.751 357.285 230.031 357.588 230.389 357.797C230.747 358.002 231.163 358.105 231.637 358.105C231.945 358.105 232.224 358.062 232.472 357.976C232.724 357.886 232.941 357.754 233.123 357.578C233.306 357.399 233.447 357.177 233.546 356.912L234.68 357.23C234.56 357.615 234.36 357.953 234.078 358.244C233.796 358.533 233.448 358.758 233.034 358.92C232.62 359.08 232.154 359.159 231.637 359.159ZM240.68 359V348.818H241.913V357.906H246.646V359H240.68ZM250.643 359.179C250.159 359.179 249.72 359.088 249.326 358.906C248.931 358.72 248.618 358.453 248.386 358.105C248.154 357.754 248.038 357.33 248.038 356.832C248.038 356.395 248.124 356.04 248.297 355.768C248.469 355.493 248.699 355.278 248.988 355.122C249.276 354.966 249.594 354.85 249.942 354.774C250.294 354.695 250.647 354.632 251.001 354.585C251.465 354.526 251.841 354.481 252.13 354.451C252.421 354.418 252.634 354.363 252.766 354.287C252.902 354.211 252.97 354.078 252.97 353.889V353.849C252.97 353.359 252.836 352.978 252.567 352.706C252.302 352.434 251.899 352.298 251.359 352.298C250.799 352.298 250.36 352.421 250.042 352.666C249.724 352.911 249.5 353.173 249.371 353.452L248.257 353.054C248.456 352.59 248.721 352.229 249.052 351.97C249.387 351.708 249.752 351.526 250.146 351.423C250.544 351.317 250.935 351.264 251.319 351.264C251.565 351.264 251.846 351.294 252.165 351.354C252.486 351.41 252.796 351.528 253.094 351.707C253.396 351.886 253.646 352.156 253.845 352.517C254.044 352.878 254.143 353.362 254.143 353.969V359H252.97V357.966H252.91C252.831 358.132 252.698 358.309 252.513 358.498C252.327 358.687 252.08 358.848 251.772 358.98C251.464 359.113 251.087 359.179 250.643 359.179ZM250.822 358.125C251.286 358.125 251.677 358.034 251.996 357.852C252.317 357.669 252.559 357.434 252.721 357.146C252.887 356.857 252.97 356.554 252.97 356.236V355.162C252.92 355.222 252.811 355.276 252.642 355.326C252.476 355.372 252.284 355.414 252.065 355.45C251.85 355.483 251.639 355.513 251.434 355.54C251.232 355.563 251.068 355.583 250.942 355.599C250.637 355.639 250.352 355.704 250.086 355.793C249.825 355.879 249.613 356.01 249.45 356.186C249.291 356.358 249.211 356.594 249.211 356.892C249.211 357.3 249.362 357.608 249.664 357.817C249.969 358.022 250.355 358.125 250.822 358.125ZM261.097 355.878V351.364H262.271V359H261.097V357.707H261.018C260.839 358.095 260.56 358.425 260.183 358.697C259.805 358.965 259.327 359.099 258.751 359.099C258.273 359.099 257.849 358.995 257.478 358.786C257.107 358.574 256.815 358.256 256.603 357.832C256.391 357.404 256.285 356.866 256.285 356.216V351.364H257.458V356.136C257.458 356.693 257.614 357.137 257.925 357.469C258.24 357.8 258.641 357.966 259.129 357.966C259.42 357.966 259.717 357.891 260.018 357.742C260.323 357.593 260.579 357.364 260.784 357.056C260.993 356.748 261.097 356.355 261.097 355.878ZM265.593 354.406V359H264.42V351.364H265.553V352.557H265.653C265.831 352.169 266.103 351.857 266.468 351.622C266.832 351.384 267.303 351.264 267.88 351.264C268.397 351.264 268.849 351.37 269.237 351.582C269.625 351.791 269.926 352.109 270.142 352.537C270.357 352.961 270.465 353.498 270.465 354.148V359H269.292V354.227C269.292 353.627 269.136 353.16 268.824 352.825C268.513 352.487 268.085 352.318 267.542 352.318C267.167 352.318 266.832 352.399 266.537 352.562C266.246 352.724 266.015 352.961 265.846 353.273C265.677 353.584 265.593 353.962 265.593 354.406ZM275.711 359.159C274.995 359.159 274.379 358.99 273.862 358.652C273.345 358.314 272.947 357.848 272.669 357.255C272.39 356.662 272.251 355.984 272.251 355.222C272.251 354.446 272.394 353.762 272.679 353.168C272.967 352.572 273.368 352.106 273.882 351.771C274.399 351.433 275.002 351.264 275.691 351.264C276.228 351.264 276.712 351.364 277.143 351.562C277.574 351.761 277.927 352.04 278.202 352.398C278.477 352.756 278.648 353.173 278.714 353.651H277.541C277.451 353.303 277.252 352.994 276.944 352.726C276.639 352.454 276.228 352.318 275.711 352.318C275.254 352.318 274.853 352.437 274.508 352.676C274.167 352.911 273.9 353.245 273.708 353.675C273.519 354.103 273.424 354.605 273.424 355.182C273.424 355.772 273.517 356.286 273.703 356.723C273.892 357.161 274.157 357.5 274.498 357.742C274.843 357.984 275.247 358.105 275.711 358.105C276.016 358.105 276.293 358.052 276.542 357.946C276.79 357.84 277.001 357.688 277.173 357.489C277.345 357.29 277.468 357.051 277.541 356.773H278.714C278.648 357.223 278.484 357.629 278.222 357.991C277.963 358.349 277.62 358.634 277.193 358.846C276.769 359.055 276.275 359.159 275.711 359.159ZM281.603 354.406V359H280.429V348.818H281.603V352.557H281.702C281.881 352.162 282.15 351.849 282.507 351.617C282.869 351.382 283.349 351.264 283.949 351.264C284.47 351.264 284.925 351.369 285.316 351.577C285.708 351.783 286.011 352.099 286.226 352.527C286.445 352.951 286.554 353.491 286.554 354.148V359H285.381V354.227C285.381 353.621 285.224 353.152 284.909 352.82C284.597 352.486 284.165 352.318 283.611 352.318C283.227 352.318 282.882 352.399 282.577 352.562C282.275 352.724 282.037 352.961 281.861 353.273C281.689 353.584 281.603 353.962 281.603 354.406Z" fill="black"/>
<path d="M561.731 348.818H563.143L565.967 353.571H566.086L568.91 348.818H570.322L566.643 354.804V359H565.41V354.804L561.731 348.818ZM573.879 359.159C573.143 359.159 572.509 358.997 571.975 358.672C571.445 358.344 571.035 357.886 570.747 357.3C570.462 356.71 570.319 356.024 570.319 355.241C570.319 354.459 570.462 353.77 570.747 353.173C571.035 352.573 571.436 352.106 571.95 351.771C572.467 351.433 573.07 351.264 573.76 351.264C574.157 351.264 574.55 351.33 574.938 351.463C575.326 351.596 575.679 351.811 575.997 352.109C576.315 352.404 576.569 352.795 576.758 353.283C576.947 353.77 577.041 354.37 577.041 355.082V355.58H571.155V354.565H575.848C575.848 354.134 575.762 353.75 575.589 353.412C575.42 353.074 575.178 352.807 574.863 352.612C574.552 352.416 574.184 352.318 573.76 352.318C573.292 352.318 572.888 352.434 572.547 352.666C572.209 352.895 571.948 353.193 571.766 353.561C571.584 353.929 571.493 354.323 571.493 354.744V355.42C571.493 355.997 571.592 356.486 571.791 356.887C571.993 357.285 572.273 357.588 572.631 357.797C572.989 358.002 573.405 358.105 573.879 358.105C574.187 358.105 574.466 358.062 574.714 357.976C574.966 357.886 575.183 357.754 575.366 357.578C575.548 357.399 575.689 357.177 575.788 356.912L576.922 357.23C576.802 357.615 576.602 357.953 576.32 358.244C576.038 358.533 575.69 358.758 575.276 358.92C574.862 359.08 574.396 359.159 573.879 359.159ZM581.073 359.179C580.589 359.179 580.15 359.088 579.756 358.906C579.361 358.72 579.048 358.453 578.816 358.105C578.584 357.754 578.468 357.33 578.468 356.832C578.468 356.395 578.554 356.04 578.726 355.768C578.899 355.493 579.129 355.278 579.417 355.122C579.706 354.966 580.024 354.85 580.372 354.774C580.723 354.695 581.076 354.632 581.431 354.585C581.895 354.526 582.271 354.481 582.559 354.451C582.851 354.418 583.063 354.363 583.196 354.287C583.332 354.211 583.4 354.078 583.4 353.889V353.849C583.4 353.359 583.265 352.978 582.997 352.706C582.732 352.434 582.329 352.298 581.789 352.298C581.229 352.298 580.79 352.421 580.471 352.666C580.153 352.911 579.93 353.173 579.8 353.452L578.687 353.054C578.885 352.59 579.151 352.229 579.482 351.97C579.817 351.708 580.181 351.526 580.576 351.423C580.974 351.317 581.365 351.264 581.749 351.264C581.994 351.264 582.276 351.294 582.594 351.354C582.916 351.41 583.226 351.528 583.524 351.707C583.826 351.886 584.076 352.156 584.275 352.517C584.474 352.878 584.573 353.362 584.573 353.969V359H583.4V357.966H583.34C583.26 358.132 583.128 358.309 582.942 358.498C582.757 358.687 582.51 358.848 582.202 358.98C581.893 359.113 581.517 359.179 581.073 359.179ZM581.252 358.125C581.716 358.125 582.107 358.034 582.425 357.852C582.747 357.669 582.989 357.434 583.151 357.146C583.317 356.857 583.4 356.554 583.4 356.236V355.162C583.35 355.222 583.241 355.276 583.072 355.326C582.906 355.372 582.714 355.414 582.495 355.45C582.279 355.483 582.069 355.513 581.863 355.54C581.661 355.563 581.497 355.583 581.371 355.599C581.066 355.639 580.781 355.704 580.516 355.793C580.254 355.879 580.042 356.01 579.88 356.186C579.721 356.358 579.641 356.594 579.641 356.892C579.641 357.3 579.792 357.608 580.094 357.817C580.398 358.022 580.785 358.125 581.252 358.125ZM586.714 359V351.364H587.848V352.517H587.928C588.067 352.139 588.319 351.833 588.683 351.597C589.048 351.362 589.459 351.244 589.916 351.244C590.002 351.244 590.11 351.246 590.239 351.249C590.369 351.253 590.466 351.258 590.533 351.264V352.457C590.493 352.447 590.402 352.433 590.259 352.413C590.12 352.389 589.973 352.378 589.817 352.378C589.446 352.378 589.114 352.456 588.822 352.612C588.534 352.764 588.305 352.976 588.136 353.248C587.971 353.516 587.888 353.823 587.888 354.168V359H586.714ZM597.333 353.074L596.279 353.372C596.212 353.196 596.115 353.026 595.985 352.86C595.859 352.691 595.687 352.552 595.468 352.442C595.249 352.333 594.969 352.278 594.628 352.278C594.161 352.278 593.771 352.386 593.46 352.602C593.151 352.814 592.997 353.084 592.997 353.412C592.997 353.704 593.103 353.934 593.316 354.103C593.528 354.272 593.859 354.413 594.31 354.526L595.443 354.804C596.126 354.97 596.635 355.223 596.97 355.565C597.304 355.903 597.472 356.339 597.472 356.872C597.472 357.31 597.346 357.701 597.094 358.045C596.845 358.39 596.497 358.662 596.05 358.861C595.602 359.06 595.082 359.159 594.489 359.159C593.71 359.159 593.065 358.99 592.555 358.652C592.044 358.314 591.721 357.82 591.585 357.17L592.699 356.892C592.805 357.303 593.006 357.611 593.301 357.817C593.599 358.022 593.988 358.125 594.469 358.125C595.016 358.125 595.45 358.009 595.771 357.777C596.096 357.542 596.259 357.26 596.259 356.932C596.259 356.667 596.166 356.445 595.98 356.266C595.795 356.083 595.51 355.947 595.125 355.858L593.852 355.56C593.153 355.394 592.639 355.137 592.311 354.789C591.986 354.438 591.824 353.999 591.824 353.472C591.824 353.041 591.945 352.66 592.187 352.328C592.432 351.997 592.765 351.737 593.186 351.548C593.61 351.359 594.091 351.264 594.628 351.264C595.384 351.264 595.977 351.43 596.408 351.761C596.842 352.093 597.15 352.53 597.333 353.074ZM608.903 351.364C608.843 350.86 608.601 350.469 608.177 350.19C607.753 349.912 607.232 349.773 606.616 349.773C606.165 349.773 605.771 349.846 605.433 349.991C605.098 350.137 604.836 350.338 604.647 350.593C604.461 350.848 604.369 351.138 604.369 351.463C604.369 351.735 604.433 351.969 604.562 352.164C604.695 352.356 604.864 352.517 605.07 352.646C605.275 352.772 605.491 352.877 605.716 352.96C605.941 353.039 606.148 353.104 606.337 353.153L607.371 353.432C607.637 353.501 607.932 353.598 608.256 353.72C608.585 353.843 608.898 354.01 609.196 354.222C609.498 354.431 609.746 354.7 609.942 355.028C610.137 355.356 610.235 355.759 610.235 356.236C610.235 356.786 610.091 357.283 609.803 357.727C609.518 358.171 609.1 358.524 608.55 358.786C608.003 359.048 607.338 359.179 606.556 359.179C605.827 359.179 605.196 359.061 604.662 358.826C604.132 358.591 603.714 358.263 603.409 357.842C603.107 357.421 602.937 356.932 602.897 356.375H604.17C604.203 356.759 604.332 357.078 604.558 357.33C604.786 357.578 605.075 357.764 605.423 357.886C605.774 358.006 606.152 358.065 606.556 358.065C607.027 358.065 607.449 357.989 607.824 357.837C608.198 357.681 608.495 357.465 608.714 357.19C608.933 356.912 609.042 356.587 609.042 356.216C609.042 355.878 608.947 355.603 608.759 355.391C608.57 355.179 608.321 355.006 608.013 354.874C607.705 354.741 607.371 354.625 607.013 354.526L605.761 354.168C604.965 353.939 604.335 353.612 603.871 353.188C603.407 352.764 603.175 352.209 603.175 351.523C603.175 350.953 603.33 350.455 603.638 350.031C603.949 349.604 604.367 349.272 604.891 349.037C605.418 348.798 606.006 348.679 606.656 348.679C607.312 348.679 607.895 348.797 608.406 349.032C608.916 349.264 609.32 349.582 609.619 349.987C609.92 350.391 610.079 350.85 610.096 351.364H608.903ZM612.103 359V351.364H613.276V359H612.103ZM612.7 350.091C612.471 350.091 612.274 350.013 612.108 349.857C611.946 349.701 611.865 349.514 611.865 349.295C611.865 349.077 611.946 348.889 612.108 348.734C612.274 348.578 612.471 348.5 612.7 348.5C612.928 348.5 613.124 348.578 613.286 348.734C613.452 348.889 613.535 349.077 613.535 349.295C613.535 349.514 613.452 349.701 613.286 349.857C613.124 350.013 612.928 350.091 612.7 350.091ZM616.599 354.406V359H615.425V351.364H616.559V352.557H616.658C616.837 352.169 617.109 351.857 617.474 351.622C617.838 351.384 618.309 351.264 618.886 351.264C619.403 351.264 619.855 351.37 620.243 351.582C620.631 351.791 620.932 352.109 621.148 352.537C621.363 352.961 621.471 353.498 621.471 354.148V359H620.298V354.227C620.298 353.627 620.142 353.16 619.83 352.825C619.519 352.487 619.091 352.318 618.548 352.318C618.173 352.318 617.838 352.399 617.543 352.562C617.252 352.724 617.021 352.961 616.852 353.273C616.683 353.584 616.599 353.962 616.599 354.406ZM626.717 359.159C626.001 359.159 625.385 358.99 624.868 358.652C624.351 358.314 623.953 357.848 623.675 357.255C623.396 356.662 623.257 355.984 623.257 355.222C623.257 354.446 623.399 353.762 623.684 353.168C623.973 352.572 624.374 352.106 624.888 351.771C625.405 351.433 626.008 351.264 626.697 351.264C627.234 351.264 627.718 351.364 628.149 351.562C628.58 351.761 628.933 352.04 629.208 352.398C629.483 352.756 629.654 353.173 629.72 353.651H628.547C628.457 353.303 628.258 352.994 627.95 352.726C627.645 352.454 627.234 352.318 626.717 352.318C626.26 352.318 625.859 352.437 625.514 352.676C625.173 352.911 624.906 353.245 624.714 353.675C624.525 354.103 624.43 354.605 624.43 355.182C624.43 355.772 624.523 356.286 624.709 356.723C624.898 357.161 625.163 357.5 625.504 357.742C625.849 357.984 626.253 358.105 626.717 358.105C627.022 358.105 627.299 358.052 627.547 357.946C627.796 357.84 628.006 357.688 628.179 357.489C628.351 357.29 628.474 357.051 628.547 356.773H629.72C629.654 357.223 629.49 357.629 629.228 357.991C628.969 358.349 628.626 358.634 628.199 358.846C627.774 359.055 627.281 359.159 626.717 359.159ZM634.637 359.159C633.901 359.159 633.266 358.997 632.733 358.672C632.202 358.344 631.793 357.886 631.505 357.3C631.22 356.71 631.077 356.024 631.077 355.241C631.077 354.459 631.22 353.77 631.505 353.173C631.793 352.573 632.194 352.106 632.708 351.771C633.225 351.433 633.828 351.264 634.518 351.264C634.915 351.264 635.308 351.33 635.696 351.463C636.084 351.596 636.437 351.811 636.755 352.109C637.073 352.404 637.327 352.795 637.515 353.283C637.704 353.77 637.799 354.37 637.799 355.082V355.58H631.912V354.565H636.606C636.606 354.134 636.519 353.75 636.347 353.412C636.178 353.074 635.936 352.807 635.621 352.612C635.31 352.416 634.942 352.318 634.518 352.318C634.05 352.318 633.646 352.434 633.305 352.666C632.966 352.895 632.706 353.193 632.524 353.561C632.342 353.929 632.251 354.323 632.251 354.744V355.42C632.251 355.997 632.35 356.486 632.549 356.887C632.751 357.285 633.031 357.588 633.389 357.797C633.747 358.002 634.163 358.105 634.637 358.105C634.945 358.105 635.224 358.062 635.472 357.976C635.724 357.886 635.941 357.754 636.123 357.578C636.306 357.399 636.447 357.177 636.546 356.912L637.68 357.23C637.56 357.615 637.36 357.953 637.078 358.244C636.796 358.533 636.448 358.758 636.034 358.92C635.62 359.08 635.154 359.159 634.637 359.159ZM643.68 359V348.818H644.913V357.906H649.646V359H643.68ZM653.643 359.179C653.159 359.179 652.72 359.088 652.326 358.906C651.931 358.72 651.618 358.453 651.386 358.105C651.154 357.754 651.038 357.33 651.038 356.832C651.038 356.395 651.124 356.04 651.297 355.768C651.469 355.493 651.699 355.278 651.988 355.122C652.276 354.966 652.594 354.85 652.942 354.774C653.294 354.695 653.647 354.632 654.001 354.585C654.465 354.526 654.841 354.481 655.13 354.451C655.421 354.418 655.634 354.363 655.766 354.287C655.902 354.211 655.97 354.078 655.97 353.889V353.849C655.97 353.359 655.836 352.978 655.567 352.706C655.302 352.434 654.899 352.298 654.359 352.298C653.799 352.298 653.36 352.421 653.042 352.666C652.724 352.911 652.5 353.173 652.371 353.452L651.257 353.054C651.456 352.59 651.721 352.229 652.052 351.97C652.387 351.708 652.752 351.526 653.146 351.423C653.544 351.317 653.935 351.264 654.319 351.264C654.565 351.264 654.846 351.294 655.165 351.354C655.486 351.41 655.796 351.528 656.094 351.707C656.396 351.886 656.646 352.156 656.845 352.517C657.044 352.878 657.143 353.362 657.143 353.969V359H655.97V357.966H655.91C655.831 358.132 655.698 358.309 655.513 358.498C655.327 358.687 655.08 358.848 654.772 358.98C654.464 359.113 654.087 359.179 653.643 359.179ZM653.822 358.125C654.286 358.125 654.677 358.034 654.996 357.852C655.317 357.669 655.559 357.434 655.721 357.146C655.887 356.857 655.97 356.554 655.97 356.236V355.162C655.92 355.222 655.811 355.276 655.642 355.326C655.476 355.372 655.284 355.414 655.065 355.45C654.85 355.483 654.639 355.513 654.434 355.54C654.232 355.563 654.068 355.583 653.942 355.599C653.637 355.639 653.352 355.704 653.086 355.793C652.825 355.879 652.613 356.01 652.45 356.186C652.291 356.358 652.211 356.594 652.211 356.892C652.211 357.3 652.362 357.608 652.664 357.817C652.969 358.022 653.355 358.125 653.822 358.125ZM664.097 355.878V351.364H665.271V359H664.097V357.707H664.018C663.839 358.095 663.56 358.425 663.183 358.697C662.805 358.965 662.327 359.099 661.751 359.099C661.273 359.099 660.849 358.995 660.478 358.786C660.107 358.574 659.815 358.256 659.603 357.832C659.391 357.404 659.285 356.866 659.285 356.216V351.364H660.458V356.136C660.458 356.693 660.614 357.137 660.925 357.469C661.24 357.8 661.641 357.966 662.129 357.966C662.42 357.966 662.717 357.891 663.018 357.742C663.323 357.593 663.579 357.364 663.784 357.056C663.993 356.748 664.097 356.355 664.097 355.878ZM668.593 354.406V359H667.42V351.364H668.553V352.557H668.653C668.831 352.169 669.103 351.857 669.468 351.622C669.832 351.384 670.303 351.264 670.88 351.264C671.397 351.264 671.849 351.37 672.237 351.582C672.625 351.791 672.926 352.109 673.142 352.537C673.357 352.961 673.465 353.498 673.465 354.148V359H672.292V354.227C672.292 353.627 672.136 353.16 671.824 352.825C671.513 352.487 671.085 352.318 670.542 352.318C670.167 352.318 669.832 352.399 669.537 352.562C669.246 352.724 669.015 352.961 668.846 353.273C668.677 353.584 668.593 353.962 668.593 354.406ZM678.711 359.159C677.995 359.159 677.379 358.99 676.862 358.652C676.345 358.314 675.947 357.848 675.669 357.255C675.39 356.662 675.251 355.984 675.251 355.222C675.251 354.446 675.394 353.762 675.679 353.168C675.967 352.572 676.368 352.106 676.882 351.771C677.399 351.433 678.002 351.264 678.691 351.264C679.228 351.264 679.712 351.364 680.143 351.562C680.574 351.761 680.927 352.04 681.202 352.398C681.477 352.756 681.648 353.173 681.714 353.651H680.541C680.451 353.303 680.252 352.994 679.944 352.726C679.639 352.454 679.228 352.318 678.711 352.318C678.254 352.318 677.853 352.437 677.508 352.676C677.167 352.911 676.9 353.245 676.708 353.675C676.519 354.103 676.424 354.605 676.424 355.182C676.424 355.772 676.517 356.286 676.703 356.723C676.892 357.161 677.157 357.5 677.498 357.742C677.843 357.984 678.247 358.105 678.711 358.105C679.016 358.105 679.293 358.052 679.542 357.946C679.79 357.84 680.001 357.688 680.173 357.489C680.345 357.29 680.468 357.051 680.541 356.773H681.714C681.648 357.223 681.484 357.629 681.222 357.991C680.963 358.349 680.62 358.634 680.193 358.846C679.769 359.055 679.275 359.159 678.711 359.159ZM684.603 354.406V359H683.429V348.818H684.603V352.557H684.702C684.881 352.162 685.15 351.849 685.507 351.617C685.869 351.382 686.349 351.264 686.949 351.264C687.47 351.264 687.925 351.369 688.316 351.577C688.708 351.783 689.011 352.099 689.226 352.527C689.445 352.951 689.554 353.491 689.554 354.148V359H688.381V354.227C688.381 353.621 688.224 353.152 687.909 352.82C687.597 352.486 687.165 352.318 686.611 352.318C686.227 352.318 685.882 352.399 685.577 352.562C685.275 352.724 685.037 352.961 684.861 353.273C684.689 353.584 684.603 353.962 684.603 354.406Z" fill="black"/>
<rect x="-0.5" y="0.5" width="851" height="377" transform="matrix(1 0 0 -1 1 378)" stroke="black"/>
</svg>
