<svg width="452" height="378" viewBox="0 0 452 378" fill="none" xmlns="http://www.w3.org/2000/svg">
<rect x="-0.5" y="0.5" width="451" height="377" transform="matrix(1 0 0 -1 1 378)" fill="white"/>
<path d="M147.35 40.8182V51H146.157L140.608 43.0057H140.509V51H139.276V40.8182H140.469L146.037 48.8324H146.137V40.8182H147.35ZM152.86 51.1591C152.124 51.1591 151.489 50.9967 150.955 50.6719C150.425 50.3438 150.016 49.8864 149.727 49.2997C149.442 48.7098 149.3 48.0237 149.3 47.2415C149.3 46.4593 149.442 45.7699 149.727 45.1733C150.016 44.5734 150.417 44.1061 150.931 43.7713C151.448 43.4332 152.051 43.2642 152.74 43.2642C153.138 43.2642 153.531 43.3305 153.919 43.4631C154.306 43.5956 154.659 43.8111 154.977 44.1094C155.296 44.4044 155.549 44.7955 155.738 45.2827C155.927 45.7699 156.021 46.3698 156.021 47.0824V47.5795H150.135V46.5653H154.828C154.828 46.1345 154.742 45.75 154.57 45.4119C154.401 45.0739 154.159 44.8071 153.844 44.6115C153.532 44.416 153.164 44.3182 152.74 44.3182C152.273 44.3182 151.869 44.4342 151.527 44.6662C151.189 44.8949 150.929 45.1932 150.747 45.5611C150.564 45.929 150.473 46.3234 150.473 46.7443V47.4205C150.473 47.9972 150.573 48.486 150.771 48.8871C150.974 49.2848 151.254 49.5881 151.612 49.7969C151.97 50.0024 152.386 50.1051 152.86 50.1051C153.168 50.1051 153.446 50.062 153.695 49.9759C153.947 49.8864 154.164 49.7538 154.346 49.5781C154.528 49.3991 154.669 49.1771 154.769 48.9119L155.902 49.2301C155.783 49.6146 155.582 49.9527 155.301 50.2443C155.019 50.5327 154.671 50.758 154.257 50.9205C153.842 51.0795 153.377 51.1591 152.86 51.1591ZM159.536 51L157.21 43.3636H158.443L160.093 49.2102H160.173L161.803 43.3636H163.056L164.667 49.1903H164.747L166.397 43.3636H167.63L165.303 51H164.15L162.48 45.1335H162.36L160.69 51H159.536ZM173.278 51V40.8182H179.383V41.9119H174.511V45.3523H178.926V46.446H174.511V51H173.278ZM181.495 51V40.8182H184.935C185.73 40.8182 186.383 40.9541 186.894 41.2259C187.404 41.4943 187.782 41.8639 188.027 42.3345C188.273 42.8052 188.395 43.3404 188.395 43.9403C188.395 44.5402 188.273 45.0722 188.027 45.5362C187.782 46.0002 187.406 46.3648 186.899 46.63C186.392 46.8918 185.744 47.0227 184.955 47.0227H182.171V45.9091H184.915C185.459 45.9091 185.896 45.8295 186.228 45.6705C186.562 45.5114 186.804 45.286 186.953 44.9943C187.106 44.6993 187.182 44.348 187.182 43.9403C187.182 43.5327 187.106 43.1764 186.953 42.8714C186.801 42.5665 186.557 42.3312 186.223 42.1655C185.888 41.9964 185.445 41.9119 184.895 41.9119H182.728V51H181.495ZM186.287 46.4261L188.793 51H187.361L184.895 46.4261H186.287ZM190.112 51V50.1051L195.6 41.9119H190.052V40.8182H197.072V41.7131L191.583 49.9062H197.132V51H190.112ZM203.137 40.8182H204.609L208.069 49.2699H208.188L211.649 40.8182H213.12V51H211.967V43.2642H211.867L208.686 51H207.572L204.39 43.2642H204.291V51H203.137V40.8182ZM215.433 51V43.3636H216.607V51H215.433ZM216.03 42.0909C215.801 42.0909 215.604 42.013 215.438 41.8572C215.276 41.7015 215.195 41.5142 215.195 41.2955C215.195 41.0767 215.276 40.8894 215.438 40.7337C215.604 40.5779 215.801 40.5 216.03 40.5C216.259 40.5 216.454 40.5779 216.616 40.7337C216.782 40.8894 216.865 41.0767 216.865 41.2955C216.865 41.5142 216.782 41.7015 216.616 41.8572C216.454 42.013 216.259 42.0909 216.03 42.0909ZM219.929 46.4062V51H218.756V43.3636H219.889V44.5568H219.988C220.167 44.169 220.439 43.8575 220.804 43.6222C221.168 43.3835 221.639 43.2642 222.216 43.2642C222.733 43.2642 223.185 43.3703 223.573 43.5824C223.961 43.7912 224.262 44.1094 224.478 44.5369C224.693 44.9612 224.801 45.4981 224.801 46.1477V51H223.628V46.2273C223.628 45.6274 223.472 45.16 223.16 44.8253C222.849 44.4872 222.421 44.3182 221.878 44.3182C221.503 44.3182 221.168 44.3994 220.873 44.5618C220.582 44.7242 220.351 44.9612 220.182 45.2727C220.013 45.5843 219.929 45.9621 219.929 46.4062ZM230.266 43.3636V44.358H226.309V43.3636H230.266ZM227.462 41.5341H228.635V48.8125C228.635 49.1439 228.683 49.3925 228.779 49.5582C228.879 49.7206 229.005 49.83 229.157 49.8864C229.313 49.9394 229.477 49.9659 229.65 49.9659C229.779 49.9659 229.885 49.9593 229.968 49.946C230.051 49.9295 230.117 49.9162 230.167 49.9062L230.405 50.9602C230.326 50.9901 230.215 51.0199 230.072 51.0497C229.93 51.0829 229.749 51.0994 229.53 51.0994C229.199 51.0994 228.874 51.0282 228.556 50.8857C228.241 50.7431 227.979 50.526 227.77 50.2344C227.565 49.9427 227.462 49.5748 227.462 49.1307V41.5341ZM235.151 51.1591C234.415 51.1591 233.78 50.9967 233.246 50.6719C232.716 50.3438 232.307 49.8864 232.018 49.2997C231.733 48.7098 231.591 48.0237 231.591 47.2415C231.591 46.4593 231.733 45.7699 232.018 45.1733C232.307 44.5734 232.708 44.1061 233.222 43.7713C233.739 43.4332 234.342 43.2642 235.031 43.2642C235.429 43.2642 235.822 43.3305 236.21 43.4631C236.597 43.5956 236.95 43.8111 237.268 44.1094C237.587 44.4044 237.84 44.7955 238.029 45.2827C238.218 45.7699 238.312 46.3698 238.312 47.0824V47.5795H232.426V46.5653H237.119C237.119 46.1345 237.033 45.75 236.861 45.4119C236.692 45.0739 236.45 44.8071 236.135 44.6115C235.823 44.416 235.455 44.3182 235.031 44.3182C234.564 44.3182 234.16 44.4342 233.818 44.6662C233.48 44.8949 233.22 45.1932 233.038 45.5611C232.855 45.929 232.764 46.3234 232.764 46.7443V47.4205C232.764 47.9972 232.864 48.486 233.062 48.8871C233.265 49.2848 233.545 49.5881 233.903 49.7969C234.261 50.0024 234.677 50.1051 235.151 50.1051C235.459 50.1051 235.737 50.062 235.986 49.9759C236.238 49.8864 236.455 49.7538 236.637 49.5781C236.819 49.3991 236.96 49.1771 237.06 48.9119L238.193 49.2301C238.074 49.6146 237.873 49.9527 237.592 50.2443C237.31 50.5327 236.962 50.758 236.548 50.9205C236.133 51.0795 235.668 51.1591 235.151 51.1591ZM242.981 51.1591C242.344 51.1591 241.783 50.9983 241.295 50.6768C240.808 50.352 240.427 49.8946 240.152 49.3047C239.877 48.7114 239.739 48.0104 239.739 47.2017C239.739 46.3996 239.877 45.7036 240.152 45.1136C240.427 44.5237 240.81 44.0679 241.3 43.7464C241.791 43.425 242.358 43.2642 243.001 43.2642C243.498 43.2642 243.891 43.3471 244.179 43.5128C244.471 43.6752 244.693 43.8608 244.845 44.0696C245.001 44.2751 245.122 44.4441 245.208 44.5767H245.308V40.8182H246.481V51H245.347V49.8267H245.208C245.122 49.9659 244.999 50.1416 244.84 50.3537C244.681 50.5625 244.454 50.7498 244.159 50.9155C243.864 51.0779 243.471 51.1591 242.981 51.1591ZM243.14 50.1051C243.611 50.1051 244.008 49.9825 244.333 49.7372C244.658 49.4886 244.905 49.1456 245.074 48.7081C245.243 48.2673 245.327 47.7585 245.327 47.1818C245.327 46.6117 245.245 46.1129 245.079 45.6854C244.913 45.2545 244.668 44.9197 244.343 44.6811C244.018 44.4392 243.617 44.3182 243.14 44.3182C242.643 44.3182 242.228 44.4458 241.897 44.701C241.569 44.9529 241.322 45.2959 241.156 45.7301C240.994 46.161 240.913 46.6449 240.913 47.1818C240.913 47.7254 240.996 48.2192 241.161 48.6634C241.33 49.1042 241.579 49.4555 241.907 49.7173C242.238 49.9759 242.649 50.1051 243.14 50.1051ZM253.307 51H252.014L255.753 40.8182H257.026L260.764 51H259.472L256.429 42.429H256.349L253.307 51ZM253.784 47.0227H258.994V48.1165H253.784V47.0227ZM263.364 46.4062V51H262.191V43.3636H263.325V44.5568H263.424C263.603 44.169 263.875 43.8575 264.239 43.6222C264.604 43.3835 265.075 43.2642 265.651 43.2642C266.168 43.2642 266.621 43.3703 267.009 43.5824C267.396 43.7912 267.698 44.1094 267.913 44.5369C268.129 44.9612 268.237 45.4981 268.237 46.1477V51H267.063V46.2273C267.063 45.6274 266.907 45.16 266.596 44.8253C266.284 44.4872 265.857 44.3182 265.313 44.3182C264.939 44.3182 264.604 44.3994 264.309 44.5618C264.017 44.7242 263.787 44.9612 263.618 45.2727C263.449 45.5843 263.364 45.9621 263.364 46.4062ZM271.554 46.4062V51H270.381V43.3636H271.514V44.5568H271.613C271.792 44.169 272.064 43.8575 272.429 43.6222C272.793 43.3835 273.264 43.2642 273.841 43.2642C274.358 43.2642 274.81 43.3703 275.198 43.5824C275.586 43.7912 275.887 44.1094 276.103 44.5369C276.318 44.9612 276.426 45.4981 276.426 46.1477V51H275.253V46.2273C275.253 45.6274 275.097 45.16 274.785 44.8253C274.474 44.4872 274.046 44.3182 273.503 44.3182C273.128 44.3182 272.793 44.3994 272.498 44.5618C272.207 44.7242 271.976 44.9612 271.807 45.2727C271.638 45.5843 271.554 45.9621 271.554 46.4062ZM283.382 47.8778V43.3636H284.556V51H283.382V49.7074H283.303C283.124 50.0952 282.846 50.425 282.468 50.6967C282.09 50.9652 281.613 51.0994 281.036 51.0994C280.559 51.0994 280.134 50.995 279.763 50.7862C279.392 50.5741 279.1 50.2559 278.888 49.8317C278.676 49.4041 278.57 48.8655 278.57 48.2159V43.3636H279.743V48.1364C279.743 48.6932 279.899 49.1373 280.211 49.4688C280.525 49.8002 280.926 49.9659 281.414 49.9659C281.705 49.9659 282.002 49.8913 282.304 49.7422C282.609 49.593 282.864 49.3643 283.069 49.0561C283.278 48.7479 283.382 48.3551 283.382 47.8778ZM288.952 51.179C288.468 51.179 288.029 51.0878 287.634 50.9055C287.24 50.7199 286.927 50.4531 286.695 50.1051C286.463 49.7538 286.347 49.3295 286.347 48.8324C286.347 48.3949 286.433 48.0402 286.605 47.7685C286.778 47.4934 287.008 47.2779 287.296 47.1222C287.585 46.9664 287.903 46.8504 288.251 46.7741C288.602 46.6946 288.955 46.6316 289.31 46.5852C289.774 46.5256 290.15 46.4808 290.438 46.451C290.73 46.4179 290.942 46.3632 291.075 46.2869C291.211 46.2107 291.279 46.0781 291.279 45.8892V45.8494C291.279 45.3589 291.144 44.9777 290.876 44.706C290.611 44.4342 290.208 44.2983 289.668 44.2983C289.108 44.2983 288.669 44.4209 288.35 44.6662C288.032 44.9115 287.808 45.1733 287.679 45.4517L286.566 45.054C286.764 44.59 287.03 44.2287 287.361 43.9702C287.696 43.7083 288.06 43.526 288.455 43.4233C288.852 43.3172 289.244 43.2642 289.628 43.2642C289.873 43.2642 290.155 43.294 290.473 43.3537C290.795 43.41 291.105 43.5277 291.403 43.7067C291.704 43.8857 291.955 44.1558 292.154 44.517C292.352 44.8783 292.452 45.3622 292.452 45.9688V51H291.279V49.9659H291.219C291.139 50.1316 291.007 50.3089 290.821 50.4979C290.636 50.6868 290.389 50.8475 290.08 50.9801C289.772 51.1127 289.396 51.179 288.952 51.179ZM289.131 50.125C289.595 50.125 289.986 50.0339 290.304 49.8516C290.626 49.6693 290.868 49.4339 291.03 49.1456C291.196 48.8572 291.279 48.554 291.279 48.2358V47.1619C291.229 47.2216 291.119 47.2763 290.95 47.326C290.785 47.3724 290.593 47.4138 290.374 47.4503C290.158 47.4834 289.948 47.5133 289.742 47.5398C289.54 47.563 289.376 47.5829 289.25 47.5994C288.945 47.6392 288.66 47.7038 288.395 47.7933C288.133 47.8795 287.921 48.0104 287.759 48.1861C287.6 48.3584 287.52 48.5937 287.52 48.892C287.52 49.2997 287.671 49.608 287.972 49.8168C288.277 50.0223 288.664 50.125 289.131 50.125ZM295.767 40.8182V51H294.593V40.8182H295.767ZM299.089 40.8182V51H297.916V40.8182H299.089ZM301.994 53.8636C301.795 53.8636 301.617 53.8471 301.462 53.8139C301.306 53.7841 301.198 53.7543 301.138 53.7244L301.437 52.6903C301.722 52.7633 301.974 52.7898 302.192 52.7699C302.411 52.75 302.605 52.6522 302.774 52.4766C302.946 52.3042 303.104 52.0241 303.246 51.6364L303.465 51.0398L300.641 43.3636H301.914L304.022 49.4489H304.102L306.21 43.3636H307.482L304.241 52.1136C304.095 52.508 303.914 52.8345 303.699 53.093C303.483 53.3549 303.233 53.5488 302.948 53.6747C302.666 53.8007 302.348 53.8636 301.994 53.8636Z" fill="black"/>
<path d="M91 186.5C91 190.642 87.1944 194 82.5 194C77.8056 194 74 190.642 74 186.5C74 182.358 77.8056 179 82.5 179C87.1944 179 91 182.358 91 186.5Z" fill="black"/>
<ellipse cx="129.5" cy="257.5" rx="8.5" ry="7.5" fill="black"/>
<ellipse cx="357.5" cy="115.5" rx="8.5" ry="7.5" fill="black"/>
<path d="M35.8097 262.139C35.1535 262.139 34.5685 262.027 34.0548 261.801C33.5444 261.576 33.1383 261.263 32.8367 260.862C32.5384 260.457 32.376 259.988 32.3495 259.455H33.6024C33.6289 259.783 33.7416 260.066 33.9404 260.305C34.1393 260.54 34.3995 260.722 34.721 260.852C35.0425 260.981 35.3988 261.045 35.7899 261.045C36.2274 261.045 36.6151 260.969 36.9532 260.817C37.2913 260.664 37.5564 260.452 37.7487 260.18C37.9409 259.909 38.037 259.594 38.037 259.236C38.037 258.861 37.9442 258.531 37.7586 258.246C37.573 257.958 37.3012 257.733 36.9433 257.57C36.5853 257.408 36.1478 257.327 35.6308 257.327H34.8154V256.233H35.6308C36.0351 256.233 36.3898 256.16 36.6947 256.014C37.0029 255.868 37.2432 255.663 37.4156 255.398C37.5912 255.133 37.6791 254.821 37.6791 254.463C37.6791 254.118 37.6028 253.818 37.4504 253.563C37.2979 253.308 37.0825 253.109 36.8041 252.967C36.529 252.824 36.2042 252.753 35.8296 252.753C35.4783 252.753 35.1469 252.817 34.8353 252.947C34.5271 253.073 34.2752 253.257 34.0796 253.499C33.8841 253.737 33.778 254.026 33.7615 254.364H32.5683C32.5882 253.83 32.7489 253.363 33.0505 252.962C33.3521 252.557 33.7465 252.242 34.2338 252.017C34.7243 251.792 35.2629 251.679 35.8495 251.679C36.4793 251.679 37.0195 251.807 37.4703 252.062C37.921 252.314 38.2674 252.647 38.5093 253.061C38.7513 253.475 38.8722 253.923 38.8722 254.403C38.8722 254.977 38.7214 255.466 38.4198 255.87C38.1215 256.274 37.7155 256.554 37.2018 256.71V256.79C37.8448 256.896 38.3469 257.169 38.7082 257.61C39.0695 258.048 39.2501 258.589 39.2501 259.236C39.2501 259.789 39.0993 260.286 38.7977 260.727C38.4994 261.165 38.0917 261.509 37.5747 261.761C37.0576 262.013 36.4693 262.139 35.8097 262.139ZM41.4624 251.818H42.934L46.3943 260.27H46.5136L49.9738 251.818H51.4454V262H50.292V254.264H50.1926L47.0107 262H45.8971L42.7153 254.264H42.6159V262H41.4624V251.818Z" fill="black"/>
<path d="M28.7771 182.818V193H27.5441V184.111H27.4845L24.9987 185.761V184.509L27.5441 182.818H28.7771ZM35.0264 193.139C34.2773 193.139 33.6393 192.935 33.1123 192.528C32.5853 192.117 32.1826 191.522 31.9042 190.743C31.6258 189.961 31.4866 189.016 31.4866 187.909C31.4866 186.809 31.6258 185.869 31.9042 185.09C32.1859 184.308 32.5903 183.711 33.1173 183.3C33.6476 182.886 34.2839 182.679 35.0264 182.679C35.7688 182.679 36.4035 182.886 36.9305 183.3C37.4608 183.711 37.8651 184.308 38.1436 185.09C38.4253 185.869 38.5661 186.809 38.5661 187.909C38.5661 189.016 38.4269 189.961 38.1485 190.743C37.8701 191.522 37.4674 192.117 36.9404 192.528C36.4134 192.935 35.7754 193.139 35.0264 193.139ZM35.0264 192.045C35.7688 192.045 36.3455 191.687 36.7565 190.972C37.1675 190.256 37.373 189.235 37.373 187.909C37.373 187.027 37.2785 186.277 37.0896 185.657C36.904 185.037 36.6355 184.565 36.2842 184.24C35.9362 183.915 35.5169 183.753 35.0264 183.753C34.2906 183.753 33.7155 184.116 33.3012 184.842C32.8869 185.564 32.6798 186.587 32.6798 187.909C32.6798 188.791 32.7726 189.54 32.9582 190.156C33.1438 190.773 33.4106 191.242 33.7586 191.563C34.1099 191.885 34.5325 192.045 35.0264 192.045ZM40.6343 182.818H42.1059L45.5661 191.27H45.6855L49.1457 182.818H50.6173V193H49.4639V185.264H49.3644L46.1826 193H45.069L41.8872 185.264H41.7877V193H40.6343V182.818Z" fill="black"/>
<path d="M24.2132 121V120.105L27.574 116.426C27.9684 115.995 28.2932 115.621 28.5484 115.303C28.8036 114.981 28.9925 114.679 29.1151 114.398C29.2411 114.113 29.3041 113.814 29.3041 113.503C29.3041 113.145 29.2179 112.835 29.0455 112.573C28.8765 112.311 28.6445 112.109 28.3495 111.967C28.0545 111.824 27.7231 111.753 27.3552 111.753C26.9641 111.753 26.6227 111.834 26.3311 111.996C26.0427 112.156 25.819 112.379 25.6599 112.668C25.5041 112.956 25.4262 113.294 25.4262 113.682H24.2529C24.2529 113.085 24.3905 112.562 24.6656 112.111C24.9407 111.66 25.3152 111.309 25.7892 111.057C26.2664 110.805 26.8017 110.679 27.395 110.679C27.9916 110.679 28.5202 110.805 28.9809 111.057C29.4416 111.309 29.8029 111.648 30.0647 112.076C30.3266 112.504 30.4575 112.979 30.4575 113.503C30.4575 113.877 30.3895 114.244 30.2536 114.602C30.1211 114.956 29.8891 115.352 29.5576 115.79C29.2295 116.224 28.7738 116.754 28.1904 117.381L25.9035 119.827V119.906H30.6365V121H24.2132ZM36.0107 121.139C35.2617 121.139 34.6237 120.935 34.0967 120.528C33.5697 120.117 33.167 119.522 32.8886 118.743C32.6102 117.961 32.471 117.016 32.471 115.909C32.471 114.809 32.6102 113.869 32.8886 113.09C33.1703 112.308 33.5747 111.711 34.1017 111.3C34.632 110.886 35.2683 110.679 36.0107 110.679C36.7532 110.679 37.3879 110.886 37.9149 111.3C38.4452 111.711 38.8495 112.308 39.1279 113.09C39.4097 113.869 39.5505 114.809 39.5505 115.909C39.5505 117.016 39.4113 117.961 39.1329 118.743C38.8545 119.522 38.4518 120.117 37.9248 120.528C37.3978 120.935 36.7598 121.139 36.0107 121.139ZM36.0107 120.045C36.7532 120.045 37.3299 119.687 37.7409 118.972C38.1518 118.256 38.3573 117.235 38.3573 115.909C38.3573 115.027 38.2629 114.277 38.074 113.657C37.8883 113.037 37.6199 112.565 37.2686 112.24C36.9205 111.915 36.5013 111.753 36.0107 111.753C35.2749 111.753 34.6999 112.116 34.2856 112.842C33.8713 113.564 33.6642 114.587 33.6642 115.909C33.6642 116.791 33.757 117.54 33.9426 118.156C34.1282 118.773 34.395 119.242 34.743 119.563C35.0943 119.885 35.5169 120.045 36.0107 120.045ZM41.6187 110.818H43.0903L46.5505 119.27H46.6698L50.1301 110.818H51.6017V121H50.4482V113.264H50.3488L47.167 121H46.0534L42.8715 113.264H42.7721V121H41.6187V110.818Z" fill="black"/>
<path d="M74.375 335.139C73.6259 335.139 72.9879 334.935 72.4609 334.528C71.9339 334.117 71.5313 333.522 71.2528 332.743C70.9744 331.961 70.8352 331.016 70.8352 329.909C70.8352 328.809 70.9744 327.869 71.2528 327.09C71.5346 326.308 71.9389 325.711 72.4659 325.3C72.9962 324.886 73.6326 324.679 74.375 324.679C75.1174 324.679 75.7521 324.886 76.2791 325.3C76.8094 325.711 77.2138 326.308 77.4922 327.09C77.7739 327.869 77.9148 328.809 77.9148 329.909C77.9148 331.016 77.7756 331.961 77.4972 332.743C77.2188 333.522 76.8161 334.117 76.2891 334.528C75.7621 334.935 75.1241 335.139 74.375 335.139ZM74.375 334.045C75.1174 334.045 75.6941 333.687 76.1051 332.972C76.5161 332.256 76.7216 331.235 76.7216 329.909C76.7216 329.027 76.6271 328.277 76.4382 327.657C76.2526 327.037 75.9841 326.565 75.6328 326.24C75.2848 325.915 74.8655 325.753 74.375 325.753C73.6392 325.753 73.0642 326.116 72.6499 326.842C72.2356 327.564 72.0284 328.587 72.0284 329.909C72.0284 330.791 72.1212 331.54 72.3068 332.156C72.4924 332.773 72.7592 333.242 73.1072 333.563C73.4586 333.885 73.8812 334.045 74.375 334.045Z" fill="black"/>
<path d="M126.634 324.818V335H125.401V326.111H125.341L122.855 327.761V326.509L125.401 324.818H126.634ZM132.883 335.139C132.134 335.139 131.496 334.935 130.969 334.528C130.442 334.117 130.039 333.522 129.761 332.743C129.482 331.961 129.343 331.016 129.343 329.909C129.343 328.809 129.482 327.869 129.761 327.09C130.042 326.308 130.447 325.711 130.974 325.3C131.504 324.886 132.14 324.679 132.883 324.679C133.625 324.679 134.26 324.886 134.787 325.3C135.317 325.711 135.722 326.308 136 327.09C136.282 327.869 136.423 328.809 136.423 329.909C136.423 331.016 136.283 331.961 136.005 332.743C135.727 333.522 135.324 334.117 134.797 334.528C134.27 334.935 133.632 335.139 132.883 335.139ZM132.883 334.045C133.625 334.045 134.202 333.687 134.613 332.972C135.024 332.256 135.229 331.235 135.229 329.909C135.229 329.027 135.135 328.277 134.946 327.657C134.76 327.037 134.492 326.565 134.141 326.24C133.793 325.915 133.373 325.753 132.883 325.753C132.147 325.753 131.572 326.116 131.158 326.842C130.743 327.564 130.536 328.587 130.536 329.909C130.536 330.791 130.629 331.54 130.815 332.156C131 332.773 131.267 333.242 131.615 333.563C131.966 333.885 132.389 334.045 132.883 334.045Z" fill="black"/>
<path d="M349.634 324.818V335H348.401V326.111H348.341L345.855 327.761V326.509L348.401 324.818H349.634ZM355.883 335.139C355.134 335.139 354.496 334.935 353.969 334.528C353.442 334.117 353.039 333.522 352.761 332.743C352.482 331.961 352.343 331.016 352.343 329.909C352.343 328.809 352.482 327.869 352.761 327.09C353.042 326.308 353.447 325.711 353.974 325.3C354.504 324.886 355.14 324.679 355.883 324.679C356.625 324.679 357.26 324.886 357.787 325.3C358.317 325.711 358.722 326.308 359 327.09C359.282 327.869 359.423 328.809 359.423 329.909C359.423 331.016 359.283 331.961 359.005 332.743C358.727 333.522 358.324 334.117 357.797 334.528C357.27 334.935 356.632 335.139 355.883 335.139ZM355.883 334.045C356.625 334.045 357.202 333.687 357.613 332.972C358.024 332.256 358.229 331.235 358.229 329.909C358.229 329.027 358.135 328.277 357.946 327.657C357.76 327.037 357.492 326.565 357.141 326.24C356.793 325.915 356.373 325.753 355.883 325.753C355.147 325.753 354.572 326.116 354.158 326.842C353.743 327.564 353.536 328.587 353.536 329.909C353.536 330.791 353.629 331.54 353.815 332.156C354 332.773 354.267 333.242 354.615 333.563C354.966 333.885 355.389 334.045 355.883 334.045ZM364.633 335.139C363.884 335.139 363.246 334.935 362.719 334.528C362.192 334.117 361.789 333.522 361.511 332.743C361.232 331.961 361.093 331.016 361.093 329.909C361.093 328.809 361.232 327.869 361.511 327.09C361.792 326.308 362.197 325.711 362.724 325.3C363.254 324.886 363.89 324.679 364.633 324.679C365.375 324.679 366.01 324.886 366.537 325.3C367.067 325.711 367.472 326.308 367.75 327.09C368.032 327.869 368.173 328.809 368.173 329.909C368.173 331.016 368.033 331.961 367.755 332.743C367.477 333.522 367.074 334.117 366.547 334.528C366.02 334.935 365.382 335.139 364.633 335.139ZM364.633 334.045C365.375 334.045 365.952 333.687 366.363 332.972C366.774 332.256 366.979 331.235 366.979 329.909C366.979 329.027 366.885 328.277 366.696 327.657C366.51 327.037 366.242 326.565 365.891 326.24C365.543 325.915 365.123 325.753 364.633 325.753C363.897 325.753 363.322 326.116 362.908 326.842C362.493 327.564 362.286 328.587 362.286 329.909C362.286 330.791 362.379 331.54 362.565 332.156C362.75 332.773 363.017 333.242 363.365 333.563C363.716 333.885 364.139 334.045 364.633 334.045ZM374.874 335.08C374.629 335.08 374.419 334.992 374.243 334.816C374.067 334.64 373.979 334.43 373.979 334.185C373.979 333.939 374.067 333.729 374.243 333.553C374.419 333.378 374.629 333.29 374.874 333.29C375.12 333.29 375.33 333.378 375.506 333.553C375.681 333.729 375.769 333.939 375.769 334.185C375.769 334.347 375.728 334.496 375.645 334.632C375.565 334.768 375.458 334.877 375.322 334.96C375.189 335.04 375.04 335.08 374.874 335.08ZM378.73 335.08C378.484 335.08 378.274 334.992 378.098 334.816C377.923 334.64 377.835 334.43 377.835 334.185C377.835 333.939 377.923 333.729 378.098 333.553C378.274 333.378 378.484 333.29 378.73 333.29C378.975 333.29 379.185 333.378 379.361 333.553C379.537 333.729 379.625 333.939 379.625 334.185C379.625 334.347 379.583 334.496 379.5 334.632C379.421 334.768 379.313 334.877 379.177 334.96C379.045 335.04 378.895 335.08 378.73 335.08ZM382.585 335.08C382.34 335.08 382.129 334.992 381.954 334.816C381.778 334.64 381.69 334.43 381.69 334.185C381.69 333.939 381.778 333.729 381.954 333.553C382.129 333.378 382.34 333.29 382.585 333.29C382.83 333.29 383.041 333.378 383.217 333.553C383.392 333.729 383.48 333.939 383.48 334.185C383.48 334.347 383.439 334.496 383.356 334.632C383.276 334.768 383.169 334.877 383.033 334.96C382.9 335.04 382.751 335.08 382.585 335.08Z" fill="black"/>
<path d="M69.5 91.5V294.5H376" stroke="black"/>
<path d="M83.4999 185C78.0513 209.577 96.4999 259 132.5 259C202.5 259 322.336 147.713 358 115" stroke="black"/>
<path d="M142.407 195.474L144.237 198.511C140.948 200.494 139.064 202.519 138.585 204.586C138.125 206.641 138.875 209.293 140.835 212.544L147.664 223.872C149.166 226.363 150.225 228.67 150.842 230.793C151.47 232.936 151.607 234.923 151.252 236.756C150.909 238.608 150.037 240.354 148.638 241.994C147.258 243.622 145.312 245.193 142.801 246.707L140.126 242.269C142.306 240.955 143.821 239.551 144.671 238.056C145.541 236.55 145.797 234.883 145.438 233.055C145.111 231.236 144.237 229.149 142.818 226.793L135.055 213.918C134.058 212.264 133.373 210.687 132.999 209.187C132.614 207.668 132.654 206.171 133.118 204.696C133.583 203.222 134.556 201.733 136.038 200.229C137.539 198.714 139.662 197.129 142.407 195.474ZM97.742 171.966C100.253 170.452 102.55 169.465 104.635 169.005C106.738 168.533 108.689 168.577 110.487 169.139C112.274 169.681 113.967 170.729 115.569 172.285C117.158 173.821 118.704 175.835 120.206 178.326L127.035 189.654C128.995 192.905 130.991 194.807 133.023 195.36C135.074 195.901 137.744 195.18 141.034 193.197L142.864 196.233C140.12 197.888 137.727 199.025 135.686 199.645C133.664 200.254 131.893 200.419 130.373 200.142C128.852 199.864 127.516 199.211 126.364 198.18C125.2 197.13 124.119 195.778 123.122 194.124L115.36 181.248C113.94 178.893 112.496 177.136 111.028 175.978C109.579 174.808 107.992 174.265 106.265 174.351C104.547 174.405 102.597 175.089 100.417 176.404L97.742 171.966ZM141.034 193.197L144.237 198.511L137.551 202.541L134.348 197.228L141.034 193.197Z" fill="#2000E7"/>
<path d="M149.562 189H148.449L152.682 177.364H153.818L158.051 189H156.938L153.29 178.744H153.21L149.562 189ZM150.364 184.54H156.136V185.494H150.364V184.54ZM163.244 189.182C162.464 189.182 161.784 188.987 161.205 188.597C160.629 188.206 160.182 187.672 159.864 186.994C159.545 186.316 159.386 185.544 159.386 184.676C159.386 183.801 159.547 183.023 159.869 182.341C160.195 181.659 160.646 181.125 161.222 180.739C161.797 180.348 162.466 180.153 163.227 180.153C163.811 180.153 164.339 180.267 164.812 180.494C165.286 180.718 165.676 181.034 165.983 181.443C166.294 181.848 166.489 182.322 166.568 182.864H165.545C165.439 182.371 165.184 181.951 164.778 181.602C164.377 181.25 163.866 181.074 163.244 181.074C162.688 181.074 162.195 181.225 161.767 181.528C161.339 181.828 161.004 182.246 160.761 182.784C160.523 183.318 160.403 183.937 160.403 184.642C160.403 185.35 160.521 185.977 160.756 186.523C160.991 187.064 161.32 187.489 161.744 187.795C162.172 188.102 162.672 188.256 163.244 188.256C163.631 188.256 163.983 188.184 164.301 188.04C164.623 187.892 164.892 187.684 165.108 187.415C165.328 187.146 165.475 186.826 165.551 186.455H166.574C166.498 186.981 166.311 187.451 166.011 187.864C165.716 188.273 165.331 188.595 164.858 188.83C164.388 189.064 163.85 189.182 163.244 189.182ZM172.151 189.182C171.37 189.182 170.69 188.987 170.111 188.597C169.535 188.206 169.088 187.672 168.77 186.994C168.452 186.316 168.293 185.544 168.293 184.676C168.293 183.801 168.454 183.023 168.776 182.341C169.101 181.659 169.552 181.125 170.128 180.739C170.704 180.348 171.372 180.153 172.134 180.153C172.717 180.153 173.245 180.267 173.719 180.494C174.192 180.718 174.582 181.034 174.889 181.443C175.2 181.848 175.395 182.322 175.474 182.864H174.452C174.346 182.371 174.09 181.951 173.685 181.602C173.283 181.25 172.772 181.074 172.151 181.074C171.594 181.074 171.101 181.225 170.673 181.528C170.245 181.828 169.91 182.246 169.668 182.784C169.429 183.318 169.31 183.937 169.31 184.642C169.31 185.35 169.427 185.977 169.662 186.523C169.897 187.064 170.226 187.489 170.651 187.795C171.079 188.102 171.579 188.256 172.151 188.256C172.537 188.256 172.889 188.184 173.207 188.04C173.529 187.892 173.798 187.684 174.014 187.415C174.234 187.146 174.382 186.826 174.457 186.455H175.48C175.404 186.981 175.217 187.451 174.918 187.864C174.622 188.273 174.238 188.595 173.764 188.83C173.295 189.064 172.757 189.182 172.151 189.182ZM183.193 185.665V180.273H184.205V189H183.193V187.551H183.114C182.909 187.998 182.585 188.371 182.142 188.67C181.699 188.966 181.157 189.114 180.517 189.114C179.96 189.114 179.466 188.992 179.034 188.75C178.602 188.504 178.263 188.144 178.017 187.67C177.771 187.197 177.648 186.616 177.648 185.926V180.273H178.659V185.864C178.659 186.545 178.86 187.095 179.261 187.511C179.663 187.924 180.178 188.131 180.807 188.131C181.201 188.131 181.58 188.036 181.943 187.847C182.307 187.657 182.606 187.381 182.841 187.017C183.076 186.65 183.193 186.199 183.193 185.665ZM186.882 189V180.273H187.865V181.614H187.956C188.13 181.163 188.42 180.809 188.825 180.551C189.234 180.29 189.725 180.159 190.297 180.159C190.899 180.159 191.393 180.301 191.78 180.585C192.17 180.866 192.462 181.252 192.655 181.744H192.729C192.926 181.259 193.246 180.875 193.689 180.591C194.136 180.303 194.678 180.159 195.314 180.159C196.125 180.159 196.765 180.415 197.234 180.926C197.704 181.434 197.939 182.176 197.939 183.153V189H196.928V183.153C196.928 182.464 196.751 181.947 196.399 181.602C196.047 181.258 195.583 181.085 195.007 181.085C194.34 181.085 193.827 181.29 193.467 181.699C193.107 182.108 192.928 182.627 192.928 183.256V189H191.893V183.062C191.893 182.472 191.729 181.994 191.399 181.631C191.07 181.267 190.606 181.085 190.007 181.085C189.606 181.085 189.244 181.184 188.922 181.381C188.604 181.578 188.352 181.852 188.166 182.205C187.984 182.553 187.893 182.955 187.893 183.409V189H186.882ZM206.162 185.665V180.273H207.173V189H206.162V187.551H206.082C205.878 187.998 205.554 188.371 205.111 188.67C204.668 188.966 204.126 189.114 203.486 189.114C202.929 189.114 202.435 188.992 202.003 188.75C201.571 188.504 201.232 188.144 200.986 187.67C200.74 187.197 200.616 186.616 200.616 185.926V180.273H201.628V185.864C201.628 186.545 201.829 187.095 202.23 187.511C202.632 187.924 203.147 188.131 203.776 188.131C204.17 188.131 204.548 188.036 204.912 187.847C205.276 187.657 205.575 187.381 205.81 187.017C206.045 186.65 206.162 186.199 206.162 185.665ZM210.862 177.364V189H209.851V177.364H210.862ZM215.976 189.199C215.449 189.199 214.968 189.097 214.533 188.892C214.097 188.684 213.75 188.384 213.493 187.994C213.235 187.6 213.107 187.123 213.107 186.562C213.107 186.131 213.188 185.767 213.351 185.472C213.514 185.176 213.745 184.934 214.044 184.744C214.343 184.555 214.697 184.405 215.107 184.295C215.516 184.186 215.966 184.1 216.459 184.04C216.947 183.979 217.36 183.926 217.697 183.881C218.038 183.835 218.298 183.763 218.476 183.665C218.654 183.566 218.743 183.407 218.743 183.188V182.983C218.743 182.388 218.565 181.92 218.209 181.58C217.857 181.235 217.349 181.062 216.686 181.062C216.057 181.062 215.544 181.201 215.146 181.477C214.752 181.754 214.476 182.08 214.317 182.455L213.357 182.108C213.554 181.631 213.826 181.25 214.175 180.966C214.523 180.678 214.913 180.472 215.345 180.347C215.777 180.218 216.214 180.153 216.658 180.153C216.991 180.153 217.338 180.197 217.697 180.284C218.061 180.371 218.398 180.523 218.709 180.739C219.019 180.951 219.271 181.248 219.464 181.631C219.658 182.009 219.754 182.491 219.754 183.074V189H218.743V187.619H218.68C218.559 187.877 218.379 188.127 218.141 188.369C217.902 188.612 217.603 188.811 217.243 188.966C216.883 189.121 216.461 189.199 215.976 189.199ZM216.112 188.273C216.65 188.273 217.116 188.153 217.51 187.915C217.904 187.676 218.207 187.36 218.419 186.966C218.635 186.568 218.743 186.131 218.743 185.653V184.392C218.667 184.464 218.54 184.528 218.362 184.585C218.188 184.642 217.985 184.693 217.754 184.739C217.527 184.78 217.3 184.816 217.072 184.847C216.845 184.877 216.641 184.903 216.459 184.926C215.966 184.987 215.546 185.081 215.197 185.21C214.849 185.339 214.582 185.517 214.396 185.744C214.211 185.968 214.118 186.256 214.118 186.608C214.118 187.138 214.307 187.549 214.686 187.841C215.065 188.129 215.54 188.273 216.112 188.273ZM225.882 180.273V181.153H221.717V180.273H225.882ZM223.018 178.182H224.036V186.722C224.036 187.085 224.098 187.371 224.223 187.58C224.348 187.784 224.511 187.93 224.712 188.017C224.912 188.1 225.126 188.142 225.354 188.142C225.486 188.142 225.6 188.134 225.695 188.119C225.789 188.1 225.873 188.081 225.945 188.062L226.161 188.977C226.062 189.015 225.941 189.049 225.797 189.08C225.653 189.114 225.475 189.131 225.263 189.131C224.892 189.131 224.534 189.049 224.189 188.886C223.848 188.723 223.568 188.481 223.348 188.159C223.128 187.837 223.018 187.438 223.018 186.96V178.182ZM228.19 189V180.273H229.207V189H228.19ZM228.707 178.773C228.499 178.773 228.321 178.703 228.173 178.562C228.026 178.419 227.952 178.246 227.952 178.045C227.952 177.845 228.026 177.674 228.173 177.534C228.321 177.39 228.499 177.318 228.707 177.318C228.916 177.318 229.094 177.39 229.241 177.534C229.389 177.674 229.463 177.845 229.463 178.045C229.463 178.246 229.389 178.419 229.241 178.562C229.094 178.703 228.916 178.773 228.707 178.773ZM235.274 189.182C234.52 189.182 233.854 188.991 233.274 188.608C232.698 188.225 232.248 187.697 231.922 187.023C231.596 186.345 231.433 185.562 231.433 184.676C231.433 183.782 231.596 182.996 231.922 182.318C232.248 181.636 232.698 181.106 233.274 180.727C233.854 180.345 234.52 180.153 235.274 180.153C236.028 180.153 236.693 180.345 237.268 180.727C237.844 181.11 238.295 181.64 238.621 182.318C238.95 182.996 239.115 183.782 239.115 184.676C239.115 185.562 238.952 186.345 238.626 187.023C238.301 187.697 237.848 188.225 237.268 188.608C236.693 188.991 236.028 189.182 235.274 189.182ZM235.274 188.256C235.88 188.256 236.393 188.093 236.814 187.767C237.234 187.441 237.553 187.008 237.768 186.466C237.988 185.924 238.098 185.328 238.098 184.676C238.098 184.025 237.988 183.426 237.768 182.881C237.553 182.335 237.234 181.898 236.814 181.568C236.393 181.239 235.88 181.074 235.274 181.074C234.672 181.074 234.159 181.239 233.734 181.568C233.314 181.898 232.994 182.335 232.774 182.881C232.558 183.426 232.45 184.025 232.45 184.676C232.45 185.328 232.558 185.924 232.774 186.466C232.994 187.008 233.314 187.441 233.734 187.767C234.155 188.093 234.668 188.256 235.274 188.256ZM242.347 183.545V189H241.335V180.273H242.318V181.642H242.409C242.614 181.195 242.932 180.837 243.364 180.568C243.799 180.295 244.337 180.159 244.977 180.159C245.564 180.159 246.08 180.282 246.523 180.528C246.97 180.771 247.316 181.129 247.562 181.602C247.812 182.076 247.938 182.657 247.938 183.347V189H246.926V183.409C246.926 182.693 246.725 182.127 246.324 181.71C245.926 181.294 245.392 181.085 244.722 181.085C244.263 181.085 243.856 181.184 243.5 181.381C243.144 181.578 242.862 181.862 242.653 182.233C242.449 182.6 242.347 183.038 242.347 183.545ZM149.545 208V196.364H153.301C154.127 196.364 154.816 196.523 155.369 196.841C155.926 197.155 156.345 197.583 156.625 198.125C156.909 198.667 157.051 199.277 157.051 199.955C157.051 200.633 156.911 201.244 156.631 201.79C156.35 202.331 155.934 202.761 155.381 203.08C154.828 203.394 154.14 203.551 153.318 203.551H150.364V202.597H153.29C153.9 202.597 154.405 202.483 154.807 202.256C155.208 202.025 155.508 201.71 155.705 201.312C155.905 200.915 156.006 200.462 156.006 199.955C156.006 199.447 155.905 198.994 155.705 198.597C155.508 198.199 155.206 197.886 154.801 197.659C154.4 197.432 153.89 197.318 153.273 197.318H150.608V208H149.545ZM160.347 202.545V208H159.335V196.364H160.347V200.642H160.438C160.642 200.191 160.958 199.831 161.386 199.562C161.818 199.294 162.364 199.159 163.023 199.159C163.614 199.159 164.133 199.28 164.58 199.523C165.027 199.765 165.375 200.123 165.625 200.597C165.875 201.07 166 201.653 166 202.347V208H164.983V202.409C164.983 201.689 164.782 201.123 164.381 200.71C163.983 200.294 163.445 200.085 162.767 200.085C162.301 200.085 161.886 200.184 161.523 200.381C161.159 200.578 160.871 200.862 160.659 201.233C160.451 201.6 160.347 202.038 160.347 202.545ZM171.101 208.199C170.574 208.199 170.093 208.097 169.658 207.892C169.222 207.684 168.875 207.384 168.618 206.994C168.36 206.6 168.232 206.123 168.232 205.562C168.232 205.131 168.313 204.767 168.476 204.472C168.639 204.176 168.87 203.934 169.169 203.744C169.468 203.555 169.822 203.405 170.232 203.295C170.641 203.186 171.091 203.1 171.584 203.04C172.072 202.979 172.485 202.926 172.822 202.881C173.163 202.835 173.423 202.763 173.601 202.665C173.779 202.566 173.868 202.407 173.868 202.188V201.983C173.868 201.388 173.69 200.92 173.334 200.58C172.982 200.235 172.474 200.062 171.811 200.062C171.182 200.062 170.669 200.201 170.271 200.477C169.877 200.754 169.601 201.08 169.442 201.455L168.482 201.108C168.679 200.631 168.951 200.25 169.3 199.966C169.648 199.678 170.038 199.472 170.47 199.347C170.902 199.218 171.339 199.153 171.783 199.153C172.116 199.153 172.463 199.197 172.822 199.284C173.186 199.371 173.523 199.523 173.834 199.739C174.144 199.951 174.396 200.248 174.589 200.631C174.783 201.009 174.879 201.491 174.879 202.074V208H173.868V206.619H173.805C173.684 206.877 173.504 207.127 173.266 207.369C173.027 207.612 172.728 207.811 172.368 207.966C172.008 208.121 171.586 208.199 171.101 208.199ZM171.237 207.273C171.775 207.273 172.241 207.153 172.635 206.915C173.029 206.676 173.332 206.36 173.544 205.966C173.76 205.568 173.868 205.131 173.868 204.653V203.392C173.792 203.464 173.665 203.528 173.487 203.585C173.313 203.642 173.11 203.693 172.879 203.739C172.652 203.78 172.425 203.816 172.197 203.847C171.97 203.877 171.766 203.903 171.584 203.926C171.091 203.987 170.671 204.081 170.322 204.21C169.974 204.339 169.707 204.517 169.521 204.744C169.336 204.968 169.243 205.256 169.243 205.608C169.243 206.138 169.432 206.549 169.811 206.841C170.19 207.129 170.665 207.273 171.237 207.273ZM183.433 201.188L182.507 201.449C182.416 201.187 182.287 200.951 182.121 200.739C181.954 200.527 181.736 200.358 181.467 200.233C181.202 200.108 180.873 200.045 180.479 200.045C179.888 200.045 179.403 200.186 179.024 200.466C178.645 200.746 178.456 201.108 178.456 201.551C178.456 201.926 178.585 202.231 178.842 202.466C179.104 202.697 179.505 202.881 180.047 203.017L181.365 203.341C182.096 203.519 182.643 203.801 183.007 204.188C183.375 204.574 183.558 205.059 183.558 205.642C183.558 206.134 183.422 206.572 183.149 206.955C182.876 207.337 182.496 207.638 182.007 207.858C181.522 208.074 180.96 208.182 180.32 208.182C179.467 208.182 178.765 207.991 178.212 207.608C177.659 207.222 177.304 206.665 177.149 205.938L178.121 205.699C178.246 206.218 178.49 206.61 178.854 206.875C179.221 207.14 179.704 207.273 180.303 207.273C180.973 207.273 181.509 207.123 181.911 206.824C182.312 206.521 182.513 206.142 182.513 205.688C182.513 205.335 182.395 205.04 182.161 204.801C181.926 204.559 181.57 204.381 181.092 204.267L179.666 203.926C178.909 203.744 178.348 203.456 177.984 203.062C177.621 202.669 177.439 202.18 177.439 201.597C177.439 201.116 177.57 200.693 177.831 200.33C178.092 199.962 178.452 199.674 178.911 199.466C179.369 199.258 179.892 199.153 180.479 199.153C181.278 199.153 181.916 199.335 182.393 199.699C182.875 200.059 183.221 200.555 183.433 201.188ZM189.301 208.182C188.487 208.182 187.782 207.992 187.188 207.614C186.593 207.231 186.133 206.703 185.807 206.028C185.485 205.35 185.324 204.57 185.324 203.688C185.324 202.809 185.485 202.028 185.807 201.347C186.133 200.661 186.581 200.125 187.153 199.739C187.729 199.348 188.394 199.153 189.148 199.153C189.621 199.153 190.078 199.241 190.517 199.415C190.956 199.585 191.35 199.848 191.699 200.205C192.051 200.557 192.33 201.002 192.534 201.54C192.739 202.074 192.841 202.706 192.841 203.438V203.938H186.023V203.045H191.807C191.807 202.485 191.693 201.981 191.466 201.534C191.242 201.083 190.93 200.727 190.528 200.466C190.131 200.205 189.67 200.074 189.148 200.074C188.595 200.074 188.108 200.222 187.688 200.517C187.267 200.812 186.938 201.203 186.699 201.688C186.464 202.172 186.345 202.703 186.341 203.278V203.812C186.341 204.506 186.46 205.112 186.699 205.631C186.941 206.146 187.284 206.545 187.727 206.83C188.17 207.114 188.695 207.256 189.301 207.256C189.714 207.256 190.076 207.191 190.386 207.062C190.701 206.934 190.964 206.761 191.176 206.545C191.392 206.326 191.555 206.085 191.665 205.824L192.625 206.136C192.492 206.504 192.275 206.843 191.972 207.153C191.672 207.464 191.297 207.714 190.847 207.903C190.4 208.089 189.884 208.182 189.301 208.182Z" fill="black"/>
<path d="M158.731 348.818H160.143L162.967 353.571H163.086L165.91 348.818H167.322L163.643 354.804V359H162.41V354.804L158.731 348.818ZM170.879 359.159C170.143 359.159 169.509 358.997 168.975 358.672C168.445 358.344 168.035 357.886 167.747 357.3C167.462 356.71 167.319 356.024 167.319 355.241C167.319 354.459 167.462 353.77 167.747 353.173C168.035 352.573 168.436 352.106 168.95 351.771C169.467 351.433 170.07 351.264 170.76 351.264C171.157 351.264 171.55 351.33 171.938 351.463C172.326 351.596 172.679 351.811 172.997 352.109C173.315 352.404 173.569 352.795 173.758 353.283C173.947 353.77 174.041 354.37 174.041 355.082V355.58H168.155V354.565H172.848C172.848 354.134 172.762 353.75 172.589 353.412C172.42 353.074 172.178 352.807 171.863 352.612C171.552 352.416 171.184 352.318 170.76 352.318C170.292 352.318 169.888 352.434 169.547 352.666C169.209 352.895 168.948 353.193 168.766 353.561C168.584 353.929 168.493 354.323 168.493 354.744V355.42C168.493 355.997 168.592 356.486 168.791 356.887C168.993 357.285 169.273 357.588 169.631 357.797C169.989 358.002 170.405 358.105 170.879 358.105C171.187 358.105 171.466 358.062 171.714 357.976C171.966 357.886 172.183 357.754 172.366 357.578C172.548 357.399 172.689 357.177 172.788 356.912L173.922 357.23C173.802 357.615 173.602 357.953 173.32 358.244C173.038 358.533 172.69 358.758 172.276 358.92C171.862 359.08 171.396 359.159 170.879 359.159ZM178.073 359.179C177.589 359.179 177.15 359.088 176.756 358.906C176.361 358.72 176.048 358.453 175.816 358.105C175.584 357.754 175.468 357.33 175.468 356.832C175.468 356.395 175.554 356.04 175.726 355.768C175.899 355.493 176.129 355.278 176.417 355.122C176.706 354.966 177.024 354.85 177.372 354.774C177.723 354.695 178.076 354.632 178.431 354.585C178.895 354.526 179.271 354.481 179.559 354.451C179.851 354.418 180.063 354.363 180.196 354.287C180.332 354.211 180.4 354.078 180.4 353.889V353.849C180.4 353.359 180.265 352.978 179.997 352.706C179.732 352.434 179.329 352.298 178.789 352.298C178.229 352.298 177.79 352.421 177.471 352.666C177.153 352.911 176.93 353.173 176.8 353.452L175.687 353.054C175.885 352.59 176.151 352.229 176.482 351.97C176.817 351.708 177.181 351.526 177.576 351.423C177.974 351.317 178.365 351.264 178.749 351.264C178.994 351.264 179.276 351.294 179.594 351.354C179.916 351.41 180.226 351.528 180.524 351.707C180.826 351.886 181.076 352.156 181.275 352.517C181.474 352.878 181.573 353.362 181.573 353.969V359H180.4V357.966H180.34C180.26 358.132 180.128 358.309 179.942 358.498C179.757 358.687 179.51 358.848 179.202 358.98C178.893 359.113 178.517 359.179 178.073 359.179ZM178.252 358.125C178.716 358.125 179.107 358.034 179.425 357.852C179.747 357.669 179.989 357.434 180.151 357.146C180.317 356.857 180.4 356.554 180.4 356.236V355.162C180.35 355.222 180.241 355.276 180.072 355.326C179.906 355.372 179.714 355.414 179.495 355.45C179.279 355.483 179.069 355.513 178.863 355.54C178.661 355.563 178.497 355.583 178.371 355.599C178.066 355.639 177.781 355.704 177.516 355.793C177.254 355.879 177.042 356.01 176.88 356.186C176.721 356.358 176.641 356.594 176.641 356.892C176.641 357.3 176.792 357.608 177.094 357.817C177.398 358.022 177.785 358.125 178.252 358.125ZM183.714 359V351.364H184.848V352.517H184.928C185.067 352.139 185.319 351.833 185.683 351.597C186.048 351.362 186.459 351.244 186.916 351.244C187.002 351.244 187.11 351.246 187.239 351.249C187.369 351.253 187.466 351.258 187.533 351.264V352.457C187.493 352.447 187.402 352.433 187.259 352.413C187.12 352.389 186.973 352.378 186.817 352.378C186.446 352.378 186.114 352.456 185.822 352.612C185.534 352.764 185.305 352.976 185.136 353.248C184.971 353.516 184.888 353.823 184.888 354.168V359H183.714ZM194.333 353.074L193.279 353.372C193.212 353.196 193.115 353.026 192.985 352.86C192.859 352.691 192.687 352.552 192.468 352.442C192.249 352.333 191.969 352.278 191.628 352.278C191.161 352.278 190.771 352.386 190.46 352.602C190.151 352.814 189.997 353.084 189.997 353.412C189.997 353.704 190.103 353.934 190.316 354.103C190.528 354.272 190.859 354.413 191.31 354.526L192.443 354.804C193.126 354.97 193.635 355.223 193.97 355.565C194.304 355.903 194.472 356.339 194.472 356.872C194.472 357.31 194.346 357.701 194.094 358.045C193.845 358.39 193.497 358.662 193.05 358.861C192.602 359.06 192.082 359.159 191.489 359.159C190.71 359.159 190.065 358.99 189.555 358.652C189.044 358.314 188.721 357.82 188.585 357.17L189.699 356.892C189.805 357.303 190.006 357.611 190.301 357.817C190.599 358.022 190.988 358.125 191.469 358.125C192.016 358.125 192.45 358.009 192.771 357.777C193.096 357.542 193.259 357.26 193.259 356.932C193.259 356.667 193.166 356.445 192.98 356.266C192.795 356.083 192.51 355.947 192.125 355.858L190.852 355.56C190.153 355.394 189.639 355.137 189.311 354.789C188.986 354.438 188.824 353.999 188.824 353.472C188.824 353.041 188.945 352.66 189.187 352.328C189.432 351.997 189.765 351.737 190.186 351.548C190.61 351.359 191.091 351.264 191.628 351.264C192.384 351.264 192.977 351.43 193.408 351.761C193.842 352.093 194.15 352.53 194.333 353.074ZM205.903 351.364C205.843 350.86 205.601 350.469 205.177 350.19C204.753 349.912 204.232 349.773 203.616 349.773C203.165 349.773 202.771 349.846 202.433 349.991C202.098 350.137 201.836 350.338 201.647 350.593C201.461 350.848 201.369 351.138 201.369 351.463C201.369 351.735 201.433 351.969 201.562 352.164C201.695 352.356 201.864 352.517 202.07 352.646C202.275 352.772 202.491 352.877 202.716 352.96C202.941 353.039 203.148 353.104 203.337 353.153L204.371 353.432C204.637 353.501 204.932 353.598 205.256 353.72C205.585 353.843 205.898 354.01 206.196 354.222C206.498 354.431 206.746 354.7 206.942 355.028C207.137 355.356 207.235 355.759 207.235 356.236C207.235 356.786 207.091 357.283 206.803 357.727C206.518 358.171 206.1 358.524 205.55 358.786C205.003 359.048 204.338 359.179 203.556 359.179C202.827 359.179 202.196 359.061 201.662 358.826C201.132 358.591 200.714 358.263 200.409 357.842C200.107 357.421 199.937 356.932 199.897 356.375H201.17C201.203 356.759 201.332 357.078 201.558 357.33C201.786 357.578 202.075 357.764 202.423 357.886C202.774 358.006 203.152 358.065 203.556 358.065C204.027 358.065 204.449 357.989 204.824 357.837C205.198 357.681 205.495 357.465 205.714 357.19C205.933 356.912 206.042 356.587 206.042 356.216C206.042 355.878 205.947 355.603 205.759 355.391C205.57 355.179 205.321 355.006 205.013 354.874C204.705 354.741 204.371 354.625 204.013 354.526L202.761 354.168C201.965 353.939 201.335 353.612 200.871 353.188C200.407 352.764 200.175 352.209 200.175 351.523C200.175 350.953 200.33 350.455 200.638 350.031C200.949 349.604 201.367 349.272 201.891 349.037C202.418 348.798 203.006 348.679 203.656 348.679C204.312 348.679 204.895 348.797 205.406 349.032C205.916 349.264 206.32 349.582 206.619 349.987C206.92 350.391 207.079 350.85 207.096 351.364H205.903ZM209.103 359V351.364H210.276V359H209.103ZM209.7 350.091C209.471 350.091 209.274 350.013 209.108 349.857C208.946 349.701 208.865 349.514 208.865 349.295C208.865 349.077 208.946 348.889 209.108 348.734C209.274 348.578 209.471 348.5 209.7 348.5C209.928 348.5 210.124 348.578 210.286 348.734C210.452 348.889 210.535 349.077 210.535 349.295C210.535 349.514 210.452 349.701 210.286 349.857C210.124 350.013 209.928 350.091 209.7 350.091ZM213.599 354.406V359H212.425V351.364H213.559V352.557H213.658C213.837 352.169 214.109 351.857 214.474 351.622C214.838 351.384 215.309 351.264 215.886 351.264C216.403 351.264 216.855 351.37 217.243 351.582C217.631 351.791 217.932 352.109 218.148 352.537C218.363 352.961 218.471 353.498 218.471 354.148V359H217.298V354.227C217.298 353.627 217.142 353.16 216.83 352.825C216.519 352.487 216.091 352.318 215.548 352.318C215.173 352.318 214.838 352.399 214.543 352.562C214.252 352.724 214.021 352.961 213.852 353.273C213.683 353.584 213.599 353.962 213.599 354.406ZM223.717 359.159C223.001 359.159 222.385 358.99 221.868 358.652C221.351 358.314 220.953 357.848 220.675 357.255C220.396 356.662 220.257 355.984 220.257 355.222C220.257 354.446 220.399 353.762 220.684 353.168C220.973 352.572 221.374 352.106 221.888 351.771C222.405 351.433 223.008 351.264 223.697 351.264C224.234 351.264 224.718 351.364 225.149 351.562C225.58 351.761 225.933 352.04 226.208 352.398C226.483 352.756 226.654 353.173 226.72 353.651H225.547C225.457 353.303 225.258 352.994 224.95 352.726C224.645 352.454 224.234 352.318 223.717 352.318C223.26 352.318 222.859 352.437 222.514 352.676C222.173 352.911 221.906 353.245 221.714 353.675C221.525 354.103 221.43 354.605 221.43 355.182C221.43 355.772 221.523 356.286 221.709 356.723C221.898 357.161 222.163 357.5 222.504 357.742C222.849 357.984 223.253 358.105 223.717 358.105C224.022 358.105 224.299 358.052 224.547 357.946C224.796 357.84 225.006 357.688 225.179 357.489C225.351 357.29 225.474 357.051 225.547 356.773H226.72C226.654 357.223 226.49 357.629 226.228 357.991C225.969 358.349 225.626 358.634 225.199 358.846C224.774 359.055 224.281 359.159 223.717 359.159ZM231.637 359.159C230.901 359.159 230.266 358.997 229.733 358.672C229.202 358.344 228.793 357.886 228.505 357.3C228.22 356.71 228.077 356.024 228.077 355.241C228.077 354.459 228.22 353.77 228.505 353.173C228.793 352.573 229.194 352.106 229.708 351.771C230.225 351.433 230.828 351.264 231.518 351.264C231.915 351.264 232.308 351.33 232.696 351.463C233.084 351.596 233.437 351.811 233.755 352.109C234.073 352.404 234.327 352.795 234.515 353.283C234.704 353.77 234.799 354.37 234.799 355.082V355.58H228.912V354.565H233.606C233.606 354.134 233.519 353.75 233.347 353.412C233.178 353.074 232.936 352.807 232.621 352.612C232.31 352.416 231.942 352.318 231.518 352.318C231.05 352.318 230.646 352.434 230.305 352.666C229.966 352.895 229.706 353.193 229.524 353.561C229.342 353.929 229.251 354.323 229.251 354.744V355.42C229.251 355.997 229.35 356.486 229.549 356.887C229.751 357.285 230.031 357.588 230.389 357.797C230.747 358.002 231.163 358.105 231.637 358.105C231.945 358.105 232.224 358.062 232.472 357.976C232.724 357.886 232.941 357.754 233.123 357.578C233.306 357.399 233.447 357.177 233.546 356.912L234.68 357.23C234.56 357.615 234.36 357.953 234.078 358.244C233.796 358.533 233.448 358.758 233.034 358.92C232.62 359.08 232.154 359.159 231.637 359.159ZM240.68 359V348.818H241.913V357.906H246.646V359H240.68ZM250.643 359.179C250.159 359.179 249.72 359.088 249.326 358.906C248.931 358.72 248.618 358.453 248.386 358.105C248.154 357.754 248.038 357.33 248.038 356.832C248.038 356.395 248.124 356.04 248.297 355.768C248.469 355.493 248.699 355.278 248.988 355.122C249.276 354.966 249.594 354.85 249.942 354.774C250.294 354.695 250.647 354.632 251.001 354.585C251.465 354.526 251.841 354.481 252.13 354.451C252.421 354.418 252.634 354.363 252.766 354.287C252.902 354.211 252.97 354.078 252.97 353.889V353.849C252.97 353.359 252.836 352.978 252.567 352.706C252.302 352.434 251.899 352.298 251.359 352.298C250.799 352.298 250.36 352.421 250.042 352.666C249.724 352.911 249.5 353.173 249.371 353.452L248.257 353.054C248.456 352.59 248.721 352.229 249.052 351.97C249.387 351.708 249.752 351.526 250.146 351.423C250.544 351.317 250.935 351.264 251.319 351.264C251.565 351.264 251.846 351.294 252.165 351.354C252.486 351.41 252.796 351.528 253.094 351.707C253.396 351.886 253.646 352.156 253.845 352.517C254.044 352.878 254.143 353.362 254.143 353.969V359H252.97V357.966H252.91C252.831 358.132 252.698 358.309 252.513 358.498C252.327 358.687 252.08 358.848 251.772 358.98C251.464 359.113 251.087 359.179 250.643 359.179ZM250.822 358.125C251.286 358.125 251.677 358.034 251.996 357.852C252.317 357.669 252.559 357.434 252.721 357.146C252.887 356.857 252.97 356.554 252.97 356.236V355.162C252.92 355.222 252.811 355.276 252.642 355.326C252.476 355.372 252.284 355.414 252.065 355.45C251.85 355.483 251.639 355.513 251.434 355.54C251.232 355.563 251.068 355.583 250.942 355.599C250.637 355.639 250.352 355.704 250.086 355.793C249.825 355.879 249.613 356.01 249.45 356.186C249.291 356.358 249.211 356.594 249.211 356.892C249.211 357.3 249.362 357.608 249.664 357.817C249.969 358.022 250.355 358.125 250.822 358.125ZM261.097 355.878V351.364H262.271V359H261.097V357.707H261.018C260.839 358.095 260.56 358.425 260.183 358.697C259.805 358.965 259.327 359.099 258.751 359.099C258.273 359.099 257.849 358.995 257.478 358.786C257.107 358.574 256.815 358.256 256.603 357.832C256.391 357.404 256.285 356.866 256.285 356.216V351.364H257.458V356.136C257.458 356.693 257.614 357.137 257.925 357.469C258.24 357.8 258.641 357.966 259.129 357.966C259.42 357.966 259.717 357.891 260.018 357.742C260.323 357.593 260.579 357.364 260.784 357.056C260.993 356.748 261.097 356.355 261.097 355.878ZM265.593 354.406V359H264.42V351.364H265.553V352.557H265.653C265.831 352.169 266.103 351.857 266.468 351.622C266.832 351.384 267.303 351.264 267.88 351.264C268.397 351.264 268.849 351.37 269.237 351.582C269.625 351.791 269.926 352.109 270.142 352.537C270.357 352.961 270.465 353.498 270.465 354.148V359H269.292V354.227C269.292 353.627 269.136 353.16 268.824 352.825C268.513 352.487 268.085 352.318 267.542 352.318C267.167 352.318 266.832 352.399 266.537 352.562C266.246 352.724 266.015 352.961 265.846 353.273C265.677 353.584 265.593 353.962 265.593 354.406ZM275.711 359.159C274.995 359.159 274.379 358.99 273.862 358.652C273.345 358.314 272.947 357.848 272.669 357.255C272.39 356.662 272.251 355.984 272.251 355.222C272.251 354.446 272.394 353.762 272.679 353.168C272.967 352.572 273.368 352.106 273.882 351.771C274.399 351.433 275.002 351.264 275.691 351.264C276.228 351.264 276.712 351.364 277.143 351.562C277.574 351.761 277.927 352.04 278.202 352.398C278.477 352.756 278.648 353.173 278.714 353.651H277.541C277.451 353.303 277.252 352.994 276.944 352.726C276.639 352.454 276.228 352.318 275.711 352.318C275.254 352.318 274.853 352.437 274.508 352.676C274.167 352.911 273.9 353.245 273.708 353.675C273.519 354.103 273.424 354.605 273.424 355.182C273.424 355.772 273.517 356.286 273.703 356.723C273.892 357.161 274.157 357.5 274.498 357.742C274.843 357.984 275.247 358.105 275.711 358.105C276.016 358.105 276.293 358.052 276.542 357.946C276.79 357.84 277.001 357.688 277.173 357.489C277.345 357.29 277.468 357.051 277.541 356.773H278.714C278.648 357.223 278.484 357.629 278.222 357.991C277.963 358.349 277.62 358.634 277.193 358.846C276.769 359.055 276.275 359.159 275.711 359.159ZM281.603 354.406V359H280.429V348.818H281.603V352.557H281.702C281.881 352.162 282.15 351.849 282.507 351.617C282.869 351.382 283.349 351.264 283.949 351.264C284.47 351.264 284.925 351.369 285.316 351.577C285.708 351.783 286.011 352.099 286.226 352.527C286.445 352.951 286.554 353.491 286.554 354.148V359H285.381V354.227C285.381 353.621 285.224 353.152 284.909 352.82C284.597 352.486 284.165 352.318 283.611 352.318C283.227 352.318 282.882 352.399 282.577 352.562C282.275 352.724 282.037 352.961 281.861 353.273C281.689 353.584 281.603 353.962 281.603 354.406Z" fill="black"/>
<rect x="-0.5" y="0.5" width="451" height="377" transform="matrix(1 0 0 -1 1 378)" stroke="black"/>
</svg>
